<svg width="18" height="22" viewBox="0 0 18 22" fill="none" xmlns="http://www.w3.org/2000/svg">
<g clip-path="url(#clip0_72_2594)">
<path d="M5.94643 12.375H4.33929C4.07411 12.375 3.85714 12.143 3.85714 11.8594V10.1406C3.85714 9.85703 4.07411 9.625 4.33929 9.625H5.94643C6.21161 9.625 6.42857 9.85703 6.42857 10.1406V11.8594C6.42857 12.143 6.21161 12.375 5.94643 12.375ZM10.2857 11.8594V10.1406C10.2857 9.85703 10.0687 9.625 9.80357 9.625H8.19643C7.93125 9.625 7.71429 9.85703 7.71429 10.1406V11.8594C7.71429 12.143 7.93125 12.375 8.19643 12.375H9.80357C10.0687 12.375 10.2857 12.143 10.2857 11.8594ZM14.1429 11.8594V10.1406C14.1429 9.85703 13.9259 9.625 13.6607 9.625H12.0536C11.7884 9.625 11.5714 9.85703 11.5714 10.1406V11.8594C11.5714 12.143 11.7884 12.375 12.0536 12.375H13.6607C13.9259 12.375 14.1429 12.143 14.1429 11.8594ZM10.2857 15.9844V14.2656C10.2857 13.982 10.0687 13.75 9.80357 13.75H8.19643C7.93125 13.75 7.71429 13.982 7.71429 14.2656V15.9844C7.71429 16.268 7.93125 16.5 8.19643 16.5H9.80357C10.0687 16.5 10.2857 16.268 10.2857 15.9844ZM6.42857 15.9844V14.2656C6.42857 13.982 6.21161 13.75 5.94643 13.75H4.33929C4.07411 13.75 3.85714 13.982 3.85714 14.2656V15.9844C3.85714 16.268 4.07411 16.5 4.33929 16.5H5.94643C6.21161 16.5 6.42857 16.268 6.42857 15.9844ZM14.1429 15.9844V14.2656C14.1429 13.982 13.9259 13.75 13.6607 13.75H12.0536C11.7884 13.75 11.5714 13.982 11.5714 14.2656V15.9844C11.5714 16.268 11.7884 16.5 12.0536 16.5H13.6607C13.9259 16.5 14.1429 16.268 14.1429 15.9844ZM18 4.8125V19.9375C18 21.0762 17.1362 22 16.0714 22H1.92857C0.863839 22 0 21.0762 0 19.9375V4.8125C0 3.67383 0.863839 2.75 1.92857 2.75H3.85714V0.515625C3.85714 0.232031 4.07411 0 4.33929 0H5.94643C6.21161 0 6.42857 0.232031 6.42857 0.515625V2.75H11.5714V0.515625C11.5714 0.232031 11.7884 0 12.0536 0H13.6607C13.9259 0 14.1429 0.232031 14.1429 0.515625V2.75H16.0714C17.1362 2.75 18 3.67383 18 4.8125ZM16.0714 19.6797V6.875H1.92857V19.6797C1.92857 19.8215 2.03705 19.9375 2.16964 19.9375H15.8304C15.9629 19.9375 16.0714 19.8215 16.0714 19.6797Z" fill="black"/>
</g>
<defs>
<clipPath id="clip0_72_2594">
<rect width="18" height="22" fill="white"/>
</clipPath>
</defs>
</svg>
