<svg width="305" height="47" viewBox="0 0 305 47" fill="none" xmlns="http://www.w3.org/2000/svg">
<rect x="0.5" y="0.5" width="304" height="46" rx="23" stroke="#646364"/>
<mask id="mask0_70_2548" style="mask-type:luminance" maskUnits="userSpaceOnUse" x="71" y="14" width="20" height="20">
<path d="M91 14H71V34H91V14Z" fill="white"/>
</mask>
<g mask="url(#mask0_70_2548)">
<path d="M90.6 24.2271C90.6 23.518 90.5364 22.8362 90.4182 22.1816H81V26.0498H86.3818C86.15 27.2998 85.4455 28.3589 84.3864 29.068V31.5771H87.6182C89.5091 29.8362 90.6 27.2725 90.6 24.2271Z" fill="#4285F4"/>
<path d="M81.0001 34.0004C83.7001 34.0004 85.9637 33.1049 87.6182 31.5777L84.3864 29.0686C83.491 29.6686 82.3455 30.0231 81.0001 30.0231C78.3955 30.0231 76.191 28.264 75.4046 25.9004H72.0637V28.4913C73.7092 31.7595 77.091 34.0004 81.0001 34.0004Z" fill="#34A853"/>
<path d="M75.4045 25.8997C75.2045 25.2997 75.0909 24.6588 75.0909 23.9997C75.0909 23.3406 75.2045 22.6997 75.4045 22.0997V19.5088H72.0636C71.3864 20.8588 71 22.3861 71 23.9997C71 25.6133 71.3864 27.1406 72.0636 28.4906L75.4045 25.8997Z" fill="#FBBC04"/>
<path d="M81.0001 17.9773C82.4682 17.9773 83.7864 18.4818 84.8228 19.4727L87.691 16.6045C85.9592 14.9909 83.6955 14 81.0001 14C77.091 14 73.7092 16.2409 72.0637 19.5091L75.4046 22.1C76.191 19.7364 78.3955 17.9773 81.0001 17.9773Z" fill="#E94235"/>
</g>
<path d="M107.891 25.7598H109.6C109.545 26.4115 109.363 26.9925 109.053 27.5029C108.743 28.0088 108.308 28.4076 107.747 28.6992C107.186 28.9909 106.505 29.1367 105.703 29.1367C105.088 29.1367 104.534 29.0273 104.042 28.8086C103.55 28.5853 103.128 28.2708 102.777 27.8652C102.426 27.4551 102.158 26.9606 101.971 26.3818C101.788 25.8031 101.697 25.1559 101.697 24.4404V23.6133C101.697 22.8978 101.791 22.2507 101.977 21.6719C102.169 21.0931 102.442 20.5986 102.798 20.1885C103.153 19.7738 103.579 19.457 104.076 19.2383C104.577 19.0195 105.14 18.9102 105.765 18.9102C106.558 18.9102 107.227 19.056 107.774 19.3477C108.321 19.6393 108.745 20.0426 109.046 20.5576C109.351 21.0726 109.538 21.6628 109.606 22.3281H107.897C107.852 21.8997 107.752 21.5329 107.597 21.2275C107.446 20.9222 107.223 20.6898 106.927 20.5303C106.63 20.3662 106.243 20.2842 105.765 20.2842C105.373 20.2842 105.031 20.3571 104.739 20.5029C104.448 20.6488 104.204 20.863 104.008 21.1455C103.812 21.4281 103.664 21.7767 103.563 22.1914C103.468 22.6016 103.42 23.071 103.42 23.5996V24.4404C103.42 24.9417 103.463 25.3975 103.55 25.8076C103.641 26.2132 103.778 26.5618 103.96 26.8535C104.147 27.1452 104.384 27.3708 104.671 27.5303C104.958 27.6898 105.302 27.7695 105.703 27.7695C106.191 27.7695 106.585 27.6921 106.886 27.5371C107.191 27.3822 107.421 27.1566 107.576 26.8604C107.736 26.5596 107.84 26.1927 107.891 25.7598ZM110.68 25.3838V25.2266C110.68 24.6934 110.757 24.1989 110.912 23.7432C111.067 23.2829 111.29 22.8841 111.582 22.5469C111.878 22.2051 112.238 21.9408 112.662 21.7539C113.09 21.5625 113.574 21.4668 114.111 21.4668C114.654 21.4668 115.137 21.5625 115.56 21.7539C115.989 21.9408 116.351 22.2051 116.647 22.5469C116.944 22.8841 117.169 23.2829 117.324 23.7432C117.479 24.1989 117.557 24.6934 117.557 25.2266V25.3838C117.557 25.917 117.479 26.4115 117.324 26.8672C117.169 27.3229 116.944 27.7217 116.647 28.0635C116.351 28.4007 115.991 28.665 115.567 28.8564C115.144 29.0433 114.663 29.1367 114.125 29.1367C113.583 29.1367 113.097 29.0433 112.669 28.8564C112.245 28.665 111.885 28.4007 111.589 28.0635C111.293 27.7217 111.067 27.3229 110.912 26.8672C110.757 26.4115 110.68 25.917 110.68 25.3838ZM112.327 25.2266V25.3838C112.327 25.7165 112.361 26.0309 112.43 26.3271C112.498 26.6234 112.605 26.8831 112.751 27.1064C112.897 27.3298 113.084 27.5052 113.311 27.6328C113.539 27.7604 113.81 27.8242 114.125 27.8242C114.43 27.8242 114.695 27.7604 114.918 27.6328C115.146 27.5052 115.333 27.3298 115.478 27.1064C115.624 26.8831 115.731 26.6234 115.8 26.3271C115.873 26.0309 115.909 25.7165 115.909 25.3838V25.2266C115.909 24.8984 115.873 24.5885 115.8 24.2969C115.731 24.0007 115.622 23.7386 115.472 23.5107C115.326 23.2829 115.139 23.1051 114.911 22.9775C114.688 22.8454 114.421 22.7793 114.111 22.7793C113.801 22.7793 113.533 22.8454 113.305 22.9775C113.081 23.1051 112.897 23.2829 112.751 23.5107C112.605 23.7386 112.498 24.0007 112.43 24.2969C112.361 24.5885 112.327 24.8984 112.327 25.2266ZM120.571 23.1826V29H118.924V21.6035H120.476L120.571 23.1826ZM120.277 25.0283L119.744 25.0215C119.749 24.4974 119.822 24.0166 119.963 23.5791C120.109 23.1416 120.309 22.7656 120.564 22.4512C120.824 22.1367 121.134 21.8952 121.494 21.7266C121.854 21.5534 122.255 21.4668 122.697 21.4668C123.053 21.4668 123.374 21.5169 123.661 21.6172C123.953 21.7129 124.201 21.8701 124.406 22.0889C124.616 22.3076 124.775 22.5924 124.885 22.9434C124.994 23.2897 125.049 23.7158 125.049 24.2217V29H123.394V24.2148C123.394 23.8594 123.342 23.5791 123.237 23.374C123.137 23.1644 122.989 23.0163 122.793 22.9297C122.602 22.8385 122.362 22.793 122.075 22.793C121.793 22.793 121.54 22.8522 121.316 22.9707C121.093 23.0892 120.904 23.251 120.749 23.4561C120.599 23.6611 120.482 23.8981 120.4 24.167C120.318 24.4359 120.277 24.723 120.277 25.0283ZM130.121 21.6035V22.8066H125.951V21.6035H130.121ZM127.154 19.792H128.802V26.9561C128.802 27.1839 128.834 27.3594 128.897 27.4824C128.966 27.6009 129.059 27.6807 129.178 27.7217C129.296 27.7627 129.435 27.7832 129.595 27.7832C129.709 27.7832 129.818 27.7764 129.923 27.7627C130.028 27.749 130.112 27.7354 130.176 27.7217L130.183 28.9795C130.046 29.0205 129.886 29.057 129.704 29.0889C129.526 29.1208 129.321 29.1367 129.089 29.1367C128.711 29.1367 128.376 29.0706 128.084 28.9385C127.792 28.8018 127.564 28.5807 127.4 28.2754C127.236 27.9701 127.154 27.5645 127.154 27.0586V19.792ZM133.156 21.6035V29H131.502V21.6035H133.156ZM131.393 19.6621C131.393 19.4115 131.475 19.2041 131.639 19.04C131.807 18.8714 132.04 18.7871 132.336 18.7871C132.628 18.7871 132.858 18.8714 133.026 19.04C133.195 19.2041 133.279 19.4115 133.279 19.6621C133.279 19.9082 133.195 20.1133 133.026 20.2773C132.858 20.4414 132.628 20.5234 132.336 20.5234C132.04 20.5234 131.807 20.4414 131.639 20.2773C131.475 20.1133 131.393 19.9082 131.393 19.6621ZM136.595 23.1826V29H134.947V21.6035H136.499L136.595 23.1826ZM136.301 25.0283L135.768 25.0215C135.772 24.4974 135.845 24.0166 135.986 23.5791C136.132 23.1416 136.333 22.7656 136.588 22.4512C136.848 22.1367 137.158 21.8952 137.518 21.7266C137.878 21.5534 138.279 21.4668 138.721 21.4668C139.076 21.4668 139.397 21.5169 139.685 21.6172C139.976 21.7129 140.225 21.8701 140.43 22.0889C140.639 22.3076 140.799 22.5924 140.908 22.9434C141.018 23.2897 141.072 23.7158 141.072 24.2217V29H139.418V24.2148C139.418 23.8594 139.366 23.5791 139.261 23.374C139.16 23.1644 139.012 23.0163 138.816 22.9297C138.625 22.8385 138.386 22.793 138.099 22.793C137.816 22.793 137.563 22.8522 137.34 22.9707C137.116 23.0892 136.927 23.251 136.772 23.4561C136.622 23.6611 136.506 23.8981 136.424 24.167C136.342 24.4359 136.301 24.723 136.301 25.0283ZM147.204 27.2568V21.6035H148.858V29H147.3L147.204 27.2568ZM147.436 25.7188L147.99 25.7051C147.99 26.2018 147.935 26.6598 147.826 27.0791C147.717 27.4938 147.548 27.8561 147.32 28.166C147.092 28.4714 146.801 28.7106 146.445 28.8838C146.09 29.0524 145.664 29.1367 145.167 29.1367C144.807 29.1367 144.477 29.0843 144.176 28.9795C143.875 28.8747 143.615 28.7129 143.396 28.4941C143.182 28.2754 143.016 27.9906 142.897 27.6396C142.779 27.2887 142.72 26.8695 142.72 26.3818V21.6035H144.367V26.3955C144.367 26.6644 144.399 26.89 144.463 27.0723C144.527 27.25 144.613 27.3936 144.723 27.5029C144.832 27.6123 144.96 27.6898 145.105 27.7354C145.251 27.7809 145.406 27.8037 145.57 27.8037C146.04 27.8037 146.409 27.7126 146.678 27.5303C146.951 27.3434 147.145 27.0928 147.259 26.7783C147.377 26.4639 147.436 26.1107 147.436 25.7188ZM153.808 29.1367C153.261 29.1367 152.766 29.0479 152.324 28.8701C151.887 28.6878 151.513 28.4349 151.203 28.1113C150.898 27.7878 150.663 27.4072 150.499 26.9697C150.335 26.5322 150.253 26.0605 150.253 25.5547V25.2812C150.253 24.7025 150.337 24.1784 150.506 23.709C150.674 23.2396 150.909 22.8385 151.21 22.5059C151.511 22.1686 151.866 21.9111 152.276 21.7334C152.686 21.5557 153.131 21.4668 153.609 21.4668C154.138 21.4668 154.601 21.5557 154.997 21.7334C155.394 21.9111 155.722 22.1618 155.981 22.4854C156.246 22.8044 156.442 23.1849 156.569 23.627C156.701 24.069 156.768 24.5566 156.768 25.0898V25.7939H151.053V24.6113H155.141V24.4814C155.131 24.1852 155.072 23.9072 154.963 23.6475C154.858 23.3877 154.696 23.1781 154.477 23.0186C154.259 22.859 153.967 22.7793 153.602 22.7793C153.329 22.7793 153.085 22.8385 152.871 22.957C152.661 23.071 152.486 23.2373 152.345 23.4561C152.203 23.6748 152.094 23.9391 152.017 24.249C151.944 24.5544 151.907 24.8984 151.907 25.2812V25.5547C151.907 25.8783 151.95 26.179 152.037 26.457C152.128 26.7305 152.26 26.9697 152.434 27.1748C152.607 27.3799 152.816 27.5417 153.062 27.6602C153.309 27.7741 153.589 27.8311 153.903 27.8311C154.3 27.8311 154.653 27.7513 154.963 27.5918C155.273 27.4323 155.542 27.2067 155.769 26.915L156.638 27.7559C156.478 27.9883 156.271 28.2116 156.016 28.4258C155.76 28.6354 155.448 28.8063 155.079 28.9385C154.714 29.0706 154.291 29.1367 153.808 29.1367ZM163.549 27.3594L165.258 21.6035H166.311L166.023 23.3262L164.301 29H163.357L163.549 27.3594ZM162.544 21.6035L163.877 27.3867L163.986 29H162.934L160.931 21.6035H162.544ZM167.91 27.3184L169.202 21.6035H170.809L168.812 29H167.76L167.91 27.3184ZM166.488 21.6035L168.177 27.291L168.389 29H167.445L165.702 23.3193L165.415 21.6035H166.488ZM173.693 21.6035V29H172.039V21.6035H173.693ZM171.93 19.6621C171.93 19.4115 172.012 19.2041 172.176 19.04C172.344 18.8714 172.577 18.7871 172.873 18.7871C173.165 18.7871 173.395 18.8714 173.563 19.04C173.732 19.2041 173.816 19.4115 173.816 19.6621C173.816 19.9082 173.732 20.1133 173.563 20.2773C173.395 20.4414 173.165 20.5234 172.873 20.5234C172.577 20.5234 172.344 20.4414 172.176 20.2773C172.012 20.1133 171.93 19.9082 171.93 19.6621ZM178.889 21.6035V22.8066H174.719V21.6035H178.889ZM175.922 19.792H177.569V26.9561C177.569 27.1839 177.601 27.3594 177.665 27.4824C177.733 27.6009 177.827 27.6807 177.945 27.7217C178.064 27.7627 178.203 27.7832 178.362 27.7832C178.476 27.7832 178.586 27.7764 178.69 27.7627C178.795 27.749 178.88 27.7354 178.943 27.7217L178.95 28.9795C178.813 29.0205 178.654 29.057 178.472 29.0889C178.294 29.1208 178.089 29.1367 177.856 29.1367C177.478 29.1367 177.143 29.0706 176.852 28.9385C176.56 28.8018 176.332 28.5807 176.168 28.2754C176.004 27.9701 175.922 27.5645 175.922 27.0586V19.792ZM181.787 18.5V29H180.146V18.5H181.787ZM181.5 25.0283L180.967 25.0215C180.971 24.5111 181.042 24.0394 181.179 23.6064C181.32 23.1735 181.516 22.7975 181.767 22.4785C182.022 22.1549 182.327 21.9066 182.683 21.7334C183.038 21.5557 183.432 21.4668 183.865 21.4668C184.23 21.4668 184.558 21.5169 184.85 21.6172C185.146 21.7174 185.401 21.8792 185.615 22.1025C185.829 22.3213 185.991 22.6084 186.101 22.9639C186.215 23.3148 186.271 23.7432 186.271 24.249V29H184.617V24.2354C184.617 23.8799 184.565 23.5973 184.46 23.3877C184.36 23.1781 184.212 23.0277 184.016 22.9365C183.82 22.8408 183.58 22.793 183.298 22.793C183.002 22.793 182.74 22.8522 182.512 22.9707C182.288 23.0892 182.102 23.251 181.951 23.4561C181.801 23.6611 181.687 23.8981 181.609 24.167C181.536 24.4359 181.5 24.723 181.5 25.0283ZM199.232 23.9141V27.7148C199.091 27.9017 198.87 28.1068 198.569 28.3301C198.273 28.5488 197.879 28.738 197.387 28.8975C196.895 29.057 196.282 29.1367 195.548 29.1367C194.924 29.1367 194.352 29.0319 193.832 28.8223C193.312 28.6081 192.864 28.2959 192.485 27.8857C192.112 27.4756 191.822 26.9766 191.617 26.3887C191.412 25.7962 191.31 25.1217 191.31 24.3652V23.6748C191.31 22.9229 191.403 22.2529 191.59 21.665C191.781 21.0726 192.055 20.5713 192.41 20.1611C192.766 19.751 193.194 19.4411 193.695 19.2314C194.201 19.0173 194.773 18.9102 195.411 18.9102C196.227 18.9102 196.901 19.0469 197.435 19.3203C197.972 19.5892 198.387 19.9629 198.679 20.4414C198.97 20.9199 199.155 21.4668 199.232 22.082H197.551C197.496 21.7357 197.389 21.4258 197.229 21.1523C197.075 20.8789 196.851 20.6647 196.56 20.5098C196.272 20.3503 195.899 20.2705 195.438 20.2705C195.042 20.2705 194.693 20.3457 194.393 20.4961C194.092 20.6465 193.841 20.8675 193.641 21.1592C193.445 21.4508 193.297 21.8063 193.196 22.2256C193.096 22.6449 193.046 23.1234 193.046 23.6611V24.3652C193.046 24.9121 193.103 25.3975 193.217 25.8213C193.335 26.2451 193.504 26.6029 193.723 26.8945C193.946 27.1862 194.217 27.4072 194.536 27.5576C194.855 27.7035 195.215 27.7764 195.616 27.7764C196.008 27.7764 196.329 27.7445 196.58 27.6807C196.831 27.6123 197.029 27.5326 197.175 27.4414C197.325 27.3457 197.441 27.2546 197.523 27.168V25.1924H195.452V23.9141H199.232ZM200.654 25.3838V25.2266C200.654 24.6934 200.732 24.1989 200.887 23.7432C201.042 23.2829 201.265 22.8841 201.557 22.5469C201.853 22.2051 202.213 21.9408 202.637 21.7539C203.065 21.5625 203.548 21.4668 204.086 21.4668C204.628 21.4668 205.111 21.5625 205.535 21.7539C205.964 21.9408 206.326 22.2051 206.622 22.5469C206.918 22.8841 207.144 23.2829 207.299 23.7432C207.454 24.1989 207.531 24.6934 207.531 25.2266V25.3838C207.531 25.917 207.454 26.4115 207.299 26.8672C207.144 27.3229 206.918 27.7217 206.622 28.0635C206.326 28.4007 205.966 28.665 205.542 28.8564C205.118 29.0433 204.637 29.1367 204.1 29.1367C203.557 29.1367 203.072 29.0433 202.644 28.8564C202.22 28.665 201.86 28.4007 201.563 28.0635C201.267 27.7217 201.042 27.3229 200.887 26.8672C200.732 26.4115 200.654 25.917 200.654 25.3838ZM202.302 25.2266V25.3838C202.302 25.7165 202.336 26.0309 202.404 26.3271C202.473 26.6234 202.58 26.8831 202.726 27.1064C202.871 27.3298 203.058 27.5052 203.286 27.6328C203.514 27.7604 203.785 27.8242 204.1 27.8242C204.405 27.8242 204.669 27.7604 204.893 27.6328C205.12 27.5052 205.307 27.3298 205.453 27.1064C205.599 26.8831 205.706 26.6234 205.774 26.3271C205.847 26.0309 205.884 25.7165 205.884 25.3838V25.2266C205.884 24.8984 205.847 24.5885 205.774 24.2969C205.706 24.0007 205.597 23.7386 205.446 23.5107C205.3 23.2829 205.114 23.1051 204.886 22.9775C204.662 22.8454 204.396 22.7793 204.086 22.7793C203.776 22.7793 203.507 22.8454 203.279 22.9775C203.056 23.1051 202.871 23.2829 202.726 23.5107C202.58 23.7386 202.473 24.0007 202.404 24.2969C202.336 24.5885 202.302 24.8984 202.302 25.2266ZM208.598 25.3838V25.2266C208.598 24.6934 208.675 24.1989 208.83 23.7432C208.985 23.2829 209.208 22.8841 209.5 22.5469C209.796 22.2051 210.156 21.9408 210.58 21.7539C211.008 21.5625 211.492 21.4668 212.029 21.4668C212.572 21.4668 213.055 21.5625 213.479 21.7539C213.907 21.9408 214.269 22.2051 214.565 22.5469C214.862 22.8841 215.087 23.2829 215.242 23.7432C215.397 24.1989 215.475 24.6934 215.475 25.2266V25.3838C215.475 25.917 215.397 26.4115 215.242 26.8672C215.087 27.3229 214.862 27.7217 214.565 28.0635C214.269 28.4007 213.909 28.665 213.485 28.8564C213.062 29.0433 212.581 29.1367 212.043 29.1367C211.501 29.1367 211.015 29.0433 210.587 28.8564C210.163 28.665 209.803 28.4007 209.507 28.0635C209.211 27.7217 208.985 27.3229 208.83 26.8672C208.675 26.4115 208.598 25.917 208.598 25.3838ZM210.245 25.2266V25.3838C210.245 25.7165 210.279 26.0309 210.348 26.3271C210.416 26.6234 210.523 26.8831 210.669 27.1064C210.815 27.3298 211.002 27.5052 211.229 27.6328C211.457 27.7604 211.729 27.8242 212.043 27.8242C212.348 27.8242 212.613 27.7604 212.836 27.6328C213.064 27.5052 213.251 27.3298 213.396 27.1064C213.542 26.8831 213.649 26.6234 213.718 26.3271C213.791 26.0309 213.827 25.7165 213.827 25.3838V25.2266C213.827 24.8984 213.791 24.5885 213.718 24.2969C213.649 24.0007 213.54 23.7386 213.39 23.5107C213.244 23.2829 213.057 23.1051 212.829 22.9775C212.606 22.8454 212.339 22.7793 212.029 22.7793C211.719 22.7793 211.451 22.8454 211.223 22.9775C210.999 23.1051 210.815 23.2829 210.669 23.5107C210.523 23.7386 210.416 24.0007 210.348 24.2969C210.279 24.5885 210.245 24.8984 210.245 25.2266ZM221.593 21.6035H223.09V28.7949C223.09 29.4603 222.949 30.0254 222.666 30.4902C222.383 30.9551 221.989 31.3083 221.483 31.5498C220.978 31.7959 220.392 31.9189 219.727 31.9189C219.444 31.9189 219.13 31.8779 218.783 31.7959C218.441 31.7139 218.109 31.5817 217.785 31.3994C217.466 31.2217 217.2 30.987 216.985 30.6953L217.758 29.7246C218.022 30.0391 218.314 30.2692 218.633 30.415C218.952 30.5609 219.287 30.6338 219.638 30.6338C220.016 30.6338 220.337 30.5632 220.602 30.4219C220.87 30.2852 221.078 30.0824 221.224 29.8135C221.369 29.5446 221.442 29.2165 221.442 28.8291V23.2783L221.593 21.6035ZM216.568 25.3838V25.2402C216.568 24.6797 216.637 24.1693 216.773 23.709C216.91 23.2441 217.106 22.8454 217.361 22.5127C217.617 22.1755 217.926 21.918 218.291 21.7402C218.656 21.5579 219.068 21.4668 219.528 21.4668C220.007 21.4668 220.415 21.5534 220.752 21.7266C221.094 21.8997 221.379 22.1481 221.606 22.4717C221.834 22.7907 222.012 23.1735 222.14 23.6201C222.272 24.0622 222.37 24.5544 222.434 25.0967V25.5547C222.374 26.0833 222.274 26.5664 222.133 27.0039C221.992 27.4414 221.805 27.8197 221.572 28.1387C221.34 28.4577 221.053 28.7038 220.711 28.877C220.374 29.0501 219.975 29.1367 219.515 29.1367C219.063 29.1367 218.656 29.0433 218.291 28.8564C217.931 28.6696 217.621 28.4076 217.361 28.0703C217.106 27.7331 216.91 27.3366 216.773 26.8809C216.637 26.4206 216.568 25.9215 216.568 25.3838ZM218.216 25.2402V25.3838C218.216 25.721 218.248 26.0355 218.312 26.3271C218.38 26.6188 218.482 26.8763 218.619 27.0996C218.76 27.3184 218.938 27.4915 219.152 27.6191C219.371 27.7422 219.629 27.8037 219.925 27.8037C220.312 27.8037 220.629 27.7217 220.875 27.5576C221.126 27.3936 221.317 27.1725 221.449 26.8945C221.586 26.612 221.682 26.2975 221.736 25.9512V24.7139C221.709 24.445 221.652 24.1943 221.565 23.9619C221.483 23.7295 221.372 23.5267 221.23 23.3535C221.089 23.1758 220.911 23.0391 220.697 22.9434C220.483 22.8431 220.23 22.793 219.938 22.793C219.642 22.793 219.385 22.8568 219.166 22.9844C218.947 23.112 218.767 23.2874 218.626 23.5107C218.489 23.734 218.387 23.9938 218.318 24.29C218.25 24.5863 218.216 24.903 218.216 25.2402ZM226.562 18.5V29H224.908V18.5H226.562ZM231.628 29.1367C231.081 29.1367 230.587 29.0479 230.145 28.8701C229.707 28.6878 229.333 28.4349 229.023 28.1113C228.718 27.7878 228.483 27.4072 228.319 26.9697C228.155 26.5322 228.073 26.0605 228.073 25.5547V25.2812C228.073 24.7025 228.158 24.1784 228.326 23.709C228.495 23.2396 228.729 22.8385 229.03 22.5059C229.331 22.1686 229.687 21.9111 230.097 21.7334C230.507 21.5557 230.951 21.4668 231.43 21.4668C231.958 21.4668 232.421 21.5557 232.817 21.7334C233.214 21.9111 233.542 22.1618 233.802 22.4854C234.066 22.8044 234.262 23.1849 234.39 23.627C234.522 24.069 234.588 24.5566 234.588 25.0898V25.7939H228.873V24.6113H232.961V24.4814C232.952 24.1852 232.893 23.9072 232.783 23.6475C232.678 23.3877 232.517 23.1781 232.298 23.0186C232.079 22.859 231.787 22.7793 231.423 22.7793C231.149 22.7793 230.906 22.8385 230.691 22.957C230.482 23.071 230.306 23.2373 230.165 23.4561C230.024 23.6748 229.914 23.9391 229.837 24.249C229.764 24.5544 229.728 24.8984 229.728 25.2812V25.5547C229.728 25.8783 229.771 26.179 229.857 26.457C229.949 26.7305 230.081 26.9697 230.254 27.1748C230.427 27.3799 230.637 27.5417 230.883 27.6602C231.129 27.7741 231.409 27.8311 231.724 27.8311C232.12 27.8311 232.473 27.7513 232.783 27.5918C233.093 27.4323 233.362 27.2067 233.59 26.915L234.458 27.7559C234.299 27.9883 234.091 28.2116 233.836 28.4258C233.581 28.6354 233.269 28.8063 232.899 28.9385C232.535 29.0706 232.111 29.1367 231.628 29.1367Z" fill="#1F1F1F"/>
</svg>
