<svg width="50" height="50" viewBox="0 0 50 50" fill="none" xmlns="http://www.w3.org/2000/svg">
<path fill-rule="evenodd" clip-rule="evenodd" d="M8.33301 12.5003C8.33301 7.89795 12.064 4.16699 16.6663 4.16699C21.2686 4.16699 24.9997 7.89795 24.9997 12.5003C24.9997 17.1027 21.2686 20.8337 16.6663 20.8337C12.064 20.8337 8.33301 17.1027 8.33301 12.5003ZM16.6663 8.33366C14.3652 8.33366 12.4997 10.1991 12.4997 12.5003C12.4997 14.8015 14.3652 16.667 16.6663 16.667C18.9675 16.667 20.833 14.8015 20.833 12.5003C20.833 10.1991 18.9675 8.33366 16.6663 8.33366Z" fill="black"/>
<path fill-rule="evenodd" clip-rule="evenodd" d="M29.167 16.667C29.167 13.2152 31.9651 10.417 35.417 10.417C38.8689 10.417 41.667 13.2152 41.667 16.667C41.667 20.1188 38.8689 22.917 35.417 22.917C31.9651 22.917 29.167 20.1188 29.167 16.667ZM35.417 14.5837C34.2664 14.5837 33.3337 15.5164 33.3337 16.667C33.3337 17.8176 34.2664 18.7503 35.417 18.7503C36.5676 18.7503 37.5003 17.8176 37.5003 16.667C37.5003 15.5164 36.5676 14.5837 35.417 14.5837Z" fill="black"/>
<path fill-rule="evenodd" clip-rule="evenodd" d="M2.08301 37.5003C2.08301 29.4462 8.6122 22.917 16.6663 22.917C20.9924 22.917 24.8772 24.8016 27.5457 27.7891C29.6934 26.0468 32.4332 25.0003 35.4163 25.0003C42.3199 25.0003 47.9163 30.5968 47.9163 37.5003V45.8337H2.08301V37.5003ZM29.863 31.2868C30.7526 33.1732 31.2497 35.2807 31.2497 37.5003V41.667H43.7497V37.5003C43.7497 32.898 40.0186 29.167 35.4163 29.167C33.2834 29.167 31.3384 29.9666 29.863 31.2868ZM27.083 41.667V37.5003C27.083 35.4959 26.5188 33.6297 25.542 32.0443C23.7047 29.0632 20.4158 27.0837 16.6663 27.0837C10.9134 27.0837 6.24967 31.7474 6.24967 37.5003V41.667H27.083Z" fill="black"/>
</svg>
