<svg width="25" height="24" viewBox="0 0 25 24" fill="none" xmlns="http://www.w3.org/2000/svg">
<path d="M12.4999 2C15.2169 2 15.5559 2.01 16.6219 2.06C17.6869 2.11 18.4119 2.277 19.0499 2.525C19.7099 2.779 20.2659 3.123 20.8219 3.678C21.3304 4.1779 21.7238 4.78259 21.9749 5.45C22.2219 6.087 22.3899 6.813 22.4399 7.878C22.4869 8.944 22.4999 9.283 22.4999 12C22.4999 14.717 22.4899 15.056 22.4399 16.122C22.3899 17.187 22.2219 17.912 21.9749 18.55C21.7246 19.2178 21.331 19.8226 20.8219 20.322C20.3218 20.8303 19.7172 21.2238 19.0499 21.475C18.4129 21.722 17.6869 21.89 16.6219 21.94C15.5559 21.987 15.2169 22 12.4999 22C9.78288 22 9.44388 21.99 8.37788 21.94C7.31288 21.89 6.58788 21.722 5.94988 21.475C5.2822 21.2245 4.67741 20.8309 4.17788 20.322C3.66928 19.8222 3.27581 19.2175 3.02488 18.55C2.77688 17.913 2.60988 17.187 2.55988 16.122C2.51288 15.056 2.49988 14.717 2.49988 12C2.49988 9.283 2.50988 8.944 2.55988 7.878C2.60988 6.812 2.77688 6.088 3.02488 5.45C3.27511 4.78218 3.66868 4.17732 4.17788 3.678C4.67755 3.16923 5.28231 2.77573 5.94988 2.525C6.58788 2.277 7.31188 2.11 8.37788 2.06C9.44388 2.013 9.78288 2 12.4999 2ZM12.4999 7C11.1738 7 9.90203 7.52678 8.96434 8.46447C8.02666 9.40215 7.49988 10.6739 7.49988 12C7.49988 13.3261 8.02666 14.5979 8.96434 15.5355C9.90203 16.4732 11.1738 17 12.4999 17C13.826 17 15.0977 16.4732 16.0354 15.5355C16.9731 14.5979 17.4999 13.3261 17.4999 12C17.4999 10.6739 16.9731 9.40215 16.0354 8.46447C15.0977 7.52678 13.826 7 12.4999 7ZM18.9999 6.75C18.9999 6.41848 18.8682 6.10054 18.6338 5.86612C18.3993 5.6317 18.0814 5.5 17.7499 5.5C17.4184 5.5 17.1004 5.6317 16.866 5.86612C16.6316 6.10054 16.4999 6.41848 16.4999 6.75C16.4999 7.08152 16.6316 7.39946 16.866 7.63388C17.1004 7.8683 17.4184 8 17.7499 8C18.0814 8 18.3993 7.8683 18.6338 7.63388C18.8682 7.39946 18.9999 7.08152 18.9999 6.75ZM12.4999 9C13.2955 9 14.0586 9.31607 14.6212 9.87868C15.1838 10.4413 15.4999 11.2044 15.4999 12C15.4999 12.7956 15.1838 13.5587 14.6212 14.1213C14.0586 14.6839 13.2955 15 12.4999 15C11.7042 15 10.9412 14.6839 10.3786 14.1213C9.81595 13.5587 9.49988 12.7956 9.49988 12C9.49988 11.2044 9.81595 10.4413 10.3786 9.87868C10.9412 9.31607 11.7042 9 12.4999 9Z" fill="white"/>
</svg>
