<svg width="29" height="29" viewBox="0 0 29 29" fill="none" xmlns="http://www.w3.org/2000/svg">
<g clip-path="url(#clip0_87_1009)">
<path d="M14.6012 4C10.4098 4 7 7.3248 7 11.5162C7 12.4451 7.19824 13.459 7.55508 14.3709H7.54941L7.5834 14.4389C7.61172 14.5012 7.64004 14.5635 7.66836 14.6258L14.6012 29.375L21.5 14.6994L21.534 14.6314C21.5623 14.5691 21.5963 14.5068 21.6246 14.4389L21.6473 14.3766C22.0154 13.4646 22.2023 12.5018 22.2023 11.5275C22.2023 7.3248 18.7926 4 14.6012 4ZM20.7807 14.048L20.7693 14.0764C20.7523 14.1104 20.7354 14.15 20.7184 14.184L20.6617 14.3029L14.6012 27.183L8.53496 14.3029L8.48398 14.1896C8.46699 14.1557 8.45 14.1217 8.43867 14.0877C8.10449 13.2664 7.92324 12.3545 7.92324 11.5162C7.92324 7.83457 10.9195 4.91758 14.6068 4.91758C18.2941 4.91758 21.2904 7.82891 21.2904 11.5162C21.2848 12.3771 21.1148 13.2268 20.7807 14.048Z" fill="#0066FF"/>
<path d="M14.6012 7.625C12.6018 7.625 10.9762 9.25059 10.9762 11.25C10.9762 13.2494 12.6018 14.875 14.6012 14.875C16.6006 14.875 18.2262 13.2494 18.2262 11.25C18.2262 9.25059 16.6006 7.625 14.6012 7.625ZM14.6012 13.9064C13.1342 13.9064 11.9448 12.717 11.9448 11.25C11.9448 9.78301 13.1342 8.59355 14.6012 8.59355C16.0682 8.59355 17.2576 9.78301 17.2576 11.25C17.2576 12.717 16.0682 13.9064 14.6012 13.9064Z" fill="#0066FF"/>
</g>
<defs>
<clipPath id="clip0_87_1009">
<rect width="29" height="29" fill="white"/>
</clipPath>
</defs>
</svg>
