<svg width="200" height="50" viewBox="0 0 200 50" fill="none" xmlns="http://www.w3.org/2000/svg">
<path d="M127.552 22.5901L126.431 18.6445H126.398C126.408 18.7469 126.418 18.8856 126.428 19.0604C126.44 19.2353 126.451 19.4239 126.461 19.6262C126.471 19.8285 126.476 20.0234 126.476 20.2107V22.5901H125.165V17.112H127.136L128.279 21.0014H128.309L129.429 17.112H131.404V22.5901H130.043V20.1883C130.043 20.0159 130.046 19.831 130.051 19.6337C130.058 19.4339 130.066 19.2465 130.073 19.0717C130.083 18.8943 130.092 18.7544 130.1 18.652H130.066L128.961 22.5901H127.552ZM136.552 20.458C136.552 20.8128 136.503 21.1275 136.406 21.4023C136.308 21.6771 136.167 21.9081 135.982 22.0955C135.798 22.2828 135.574 22.4252 135.312 22.5226C135.049 22.6176 134.753 22.665 134.424 22.665C134.116 22.665 133.834 22.6176 133.577 22.5226C133.322 22.4252 133.1 22.2828 132.91 22.0955C132.72 21.9081 132.573 21.6771 132.468 21.4023C132.365 21.1275 132.314 20.8128 132.314 20.458C132.314 19.9884 132.399 19.5912 132.569 19.2665C132.741 18.9418 132.986 18.6945 133.303 18.5246C133.623 18.3547 134.004 18.2698 134.446 18.2698C134.853 18.2698 135.216 18.3547 135.533 18.5246C135.85 18.6945 136.099 18.9418 136.279 19.2665C136.461 19.5912 136.552 19.9884 136.552 20.458ZM133.802 20.458C133.802 20.7003 133.823 20.9052 133.865 21.0726C133.908 21.2374 133.975 21.3636 134.068 21.451C134.163 21.5359 134.286 21.5784 134.439 21.5784C134.591 21.5784 134.712 21.5359 134.802 21.451C134.892 21.3636 134.957 21.2374 134.997 21.0726C135.04 20.9052 135.061 20.7003 135.061 20.458C135.061 20.2157 135.04 20.0134 134.997 19.851C134.957 19.6887 134.891 19.5663 134.798 19.4838C134.709 19.4014 134.586 19.3602 134.431 19.3602C134.209 19.3602 134.048 19.4526 133.948 19.6375C133.85 19.8223 133.802 20.0958 133.802 20.458ZM139.471 21.5072C139.603 21.5072 139.725 21.4935 139.834 21.466C139.944 21.4385 140.059 21.4035 140.179 21.3611V22.429C140.019 22.4989 139.849 22.5551 139.67 22.5976C139.492 22.6425 139.265 22.665 138.988 22.665C138.713 22.665 138.471 22.6226 138.261 22.5376C138.051 22.4502 137.887 22.3003 137.77 22.088C137.655 21.8732 137.597 21.5747 137.597 21.1925V19.4426H137.084V18.8468L137.736 18.386L138.115 17.4942H139.074V18.3447H140.115V19.4426H139.074V21.095C139.074 21.2324 139.109 21.3361 139.179 21.406C139.249 21.4735 139.346 21.5072 139.471 21.5072ZM144.975 20.458C144.975 20.8128 144.927 21.1275 144.829 21.4023C144.732 21.6771 144.591 21.9081 144.406 22.0955C144.221 22.2828 143.997 22.4252 143.735 22.5226C143.473 22.6176 143.177 22.665 142.847 22.665C142.54 22.665 142.257 22.6176 142 22.5226C141.745 22.4252 141.523 22.2828 141.333 22.0955C141.143 21.9081 140.996 21.6771 140.891 21.4023C140.789 21.1275 140.737 20.8128 140.737 20.458C140.737 19.9884 140.822 19.5912 140.992 19.2665C141.165 18.9418 141.409 18.6945 141.727 18.5246C142.046 18.3547 142.427 18.2698 142.869 18.2698C143.277 18.2698 143.639 18.3547 143.956 18.5246C144.273 18.6945 144.522 18.9418 144.702 19.2665C144.884 19.5912 144.975 19.9884 144.975 20.458ZM142.225 20.458C142.225 20.7003 142.246 20.9052 142.289 21.0726C142.331 21.2374 142.399 21.3636 142.491 21.451C142.586 21.5359 142.71 21.5784 142.862 21.5784C143.014 21.5784 143.136 21.5359 143.225 21.451C143.315 21.3636 143.38 21.2374 143.42 21.0726C143.463 20.9052 143.484 20.7003 143.484 20.458C143.484 20.2157 143.463 20.0134 143.42 19.851C143.38 19.6887 143.314 19.5663 143.222 19.4838C143.132 19.4014 143.009 19.3602 142.854 19.3602C142.632 19.3602 142.471 19.4526 142.371 19.6375C142.274 19.8223 142.225 20.0958 142.225 20.458ZM150.633 17.112L148.838 22.5901H147.096L145.309 17.112H146.972L147.718 19.8885C147.746 19.9934 147.777 20.1283 147.812 20.2932C147.849 20.4555 147.883 20.6179 147.913 20.7803C147.945 20.9427 147.965 21.075 147.973 21.1775C147.983 21.075 148.002 20.9439 148.029 20.784C148.057 20.6242 148.087 20.4643 148.119 20.3044C148.154 20.142 148.186 20.0084 148.216 19.9035L148.977 17.112H150.633ZM153.054 18.2698C153.466 18.2698 153.822 18.3422 154.122 18.4871C154.421 18.6295 154.653 18.8443 154.815 19.1316C154.977 19.4189 155.058 19.7786 155.058 20.2107V20.8627H152.439C152.452 21.085 152.534 21.2674 152.687 21.4098C152.842 21.5522 153.069 21.6234 153.369 21.6234C153.633 21.6234 153.876 21.5971 154.096 21.5447C154.318 21.4922 154.546 21.411 154.781 21.3011V22.354C154.576 22.4614 154.353 22.5401 154.11 22.5901C153.868 22.64 153.562 22.665 153.192 22.665C152.765 22.665 152.383 22.5888 152.046 22.4365C151.709 22.2841 151.443 22.048 151.248 21.7283C151.055 21.4085 150.959 20.9976 150.959 20.4955C150.959 19.9859 151.047 19.5675 151.222 19.2403C151.396 18.9105 151.641 18.667 151.956 18.5096C152.271 18.3497 152.637 18.2698 153.054 18.2698ZM153.106 19.2665C152.934 19.2665 152.789 19.3215 152.672 19.4314C152.557 19.5388 152.489 19.7086 152.469 19.941H153.728C153.726 19.8161 153.701 19.7024 153.653 19.6C153.606 19.4976 153.536 19.4164 153.444 19.3564C153.354 19.2965 153.241 19.2665 153.106 19.2665ZM158.543 18.2698C158.98 18.2698 159.338 18.3934 159.615 18.6407C159.892 18.888 160.031 19.284 160.031 19.8285V22.5901H158.566V20.2744C158.566 19.9922 158.524 19.7798 158.442 19.6375C158.362 19.4926 158.232 19.4201 158.052 19.4201C157.775 19.4201 157.589 19.5338 157.494 19.7611C157.399 19.9859 157.352 20.3094 157.352 20.7316V22.5901H155.887V18.3447H156.992L157.191 18.9068H157.247C157.337 18.7719 157.444 18.657 157.569 18.5621C157.694 18.4671 157.838 18.3947 158 18.3447C158.162 18.2948 158.343 18.2698 158.543 18.2698ZM163.107 21.5072C163.239 21.5072 163.361 21.4935 163.471 21.466C163.58 21.4385 163.695 21.4035 163.815 21.3611V22.429C163.655 22.4989 163.485 22.5551 163.306 22.5976C163.128 22.6425 162.901 22.665 162.624 22.665C162.349 22.665 162.107 22.6226 161.897 22.5376C161.687 22.4502 161.523 22.3003 161.406 22.088C161.291 21.8732 161.234 21.5747 161.234 21.1925V19.4426H160.72V18.8468L161.372 18.386L161.751 17.4942H162.71V18.3447H163.752V19.4426H162.71V21.095C162.71 21.2324 162.745 21.3361 162.815 21.406C162.885 21.4735 162.982 21.5072 163.107 21.5072ZM168.611 20.458C168.611 20.8128 168.563 21.1275 168.465 21.4023C168.368 21.6771 168.227 21.9081 168.042 22.0955C167.857 22.2828 167.633 22.4252 167.371 22.5226C167.109 22.6176 166.813 22.665 166.483 22.665C166.176 22.665 165.894 22.6176 165.636 22.5226C165.381 22.4252 165.159 22.2828 164.969 22.0955C164.779 21.9081 164.632 21.6771 164.527 21.4023C164.425 21.1275 164.374 20.8128 164.374 20.458C164.374 19.9884 164.458 19.5912 164.628 19.2665C164.801 18.9418 165.045 18.6945 165.363 18.5246C165.682 18.3547 166.063 18.2698 166.506 18.2698C166.913 18.2698 167.275 18.3547 167.592 18.5246C167.909 18.6945 168.158 18.9418 168.338 19.2665C168.52 19.5912 168.611 19.9884 168.611 20.458ZM165.861 20.458C165.861 20.7003 165.882 20.9052 165.925 21.0726C165.967 21.2374 166.035 21.3636 166.127 21.451C166.222 21.5359 166.346 21.5784 166.498 21.5784C166.65 21.5784 166.772 21.5359 166.862 21.451C166.951 21.3636 167.016 21.2374 167.056 21.0726C167.099 20.9052 167.12 20.7003 167.12 20.458C167.12 20.2157 167.099 20.0134 167.056 19.851C167.016 19.6887 166.95 19.5663 166.858 19.4838C166.768 19.4014 166.645 19.3602 166.491 19.3602C166.268 19.3602 166.107 19.4526 166.007 19.6375C165.91 19.8223 165.861 20.0958 165.861 20.458ZM172.014 18.2698C172.094 18.2698 172.177 18.276 172.265 18.2885C172.352 18.2985 172.417 18.3073 172.46 18.3148L172.328 19.6974C172.281 19.6849 172.22 19.6749 172.145 19.6674C172.07 19.6574 171.965 19.6524 171.83 19.6524C171.738 19.6524 171.639 19.6612 171.534 19.6787C171.429 19.6962 171.329 19.7336 171.234 19.7911C171.142 19.846 171.066 19.931 171.006 20.0459C170.946 20.1583 170.916 20.3107 170.916 20.503V22.5901H169.451V18.3447H170.541L170.77 19.0229H170.841C170.918 18.8831 171.017 18.7569 171.137 18.6445C171.259 18.5296 171.395 18.4384 171.545 18.371C171.698 18.3035 171.854 18.2698 172.014 18.2698ZM117.384 33.5901L116.982 32.4491H115.411L115.01 33.5901H114.299L115.827 29.4646H116.575L118.101 33.5901H117.384ZM116.808 31.8702L116.418 30.7461C116.403 30.6974 116.381 30.629 116.353 30.541C116.325 30.451 116.297 30.3602 116.269 30.2684C116.24 30.1747 116.217 30.096 116.198 30.0323C116.18 30.1091 116.156 30.1953 116.128 30.2909C116.102 30.3845 116.076 30.4726 116.049 30.555C116.025 30.6375 116.006 30.7011 115.993 30.7461L115.6 31.8702H116.808ZM121.288 30.4791V33.5901H120.768L120.678 33.1714H120.641C120.576 33.2781 120.492 33.3671 120.391 33.4383C120.29 33.5077 120.178 33.5592 120.054 33.5929C119.93 33.6285 119.8 33.6463 119.663 33.6463C119.429 33.6463 119.229 33.6069 119.062 33.5283C118.897 33.4477 118.771 33.3241 118.683 33.1573C118.595 32.9906 118.551 32.7751 118.551 32.511V30.4791H119.214V32.3873C119.214 32.629 119.262 32.8098 119.36 32.9297C119.459 33.0496 119.613 33.1095 119.821 33.1095C120.021 33.1095 120.18 33.0683 120.298 32.9859C120.417 32.9034 120.5 32.7817 120.549 32.6206C120.599 32.4594 120.624 32.2618 120.624 32.0276V30.4791H121.288ZM123.393 33.1123C123.479 33.1123 123.564 33.1049 123.648 33.0899C123.733 33.073 123.809 33.0533 123.879 33.0308V33.5311C123.806 33.5629 123.711 33.5901 123.595 33.6126C123.479 33.6351 123.358 33.6463 123.232 33.6463C123.056 33.6463 122.898 33.6173 122.757 33.5592C122.617 33.4992 122.505 33.3971 122.423 33.2529C122.341 33.1086 122.299 32.9091 122.299 32.6543V30.9822H121.875V30.6871L122.33 30.4538L122.547 29.7878H122.963V30.4791H123.853V30.9822H122.963V32.6458C122.963 32.8032 123.002 32.9203 123.081 32.9971C123.159 33.0739 123.263 33.1123 123.393 33.1123ZM127.265 32.0276C127.265 32.2861 127.231 32.5156 127.164 32.7161C127.096 32.9166 126.998 33.0861 126.869 33.2248C126.74 33.3615 126.584 33.4664 126.402 33.5395C126.221 33.6107 126.015 33.6463 125.787 33.6463C125.573 33.6463 125.378 33.6107 125.2 33.5395C125.022 33.4664 124.867 33.3615 124.736 33.2248C124.607 33.0861 124.506 32.9166 124.435 32.7161C124.364 32.5156 124.328 32.2861 124.328 32.0276C124.328 31.6847 124.387 31.3943 124.505 31.1564C124.625 30.9166 124.796 30.7339 125.017 30.6084C125.238 30.4829 125.501 30.4201 125.807 30.4201C126.093 30.4201 126.346 30.4829 126.565 30.6084C126.785 30.7339 126.956 30.9166 127.08 31.1564C127.203 31.3962 127.265 31.6866 127.265 32.0276ZM125.008 32.0276C125.008 32.2543 125.036 32.4482 125.09 32.6093C125.146 32.7704 125.232 32.8941 125.349 32.9803C125.465 33.0646 125.615 33.1067 125.798 33.1067C125.982 33.1067 126.132 33.0646 126.248 32.9803C126.364 32.8941 126.449 32.7704 126.504 32.6093C126.558 32.4482 126.585 32.2543 126.585 32.0276C126.585 31.8009 126.558 31.6089 126.504 31.4515C126.449 31.2922 126.364 31.1714 126.248 31.089C126.132 31.0047 125.981 30.9625 125.795 30.9625C125.522 30.9625 125.322 31.0543 125.197 31.2379C125.071 31.4215 125.008 31.6847 125.008 32.0276ZM129.865 33.5901L128.681 30.1588H128.656C128.662 30.2356 128.668 30.3405 128.676 30.4735C128.683 30.6065 128.69 30.7489 128.696 30.9007C128.701 31.0524 128.704 31.1976 128.704 31.3363V33.5901H128.091V29.4815H129.038L130.177 32.7611H130.193L131.371 29.4815H132.315V33.5901H131.672V31.3025C131.672 31.177 131.673 31.0412 131.677 30.8951C131.683 30.7489 131.688 30.6103 131.694 30.4791C131.702 30.348 131.707 30.2431 131.711 30.1644H131.688L130.46 33.5901H129.865ZM136.084 32.0276C136.084 32.2861 136.05 32.5156 135.982 32.7161C135.915 32.9166 135.817 33.0861 135.687 33.2248C135.558 33.3615 135.403 33.4664 135.221 33.5395C135.039 33.6107 134.834 33.6463 134.605 33.6463C134.392 33.6463 134.196 33.6107 134.018 33.5395C133.84 33.4664 133.686 33.3615 133.554 33.2248C133.425 33.0861 133.325 32.9166 133.254 32.7161C133.183 32.5156 133.147 32.2861 133.147 32.0276C133.147 31.6847 133.206 31.3943 133.324 31.1564C133.444 30.9166 133.614 30.7339 133.835 30.6084C134.057 30.4829 134.32 30.4201 134.625 30.4201C134.912 30.4201 135.165 30.4829 135.384 30.6084C135.603 30.7339 135.775 30.9166 135.898 31.1564C136.022 31.3962 136.084 31.6866 136.084 32.0276ZM133.827 32.0276C133.827 32.2543 133.854 32.4482 133.909 32.6093C133.965 32.7704 134.051 32.8941 134.167 32.9803C134.283 33.0646 134.433 33.1067 134.617 33.1067C134.8 33.1067 134.95 33.0646 135.066 32.9803C135.183 32.8941 135.268 32.7704 135.322 32.6093C135.376 32.4482 135.404 32.2543 135.404 32.0276C135.404 31.8009 135.376 31.6089 135.322 31.4515C135.268 31.2922 135.183 31.1714 135.066 31.089C134.95 31.0047 134.799 30.9625 134.614 30.9625C134.34 30.9625 134.141 31.0543 134.015 31.2379C133.89 31.4215 133.827 31.6847 133.827 32.0276ZM138 33.1123C138.086 33.1123 138.172 33.1049 138.256 33.0899C138.34 33.073 138.417 33.0533 138.486 33.0308V33.5311C138.413 33.5629 138.319 33.5901 138.203 33.6126C138.086 33.6351 137.966 33.6463 137.84 33.6463C137.664 33.6463 137.506 33.6173 137.365 33.5592C137.225 33.4992 137.113 33.3971 137.031 33.2529C136.948 33.1086 136.907 32.9091 136.907 32.6543V30.9822H136.483V30.6871L136.938 30.4538L137.154 29.7878H137.57V30.4791H138.461V30.9822H137.57V32.6458C137.57 32.8032 137.61 32.9203 137.688 32.9971C137.767 33.0739 137.871 33.1123 138 33.1123ZM139.779 30.4791V33.5901H139.119V30.4791H139.779ZM139.453 29.2876C139.554 29.2876 139.641 29.3148 139.715 29.3691C139.789 29.4234 139.827 29.5171 139.827 29.6501C139.827 29.7813 139.789 29.8749 139.715 29.9311C139.641 29.9855 139.554 30.0126 139.453 30.0126C139.348 30.0126 139.259 29.9855 139.186 29.9311C139.115 29.8749 139.079 29.7813 139.079 29.6501C139.079 29.5171 139.115 29.4234 139.186 29.3691C139.259 29.3148 139.348 29.2876 139.453 29.2876ZM141.437 33.5901L140.254 30.4791H140.954L141.595 32.3058C141.636 32.422 141.673 32.5475 141.707 32.6824C141.741 32.8173 141.764 32.9306 141.777 33.0224H141.8C141.813 32.9269 141.838 32.8126 141.876 32.6796C141.913 32.5447 141.951 32.4201 141.991 32.3058L142.632 30.4791H143.328L142.145 33.5901H141.437ZM145.04 30.4201C145.317 30.4201 145.555 30.4773 145.754 30.5915C145.952 30.7058 146.105 30.8679 146.212 31.0777C146.319 31.2876 146.372 31.5386 146.372 31.8309V32.185H144.295C144.303 32.4866 144.383 32.7189 144.537 32.8819C144.692 33.0449 144.91 33.1264 145.189 33.1264C145.387 33.1264 145.565 33.1077 145.723 33.0702C145.882 33.0308 146.046 32.9737 146.215 32.8988V33.4355C146.059 33.5086 145.901 33.562 145.74 33.5957C145.579 33.6294 145.386 33.6463 145.161 33.6463C144.855 33.6463 144.587 33.5873 144.354 33.4692C144.124 33.3493 143.943 33.1714 143.812 32.9353C143.683 32.6992 143.618 32.406 143.618 32.0557C143.618 31.7072 143.677 31.4112 143.795 31.1677C143.913 30.9241 144.079 30.7386 144.292 30.6112C144.506 30.4838 144.755 30.4201 145.04 30.4201ZM145.04 30.9175C144.832 30.9175 144.663 30.985 144.534 31.1199C144.407 31.2548 144.332 31.4524 144.309 31.7128H145.726C145.724 31.5573 145.698 31.4196 145.647 31.2997C145.598 31.1798 145.523 31.0862 145.422 31.0187C145.323 30.9513 145.195 30.9175 145.04 30.9175ZM150.452 33.5901L149.269 30.1588H149.244C149.25 30.2356 149.256 30.3405 149.264 30.4735C149.271 30.6065 149.278 30.7489 149.283 30.9007C149.289 31.0524 149.292 31.1976 149.292 31.3363V33.5901H148.679V29.4815H149.626L150.764 32.7611H150.781L151.959 29.4815H152.903V33.5901H152.259V31.3025C152.259 31.177 152.261 31.0412 152.265 30.8951C152.271 30.7489 152.276 30.6103 152.282 30.4791C152.289 30.348 152.295 30.2431 152.299 30.1644H152.276L151.048 33.5901H150.452ZM155.137 30.4201C155.531 30.4201 155.828 30.5072 156.028 30.6815C156.23 30.8557 156.332 31.1274 156.332 31.4965V33.5901H155.862L155.736 33.1489H155.713C155.625 33.2613 155.534 33.354 155.441 33.4271C155.347 33.5002 155.238 33.5545 155.115 33.5901C154.993 33.6276 154.844 33.6463 154.668 33.6463C154.482 33.6463 154.317 33.6126 154.17 33.5451C154.024 33.4758 153.909 33.3709 153.825 33.2304C153.74 33.0899 153.698 32.9119 153.698 32.6964C153.698 32.3761 153.817 32.1353 154.055 31.9742C154.295 31.8131 154.657 31.7241 155.14 31.7072L155.68 31.6875V31.5246C155.68 31.3091 155.629 31.1555 155.528 31.0637C155.429 30.9719 155.288 30.926 155.106 30.926C154.951 30.926 154.8 30.9485 154.654 30.9934C154.508 31.0384 154.365 31.0936 154.227 31.1592L154.013 30.6927C154.165 30.6122 154.337 30.5466 154.53 30.496C154.725 30.4454 154.927 30.4201 155.137 30.4201ZM155.677 32.1035L155.275 32.1175C154.945 32.1288 154.714 32.185 154.581 32.2861C154.448 32.3873 154.381 32.5259 154.381 32.702C154.381 32.8557 154.427 32.9681 154.519 33.0393C154.611 33.1086 154.732 33.1433 154.881 33.1433C155.11 33.1433 155.299 33.0786 155.449 32.9494C155.601 32.8182 155.677 32.6262 155.677 32.3732V32.1035ZM158.833 30.4201C158.885 30.4201 158.942 30.4229 159.004 30.4286C159.066 30.4342 159.119 30.4417 159.164 30.451L159.102 31.0693C159.063 31.0581 159.014 31.0496 158.956 31.044C158.9 31.0384 158.85 31.0356 158.805 31.0356C158.687 31.0356 158.574 31.0552 158.467 31.0946C158.361 31.1321 158.266 31.1901 158.183 31.2688C158.101 31.3456 158.036 31.4421 157.99 31.5583C157.943 31.6744 157.919 31.8093 157.919 31.963V33.5901H157.256V30.4791H157.773L157.863 31.0271H157.894C157.956 30.9166 158.033 30.8154 158.124 30.7236C158.216 30.6318 158.321 30.5588 158.439 30.5044C158.559 30.4482 158.69 30.4201 158.833 30.4201ZM160.401 29.2173V31.3306C160.401 31.4262 160.397 31.5311 160.39 31.6454C160.382 31.7578 160.375 31.8637 160.367 31.963H160.381C160.43 31.8974 160.488 31.8206 160.555 31.7325C160.625 31.6445 160.69 31.5676 160.752 31.5021L161.702 30.4791H162.461L161.216 31.8168L162.542 33.5901H161.767L160.772 32.2243L160.401 32.5419V33.5901H159.74V29.2173H160.401ZM164.279 30.4201C164.556 30.4201 164.794 30.4773 164.993 30.5915C165.191 30.7058 165.344 30.8679 165.451 31.0777C165.558 31.2876 165.611 31.5386 165.611 31.8309V32.185H163.534C163.542 32.4866 163.622 32.7189 163.776 32.8819C163.931 33.0449 164.149 33.1264 164.428 33.1264C164.626 33.1264 164.804 33.1077 164.962 33.0702C165.121 33.0308 165.285 32.9737 165.454 32.8988V33.4355C165.298 33.5086 165.14 33.562 164.979 33.5957C164.818 33.6294 164.625 33.6463 164.4 33.6463C164.094 33.6463 163.826 33.5873 163.593 33.4692C163.363 33.3493 163.182 33.1714 163.051 32.9353C162.922 32.6992 162.857 32.406 162.857 32.0557C162.857 31.7072 162.916 31.4112 163.034 31.1677C163.152 30.9241 163.318 30.7386 163.531 30.6112C163.745 30.4838 163.994 30.4201 164.279 30.4201ZM164.279 30.9175C164.071 30.9175 163.902 30.985 163.773 31.1199C163.646 31.2548 163.571 31.4524 163.548 31.7128H164.965C164.963 31.5573 164.937 31.4196 164.886 31.2997C164.837 31.1798 164.762 31.0862 164.661 31.0187C164.562 30.9513 164.434 30.9175 164.279 30.9175ZM167.514 33.1123C167.6 33.1123 167.685 33.1049 167.769 33.0899C167.854 33.073 167.93 33.0533 168 33.0308V33.5311C167.927 33.5629 167.832 33.5901 167.716 33.6126C167.6 33.6351 167.479 33.6463 167.353 33.6463C167.177 33.6463 167.019 33.6173 166.878 33.5592C166.738 33.4992 166.626 33.3971 166.544 33.2529C166.462 33.1086 166.42 32.9091 166.42 32.6543V30.9822H165.996V30.6871L166.451 30.4538L166.668 29.7878H167.084V30.4791H167.974V30.9822H167.084V32.6458C167.084 32.8032 167.123 32.9203 167.202 32.9971C167.28 33.0739 167.384 33.1123 167.514 33.1123ZM169.894 29.4815C170.424 29.4815 170.811 29.5902 171.054 29.8075C171.298 30.0248 171.42 30.3293 171.42 30.7208C171.42 30.8988 171.392 31.0684 171.335 31.2295C171.281 31.3887 171.191 31.5302 171.066 31.6538C170.94 31.7756 170.774 31.8721 170.568 31.9433C170.364 32.0145 170.112 32.0501 169.812 32.0501H169.374V33.5901H168.699V29.4815H169.894ZM169.849 30.0407H169.374V31.488H169.742C169.954 31.488 170.134 31.4637 170.282 31.415C170.43 31.3644 170.542 31.2847 170.619 31.1761C170.696 31.0674 170.734 30.9241 170.734 30.7461C170.734 30.5082 170.662 30.3311 170.518 30.215C170.375 30.0988 170.152 30.0407 169.849 30.0407ZM172.836 33.5901H172.173V29.2173H172.836V33.5901ZM175 30.4201C175.393 30.4201 175.69 30.5072 175.891 30.6815C176.093 30.8557 176.194 31.1274 176.194 31.4965V33.5901H175.725L175.599 33.1489H175.576C175.488 33.2613 175.397 33.354 175.304 33.4271C175.21 33.5002 175.101 33.5545 174.978 33.5901C174.856 33.6276 174.707 33.6463 174.531 33.6463C174.345 33.6463 174.179 33.6126 174.033 33.5451C173.887 33.4758 173.772 33.3709 173.688 33.2304C173.603 33.0899 173.561 32.9119 173.561 32.6964C173.561 32.3761 173.68 32.1353 173.918 31.9742C174.158 31.8131 174.519 31.7241 175.003 31.7072L175.542 31.6875V31.5246C175.542 31.3091 175.492 31.1555 175.391 31.0637C175.291 30.9719 175.151 30.926 174.969 30.926C174.814 30.926 174.663 30.9485 174.517 30.9934C174.371 31.0384 174.228 31.0936 174.09 31.1592L173.876 30.6927C174.028 30.6122 174.2 30.5466 174.393 30.496C174.588 30.4454 174.79 30.4201 175 30.4201ZM175.54 32.1035L175.138 32.1175C174.808 32.1288 174.577 32.185 174.444 32.2861C174.311 32.3873 174.244 32.5259 174.244 32.702C174.244 32.8557 174.29 32.9681 174.382 33.0393C174.474 33.1086 174.594 33.1433 174.744 33.1433C174.973 33.1433 175.162 33.0786 175.312 32.9494C175.464 32.8182 175.54 32.6262 175.54 32.3732V32.1035ZM178.372 33.6463C178.078 33.6463 177.823 33.5892 177.608 33.4749C177.392 33.3606 177.227 33.1854 177.111 32.9494C176.994 32.7133 176.936 32.4135 176.936 32.0501C176.936 31.6716 177 31.3625 177.127 31.1227C177.255 30.8829 177.431 30.7058 177.656 30.5915C177.882 30.4773 178.142 30.4201 178.434 30.4201C178.62 30.4201 178.787 30.4389 178.937 30.4763C179.089 30.5119 179.217 30.556 179.322 30.6084L179.125 31.1367C179.011 31.0899 178.894 31.0506 178.774 31.0187C178.654 30.9869 178.539 30.9709 178.429 30.9709C178.247 30.9709 178.095 31.0112 177.973 31.0918C177.853 31.1723 177.763 31.2922 177.703 31.4515C177.645 31.6107 177.616 31.8084 177.616 32.0444C177.616 32.273 177.646 32.466 177.706 32.6234C177.766 32.7789 177.855 32.8969 177.973 32.9775C178.091 33.0561 178.237 33.0955 178.409 33.0955C178.579 33.0955 178.732 33.0749 178.867 33.0337C179.002 32.9924 179.129 32.939 179.249 32.8735V33.4468C179.131 33.5142 179.005 33.5639 178.87 33.5957C178.735 33.6294 178.569 33.6463 178.372 33.6463ZM181.219 30.4201C181.496 30.4201 181.734 30.4773 181.933 30.5915C182.132 30.7058 182.284 30.8679 182.391 31.0777C182.498 31.2876 182.551 31.5386 182.551 31.8309V32.185H180.474C180.482 32.4866 180.562 32.7189 180.716 32.8819C180.872 33.0449 181.089 33.1264 181.368 33.1264C181.567 33.1264 181.745 33.1077 181.902 33.0702C182.061 33.0308 182.225 32.9737 182.394 32.8988V33.4355C182.238 33.5086 182.08 33.562 181.919 33.5957C181.758 33.6294 181.565 33.6463 181.34 33.6463C181.035 33.6463 180.766 33.5873 180.533 33.4692C180.303 33.3493 180.122 33.1714 179.991 32.9353C179.862 32.6992 179.797 32.406 179.797 32.0557C179.797 31.7072 179.856 31.4112 179.974 31.1677C180.092 30.9241 180.258 30.7386 180.472 30.6112C180.685 30.4838 180.934 30.4201 181.219 30.4201ZM181.219 30.9175C181.011 30.9175 180.843 30.985 180.713 31.1199C180.586 31.2548 180.511 31.4524 180.488 31.7128H181.905C181.903 31.5573 181.877 31.4196 181.826 31.2997C181.777 31.1798 181.702 31.0862 181.601 31.0187C181.502 30.9513 181.375 30.9175 181.219 30.9175Z" fill="white"/>
<path d="M22.7218 47.9616L31.1751 19.1247L40.7074 47.9616H50.2398L57.4341 19.1247L67.8657 47.9616H82.3741L65.5875 2.03833H52.2782L45.3837 28.4172L36.5707 2.03833H22.7218L7.55396 47.9616H22.7218Z" fill="white"/>
<path d="M90.5275 37.2302L102.027 2.03833H109.712L95.3024 47.9616H86.7166L69.3044 2.03833H77.1582L90.5275 37.2302Z" fill="white"/>
</svg>
