<svg width="33" height="33" viewBox="0 0 33 33" fill="none" xmlns="http://www.w3.org/2000/svg">
<path d="M15.792 27.7917L17.206 29.2057L29.206 17.2057C32.352 14.0597 32.352 8.93766 29.206 5.79166C26.058 2.64366 20.94 2.64366 17.792 5.79166L4.79197 18.7917C2.19597 21.3877 2.19597 25.6097 4.79197 28.2057C6.08797 29.5017 7.79397 30.1537 9.49997 30.1537C11.206 30.1537 12.91 29.5037 14.208 28.2057L26.208 16.2057C27.198 15.2157 27.742 13.8997 27.742 12.4997C27.742 11.0997 27.198 9.78366 26.206 8.79166C24.226 6.81166 20.772 6.81166 18.792 8.79166L7.79197 19.7917L9.20597 21.2057L20.206 10.2057C21.428 8.98366 23.57 8.98366 24.792 10.2057C25.404 10.8177 25.742 11.6317 25.742 12.4997C25.742 13.3677 25.404 14.1817 24.792 14.7917L12.792 26.7917C10.976 28.6077 8.02197 28.6077 6.20597 26.7917C4.38997 24.9757 4.38997 22.0217 6.20597 20.2057L19.206 7.20566C21.574 4.83766 25.424 4.83766 27.792 7.20566C30.16 9.57366 30.16 13.4237 27.792 15.7917L15.792 27.7917Z" fill="black"/>
</svg>
