<svg width="32" height="32" viewBox="0 0 32 32" fill="none" xmlns="http://www.w3.org/2000/svg">
<path d="M14.947 26.361L16.361 27.775L28.361 15.775C31.507 12.629 31.507 7.507 28.361 4.361C25.213 1.213 20.095 1.213 16.947 4.361L3.947 17.361C1.351 19.957 1.351 24.179 3.947 26.775C5.243 28.071 6.949 28.723 8.655 28.723C10.361 28.723 12.065 28.073 13.363 26.775L25.363 14.775C26.353 13.785 26.897 12.469 26.897 11.069C26.897 9.669 26.353 8.353 25.361 7.361C23.381 5.381 19.927 5.381 17.947 7.361L6.947 18.361L8.361 19.775L19.361 8.775C20.583 7.553 22.725 7.553 23.947 8.775C24.559 9.387 24.897 10.201 24.897 11.069C24.897 11.937 24.559 12.751 23.947 13.361L11.947 25.361C10.131 27.177 7.177 27.177 5.361 25.361C3.545 23.545 3.545 20.591 5.361 18.775L18.361 5.775C20.729 3.407 24.579 3.407 26.947 5.775C29.315 8.143 29.315 11.993 26.947 14.361L14.947 26.361Z" fill="#CCCCCC"/>
</svg>
