<svg width="37" height="37" viewBox="0 0 37 37" fill="none" xmlns="http://www.w3.org/2000/svg">
<path d="M9.5 21.875C11.364 21.875 12.875 20.364 12.875 18.5C12.875 16.636 11.364 15.125 9.5 15.125C7.63604 15.125 6.125 16.636 6.125 18.5C6.125 20.364 7.63604 21.875 9.5 21.875Z" stroke="black" stroke-width="1.3125" stroke-linecap="round" stroke-linejoin="round"/>
<path d="M27.5 11.75C29.364 11.75 30.875 10.239 30.875 8.375C30.875 6.51104 29.364 5 27.5 5C25.636 5 24.125 6.51104 24.125 8.375C24.125 10.239 25.636 11.75 27.5 11.75Z" stroke="black" stroke-width="1.3125" stroke-linecap="round" stroke-linejoin="round"/>
<path d="M27.5 32C29.364 32 30.875 30.489 30.875 28.625C30.875 26.761 29.364 25.25 27.5 25.25C25.636 25.25 24.125 26.761 24.125 28.625C24.125 30.489 25.636 32 27.5 32Z" stroke="black" stroke-width="1.3125" stroke-linecap="round" stroke-linejoin="round"/>
<path d="M12.4414 20.1543L24.5591 26.9704" stroke="black" stroke-width="1.3125" stroke-linecap="round" stroke-linejoin="round"/>
<path d="M24.5591 10.0293L12.4414 16.8454" stroke="black" stroke-width="1.3125" stroke-linecap="round" stroke-linejoin="round"/>
</svg>
