<svg width="77" height="19" viewBox="0 0 77 19" fill="none" xmlns="http://www.w3.org/2000/svg">
<g clip-path="url(#clip0_19_103)">
<path d="M20.2382 6.90405H28.0062V8.32583H24.9478V16.3406H23.2712V8.32583H20.2254L20.2382 6.90405ZM27.6736 9.50854H29.1071V10.8297H29.1325C29.1838 10.6409 29.2736 10.4648 29.4013 10.2886C29.5294 10.1125 29.6829 9.94893 29.8749 9.8105C30.0539 9.65952 30.2588 9.54628 30.4892 9.4582C30.7066 9.37015 30.9369 9.31981 31.1673 9.31981C31.3467 9.31981 31.4744 9.33241 31.5387 9.33241C31.6026 9.34496 31.6793 9.35755 31.7432 9.35755V10.8045C31.6409 10.7793 31.5258 10.7667 31.4106 10.7542C31.2954 10.7416 31.1932 10.729 31.078 10.729C30.8218 10.729 30.5789 10.7793 30.3485 10.88C30.1182 10.9807 29.9258 11.1316 29.7468 11.3204C29.5803 11.5217 29.4397 11.7607 29.3374 12.0501C29.2347 12.3395 29.1838 12.6792 29.1838 13.0567V16.3029H27.6481L27.6736 9.50854ZM38.7948 16.3406H37.2721V15.3844H37.2462C37.0542 15.7367 36.773 16.0009 36.4016 16.2148C36.0306 16.4287 35.6467 16.5294 35.2627 16.5294C34.3538 16.5294 33.6887 16.3155 33.2789 15.8625C32.8695 15.4221 32.6646 14.7427 32.6646 13.8494V9.50854H34.2003V13.6984C34.2003 14.3023 34.3155 14.7301 34.5588 14.9692C34.7891 15.2208 35.1221 15.3466 35.544 15.3466C35.8641 15.3466 36.1328 15.2963 36.3507 15.1956C36.5681 15.095 36.7471 14.9692 36.8752 14.8056C37.0158 14.6421 37.1056 14.4407 37.1694 14.2143C37.2337 13.9878 37.2591 13.7361 37.2591 13.4719V9.50854H38.7948V16.3406ZM41.393 14.1513C41.4439 14.5917 41.6104 14.8937 41.9046 15.0824C42.1988 15.2586 42.5573 15.3466 42.9671 15.3466C43.1077 15.3466 43.2742 15.3341 43.4532 15.3089C43.6322 15.2837 43.8117 15.246 43.9653 15.1831C44.1313 15.1202 44.2595 15.0321 44.3617 14.9063C44.4644 14.7804 44.5153 14.6295 44.5027 14.4407C44.4898 14.252 44.426 14.0884 44.2849 13.9626C44.1443 13.8368 43.9778 13.7487 43.7733 13.6606C43.5684 13.5851 43.3251 13.5222 43.0564 13.4719C42.7876 13.4216 42.5189 13.3587 42.2376 13.2958C41.9559 13.2328 41.6742 13.1573 41.4055 13.0693C41.1367 12.9812 40.9064 12.868 40.689 12.7044C40.4841 12.5534 40.3051 12.3647 40.1899 12.1256C40.0618 11.8865 39.9979 11.6097 39.9979 11.2575C39.9979 10.88 40.0872 10.578 40.2792 10.3264C40.4586 10.0747 40.7015 9.8734 40.9832 9.72241C41.2649 9.57143 41.5845 9.4582 41.93 9.3953C42.2756 9.33241 42.6086 9.30721 42.9157 9.30721C43.2742 9.30721 43.6197 9.34496 43.9394 9.42045C44.2595 9.49594 44.5666 9.60918 44.8224 9.78535C45.0911 9.94893 45.309 10.1754 45.4751 10.4396C45.6545 10.7038 45.7567 11.031 45.8081 11.4085H44.2081C44.1313 11.0436 43.9653 10.8045 43.709 10.6787C43.4403 10.5529 43.1461 10.4899 42.8006 10.4899C42.6983 10.4899 42.5573 10.5025 42.4166 10.5151C42.2631 10.5403 42.1349 10.5655 41.9943 10.6158C41.8662 10.6661 41.751 10.7416 41.6613 10.8297C41.572 10.9177 41.5207 11.0436 41.5207 11.1945C41.5207 11.3833 41.5845 11.5217 41.7126 11.6349C41.8407 11.7482 42.0073 11.8362 42.2247 11.9243C42.4296 11.9998 42.6724 12.0627 42.9412 12.113C43.2099 12.1634 43.4916 12.2263 43.7733 12.2892C44.0546 12.3521 44.3233 12.4276 44.592 12.5157C44.8608 12.6038 45.1041 12.717 45.309 12.8805C45.5135 13.0316 45.6929 13.2203 45.8206 13.4468C45.9487 13.6732 46.0125 13.9626 46.0125 14.2898C46.0125 14.6924 45.9233 15.0321 45.7313 15.3215C45.5393 15.5983 45.296 15.8374 45.0018 16.0135C44.7072 16.1897 44.3617 16.3155 44.0036 16.4035C43.6322 16.479 43.2742 16.5294 42.9157 16.5294C42.4805 16.5294 42.0711 16.479 41.7001 16.3784C41.3287 16.2777 40.9961 16.1267 40.7274 15.938C40.4586 15.7367 40.2408 15.4977 40.0872 15.1956C39.9336 14.9063 39.8444 14.554 39.8314 14.1388H41.38V14.1513H41.393ZM46.4478 9.50854H47.6125V7.44509H49.1482V9.49594H50.5303V10.6158H49.1482V14.2646C49.1482 14.4281 49.1611 14.554 49.1736 14.6798C49.1866 14.793 49.225 14.8937 49.2634 14.9692C49.3147 15.0447 49.3915 15.1076 49.4808 15.1453C49.5835 15.1831 49.7111 15.2082 49.8906 15.2082C49.9928 15.2082 50.108 15.2082 50.2102 15.1956C50.3129 15.1831 50.4281 15.1705 50.5303 15.1453V16.3155C50.3638 16.3406 50.1977 16.3532 50.0312 16.3658C49.8647 16.3909 49.7111 16.3909 49.5321 16.3909C49.1227 16.3909 48.8027 16.3532 48.5594 16.2777C48.3165 16.2022 48.1246 16.089 47.9835 15.9506C47.8429 15.7996 47.7531 15.6234 47.7022 15.4096C47.6509 15.1956 47.625 14.9314 47.6125 14.6546V10.6283H46.4478V9.48339V9.50854ZM51.6053 9.50854H53.0513V10.4396H53.0771C53.2945 10.037 53.5892 9.76016 53.9731 9.58403C54.357 9.4079 54.7664 9.31981 55.2271 9.31981C55.7775 9.31981 56.2507 9.4079 56.6606 9.60918C57.0699 9.79791 57.4025 10.0496 57.6713 10.3893C57.94 10.7164 58.1449 11.1064 58.273 11.5468C58.4007 11.9872 58.4775 12.4653 58.4775 12.956C58.4775 13.4216 58.4137 13.862 58.2985 14.2898C58.1704 14.7175 57.9913 15.1076 57.748 15.4347C57.5052 15.7619 57.198 16.0261 56.8141 16.2274C56.4302 16.4287 55.9949 16.5294 55.4829 16.5294C55.2655 16.5294 55.0351 16.5042 54.8173 16.4664C54.5999 16.4287 54.3825 16.3658 54.1776 16.2777C53.9731 16.1897 53.7807 16.0764 53.6146 15.938C53.4352 15.7996 53.2945 15.636 53.1794 15.4599H53.1539V18.8696H51.6182V9.50854H51.6053ZM56.9677 12.9309C56.9677 12.6289 56.9293 12.3269 56.8396 12.0375C56.7628 11.7482 56.6347 11.4965 56.4686 11.27C56.3021 11.0436 56.0972 10.8674 55.8668 10.729C55.624 10.5906 55.3423 10.5277 55.0351 10.5277C54.395 10.5277 53.9088 10.7416 53.5762 11.182C53.2562 11.6223 53.0896 12.2137 53.0896 12.9435C53.0896 13.2958 53.128 13.6103 53.2178 13.8997C53.3075 14.1891 53.4227 14.4407 53.6017 14.6546C53.7682 14.8685 53.9731 15.0321 54.216 15.1579C54.4593 15.2837 54.728 15.3466 55.0481 15.3466C55.4061 15.3466 55.6878 15.2711 55.9311 15.1327C56.174 14.9944 56.3659 14.8056 56.5324 14.5917C56.686 14.3652 56.8012 14.1136 56.865 13.8242C56.9293 13.5222 56.9677 13.2328 56.9677 12.9309ZM59.6676 6.90405H61.2038V8.32583H59.6676V6.90405ZM59.6676 9.50854H61.2038V16.3406H59.6676V9.50854ZM62.5729 6.90405H64.1086V16.3406H62.5729V6.90405ZM68.7925 16.5294C68.2425 16.5294 67.7434 16.4413 67.3081 16.2526C66.8729 16.0638 66.5148 15.8248 66.2077 15.5102C65.9131 15.1956 65.6827 14.8056 65.5291 14.3652C65.3756 13.9248 65.2858 13.4342 65.2858 12.9183C65.2858 12.4024 65.3626 11.9243 65.5291 11.4839C65.6827 11.0436 65.9131 10.6661 66.2077 10.3389C66.5019 10.0244 66.8729 9.77276 67.3081 9.59662C67.7434 9.42045 68.2425 9.31981 68.7925 9.31981C69.3429 9.31981 69.842 9.4079 70.2773 9.59662C70.7121 9.77276 71.0705 10.0244 71.3777 10.3389C71.6719 10.6535 71.9022 11.0436 72.0558 11.4839C72.2094 11.9243 72.2991 12.4024 72.2991 12.9183C72.2991 13.4468 72.2223 13.9248 72.0558 14.3652C71.8897 14.8056 71.6719 15.1831 71.3777 15.5102C71.0835 15.8248 70.7121 16.0764 70.2773 16.2526C69.842 16.4287 69.3558 16.5294 68.7925 16.5294ZM68.7925 15.3341C69.1255 15.3341 69.4326 15.2586 69.6755 15.1202C69.9317 14.9818 70.1237 14.793 70.2898 14.5666C70.4563 14.3401 70.5715 14.0758 70.6482 13.7991C70.725 13.5096 70.7634 13.2203 70.7634 12.9183C70.7634 12.6289 70.725 12.3395 70.6482 12.0501C70.5715 11.7607 70.4563 11.5091 70.2898 11.2826C70.1237 11.0561 69.9188 10.88 69.6755 10.7416C69.4197 10.6032 69.1255 10.5277 68.7925 10.5277C68.4599 10.5277 68.1527 10.6032 67.9095 10.7416C67.6536 10.88 67.4617 11.0687 67.2952 11.2826C67.1291 11.5091 67.0135 11.7607 66.9367 12.0501C66.8604 12.3395 66.822 12.6289 66.822 12.9183C66.822 13.2203 66.8604 13.5096 66.9367 13.7991C67.0135 14.0884 67.1291 14.3401 67.2952 14.5666C67.4617 14.793 67.6666 14.9818 67.9095 15.1202C68.1657 15.2711 68.4599 15.3341 68.7925 15.3341ZM72.7598 9.50854H73.9245V7.44509H75.4602V9.49594H76.8423V10.6158H75.4602V14.2646C75.4602 14.4281 75.4731 14.554 75.4856 14.6798C75.4986 14.793 75.537 14.8937 75.5754 14.9692C75.6267 15.0447 75.7035 15.1076 75.7928 15.1453C75.8954 15.1831 76.0231 15.2082 76.2026 15.2082C76.3048 15.2082 76.42 15.2082 76.5222 15.1956C76.6249 15.1831 76.7401 15.1705 76.8423 15.1453V16.3155C76.6758 16.3406 76.5097 16.3532 76.3432 16.3658C76.1767 16.3909 76.0231 16.3909 75.8441 16.3909C75.4347 16.3909 75.1147 16.3532 74.8714 16.2777C74.6285 16.2022 74.4366 16.089 74.2955 15.9506C74.1549 15.7996 74.0651 15.6234 74.0142 15.4096C73.9629 15.1956 73.9374 14.9314 73.9245 14.6546V10.6283H72.7598V9.48339V9.50854Z" fill="white"/>
<path d="M18.4463 6.90408H11.4204L9.25761 0.336182L7.08198 6.90408L0.0560913 6.89149L5.73826 10.9555L3.56263 17.5234L9.2448 13.4593L14.927 17.5234L12.7641 10.9555L18.4463 6.90408Z" fill="#00B67A"/>
<path d="M13.2505 12.4403L12.7642 10.9556L9.25763 13.4594L13.2505 12.4403Z" fill="#005128"/>
</g>
<defs>
<clipPath id="clip0_19_103">
<rect width="77" height="19" fill="white"/>
</clipPath>
</defs>
</svg>
