<svg width="57" height="13" viewBox="0 0 57 13" fill="none" xmlns="http://www.w3.org/2000/svg">
<path d="M0.238214 0.904053H8.0062V2.32583H4.94777V10.3406H3.27124V2.32583H0.225403L0.238214 0.904053ZM7.67361 3.50854H9.10706V4.82967H9.13251C9.18385 4.64095 9.27357 4.46477 9.40126 4.28864C9.52938 4.11247 9.68294 3.94893 9.8749 3.8105C10.0539 3.65952 10.2588 3.54628 10.4892 3.4582C10.7066 3.37015 10.9369 3.31981 11.1673 3.31981C11.3467 3.31981 11.4744 3.33241 11.5387 3.33241C11.6026 3.34496 11.6793 3.35755 11.7432 3.35755V4.80448C11.6409 4.77933 11.5258 4.76674 11.4106 4.75418C11.2954 4.74159 11.1932 4.72899 11.078 4.72899C10.8218 4.72899 10.5789 4.77933 10.3486 4.87997C10.1182 4.98066 9.92581 5.13164 9.74679 5.32037C9.58028 5.52169 9.43965 5.76072 9.33742 6.05013C9.23475 6.33949 9.18384 6.67925 9.18384 7.0567V10.3029H7.64807L7.67361 3.50854ZM18.7948 10.3406H17.2721V9.38437H17.2462C17.0542 9.73668 16.773 10.0009 16.4016 10.2148C16.0306 10.4287 15.6467 10.5294 15.2627 10.5294C14.3538 10.5294 13.6887 10.3155 13.2789 9.86251C12.8695 9.42212 12.6646 8.7427 12.6646 7.84936V3.50854H14.2003V7.69838C14.2003 8.30235 14.3155 8.7301 14.5588 8.96917C14.7891 9.22084 15.1221 9.34663 15.544 9.34663C15.8641 9.34663 16.1328 9.29633 16.3507 9.19564C16.5681 9.095 16.7471 8.96917 16.8752 8.80559C17.0158 8.64206 17.1056 8.44073 17.1694 8.21426C17.2337 7.98779 17.2591 7.73612 17.2591 7.4719V3.50854H18.7948V10.3406ZM21.393 8.15132C21.4439 8.59172 21.6104 8.89368 21.9046 9.08241C22.1988 9.25858 22.5573 9.34663 22.9671 9.34663C23.1077 9.34663 23.2742 9.33407 23.4532 9.30888C23.6322 9.28373 23.8117 9.24599 23.9653 9.18309C24.1313 9.12015 24.2595 9.03211 24.3617 8.90628C24.4644 8.78044 24.5153 8.62946 24.5027 8.44073C24.4898 8.25201 24.426 8.08843 24.2849 7.96259C24.1443 7.8368 23.9778 7.74872 23.7733 7.66063C23.5684 7.58514 23.3251 7.52224 23.0564 7.4719C22.7876 7.42156 22.5189 7.35867 22.2376 7.29577C21.9559 7.23283 21.6742 7.15734 21.4055 7.0693C21.1367 6.98121 20.9064 6.86797 20.689 6.7044C20.4841 6.55341 20.3051 6.36469 20.1899 6.12562C20.0618 5.88655 19.9979 5.60973 19.9979 5.25747C19.9979 4.87997 20.0872 4.57801 20.2792 4.32639C20.4586 4.07472 20.7015 3.8734 20.9832 3.72241C21.2649 3.57143 21.5845 3.4582 21.93 3.3953C22.2756 3.33241 22.6086 3.30721 22.9157 3.30721C23.2742 3.30721 23.6197 3.34496 23.9394 3.42045C24.2595 3.49594 24.5666 3.60918 24.8224 3.78535C25.0911 3.94893 25.309 4.1754 25.4751 4.43962C25.6545 4.70384 25.7567 5.03095 25.8081 5.40845H24.2081C24.1313 5.04355 23.9653 4.80448 23.709 4.67869C23.4403 4.55286 23.1461 4.48992 22.8006 4.48992C22.6983 4.48992 22.5573 4.50252 22.4166 4.51511C22.2631 4.54026 22.1349 4.56545 21.9943 4.61575C21.8662 4.6661 21.751 4.74159 21.6613 4.82967C21.572 4.91772 21.5207 5.04355 21.5207 5.19453C21.5207 5.38326 21.5845 5.52169 21.7126 5.63493C21.8407 5.74816 22.0073 5.83625 22.2247 5.92429C22.4296 5.99978 22.6724 6.06272 22.9412 6.11302C23.2099 6.16336 23.4916 6.22626 23.7733 6.2892C24.0546 6.35209 24.3233 6.42758 24.592 6.51567C24.8608 6.60376 25.1041 6.71699 25.309 6.88053C25.5135 7.03155 25.6929 7.22028 25.8206 7.44675C25.9487 7.67323 26.0125 7.96259 26.0125 8.28975C26.0125 8.69236 25.9233 9.03211 25.7313 9.32148C25.5393 9.59829 25.296 9.83736 25.0018 10.0135C24.7072 10.1897 24.3617 10.3155 24.0036 10.4035C23.6322 10.479 23.2742 10.5294 22.9157 10.5294C22.4805 10.5294 22.0711 10.479 21.7001 10.3784C21.3287 10.2777 20.9961 10.1267 20.7274 9.938C20.4586 9.73668 20.2408 9.49765 20.0872 9.19564C19.9336 8.90628 19.8444 8.55397 19.8314 8.13877H21.38V8.15132H21.393ZM26.4478 3.50854H27.6125V1.44509H29.1482V3.49594H30.5303V4.61575H29.1482V8.2646C29.1482 8.42814 29.1611 8.55397 29.1736 8.6798C29.1866 8.79304 29.225 8.89368 29.2634 8.96917C29.3147 9.04466 29.3915 9.1076 29.4808 9.14534C29.5835 9.18309 29.7111 9.20824 29.8906 9.20824C29.9928 9.20824 30.108 9.20824 30.2102 9.19564C30.3129 9.18309 30.4281 9.17049 30.5303 9.14534V10.3155C30.3638 10.3406 30.1977 10.3532 30.0312 10.3658C29.8647 10.3909 29.7111 10.3909 29.5321 10.3909C29.1227 10.3909 28.8027 10.3532 28.5594 10.2777C28.3165 10.2022 28.1246 10.089 27.9835 9.9506C27.8429 9.79961 27.7531 9.62344 27.7022 9.40956C27.6509 9.19564 27.625 8.93143 27.6125 8.65461V4.62835H26.4478V3.48339V3.50854ZM31.6053 3.50854H33.0513V4.43962H33.0771C33.2945 4.03697 33.5892 3.76016 33.9731 3.58403C34.357 3.4079 34.7664 3.31981 35.2271 3.31981C35.7775 3.31981 36.2507 3.4079 36.6606 3.60918C37.0699 3.79791 37.4025 4.04957 37.6713 4.38928C37.94 4.71644 38.1449 5.10645 38.273 5.54684C38.4007 5.98723 38.4775 6.46533 38.4775 6.95602C38.4775 7.42156 38.4136 7.86195 38.2985 8.28975C38.1704 8.71755 37.9913 9.1076 37.748 9.43471C37.5052 9.76187 37.198 10.0261 36.8141 10.2274C36.4302 10.4287 35.9949 10.5294 35.4829 10.5294C35.2655 10.5294 35.0351 10.5042 34.8173 10.4664C34.5999 10.4287 34.3825 10.3658 34.1776 10.2777C33.9731 10.1897 33.7807 10.0764 33.6146 9.938C33.4352 9.79961 33.2945 9.63604 33.1794 9.45986H33.1539V12.8696H31.6182V3.50854H31.6053ZM36.9677 6.93087C36.9677 6.62891 36.9293 6.32694 36.8396 6.03753C36.7628 5.74816 36.6347 5.4965 36.4686 5.27002C36.3021 5.04355 36.0972 4.86742 35.8668 4.72899C35.624 4.5906 35.3423 4.52767 35.0351 4.52767C34.395 4.52767 33.9088 4.74159 33.5762 5.18198C33.2562 5.62233 33.0896 6.2137 33.0896 6.94347C33.0896 7.29577 33.128 7.61029 33.2178 7.8997C33.3075 8.18907 33.4227 8.44073 33.6017 8.65461C33.7682 8.86853 33.9731 9.03211 34.216 9.1579C34.4593 9.28373 34.728 9.34663 35.0481 9.34663C35.4061 9.34663 35.6878 9.27114 35.9311 9.13275C36.174 8.99436 36.3659 8.80559 36.5324 8.59172C36.686 8.36524 36.8012 8.11358 36.865 7.82421C36.9293 7.52224 36.9677 7.23283 36.9677 6.93087ZM39.6676 0.904053H41.2038V2.32583H39.6676V0.904053ZM39.6676 3.50854H41.2038V10.3406H39.6676V3.50854ZM42.5729 0.904053H44.1086V10.3406H42.5729V0.904053ZM48.7925 10.5294C48.2425 10.5294 47.7434 10.4413 47.3081 10.2526C46.8729 10.0638 46.5148 9.82476 46.2077 9.5102C45.9131 9.19564 45.6827 8.80559 45.5291 8.36524C45.3756 7.92485 45.2858 7.43416 45.2858 6.91827C45.2858 6.40243 45.3626 5.92429 45.5291 5.48394C45.6827 5.04355 45.9131 4.66609 46.2077 4.33894C46.5019 4.02442 46.8729 3.77276 47.3081 3.59662C47.7434 3.42045 48.2425 3.31981 48.7925 3.31981C49.3429 3.31981 49.842 3.4079 50.2773 3.59662C50.7121 3.77276 51.0705 4.02442 51.3777 4.33894C51.6719 4.6535 51.9022 5.04355 52.0558 5.48394C52.2094 5.92429 52.2991 6.40243 52.2991 6.91827C52.2991 7.44675 52.2223 7.92485 52.0558 8.36524C51.8897 8.80559 51.6719 9.18309 51.3777 9.5102C51.0835 9.82476 50.7121 10.0764 50.2773 10.2526C49.842 10.4287 49.3558 10.5294 48.7925 10.5294ZM48.7925 9.33407C49.1255 9.33407 49.4326 9.25858 49.6755 9.12015C49.9317 8.98177 50.1237 8.79304 50.2898 8.56657C50.4563 8.34009 50.5715 8.07583 50.6482 7.79906C50.725 7.50965 50.7634 7.22028 50.7634 6.91827C50.7634 6.62891 50.725 6.33949 50.6482 6.05013C50.5715 5.76072 50.4563 5.50909 50.2898 5.28262C50.1237 5.05615 49.9188 4.87997 49.6755 4.74159C49.4197 4.6032 49.1255 4.52767 48.7925 4.52767C48.4599 4.52767 48.1527 4.6032 47.9094 4.74159C47.6536 4.87997 47.4617 5.0687 47.2952 5.28262C47.1291 5.50909 47.0135 5.76072 46.9367 6.05013C46.8604 6.33949 46.822 6.62891 46.822 6.91827C46.822 7.22028 46.8604 7.50965 46.9367 7.79906C47.0135 8.08843 47.1291 8.34009 47.2952 8.56657C47.4617 8.79304 47.6666 8.98177 47.9094 9.12015C48.1657 9.27114 48.4599 9.33407 48.7925 9.33407ZM52.7598 3.50854H53.9245V1.44509H55.4602V3.49594H56.8423V4.61575H55.4602V8.2646C55.4602 8.42814 55.4731 8.55397 55.4857 8.6798C55.4986 8.79304 55.537 8.89368 55.5754 8.96917C55.6267 9.04466 55.7035 9.1076 55.7928 9.14534C55.8954 9.18309 56.0231 9.20824 56.2026 9.20824C56.3048 9.20824 56.42 9.20824 56.5222 9.19564C56.6249 9.18309 56.7401 9.17049 56.8423 9.14534V10.3155C56.6758 10.3406 56.5097 10.3532 56.3432 10.3658C56.1767 10.3909 56.0231 10.3909 55.8441 10.3909C55.4347 10.3909 55.1147 10.3532 54.8714 10.2777C54.6285 10.2022 54.4365 10.089 54.2955 9.9506C54.1549 9.79961 54.0651 9.62344 54.0142 9.40956C53.9629 9.19564 53.9374 8.93143 53.9245 8.65461V4.62835H52.7598V3.48339V3.50854Z" fill="white"/>
</svg>
