<svg width="41" height="41" viewBox="0 0 41 41" fill="none" xmlns="http://www.w3.org/2000/svg">
<path d="M0 13.4531V12.1718C0 11.1104 0.860439 10.25 1.92188 10.25H30.75V6.40621C30.75 4.69518 32.8239 3.84035 34.0309 5.04721L40.4371 11.4535C41.1876 12.204 41.1876 13.4209 40.4371 14.1714L34.0309 20.5776C32.8285 21.7798 30.75 20.9369 30.75 19.2187V15.375H1.92188C0.860439 15.375 0 14.5145 0 13.4531ZM39.0781 25.625H10.25V21.7812C10.25 20.0744 8.17902 19.2123 6.96912 20.4222L0.562869 26.8285C-0.187623 27.579 -0.187623 28.7959 0.562869 29.5464L6.96912 35.9526C8.17253 37.156 10.25 36.3103 10.25 34.5937V30.75H39.0781C40.1396 30.75 41 29.8895 41 28.8281V27.5468C41 26.4854 40.1396 25.625 39.0781 25.625Z" fill="black"/>
</svg>
