<svg width="25" height="24" viewBox="0 0 25 24" fill="none" xmlns="http://www.w3.org/2000/svg">
<g clip-path="url(#clip0_182_129)">
<path d="M23.9985 6.22346C23.7225 5.1908 22.9093 4.37766 21.8767 4.10166C20.0048 3.6001 12.4999 3.6001 12.4999 3.6001C12.4999 3.6001 4.99486 3.6001 3.12305 4.10166C2.09058 4.37766 1.27725 5.1908 1.0013 6.22346C0.499878 8.09508 0.499878 12.0002 0.499878 12.0002C0.499878 12.0002 0.499878 15.9053 1.0013 17.7767C1.27725 18.8094 2.09058 19.6228 3.12305 19.8987C4.99486 20.4001 12.4999 20.4001 12.4999 20.4001C12.4999 20.4001 20.0048 20.4001 21.8767 19.8987C22.9093 19.6228 23.7225 18.8094 23.9985 17.7767C24.4998 15.9053 24.4998 12.0002 24.4998 12.0002C24.4998 12.0002 24.4998 8.09508 23.9985 6.22346ZM10.0997 15.6003V8.40014L16.335 12.0002L10.0997 15.6003Z" fill="white"/>
</g>
<defs>
<clipPath id="clip0_182_129">
<rect width="24" height="24" fill="white" transform="translate(0.499878)"/>
</clipPath>
</defs>
</svg>
