<svg width="32" height="32" viewBox="0 0 32 32" fill="none" xmlns="http://www.w3.org/2000/svg">
<g clip-path="url(#clip0_44_36)">
<path d="M30 6H26V2H24V6H20V8H24V12H26V8H30V6Z" fill="black"/>
<path d="M24 28.5858L18.0249 22.6107C19.4651 20.8091 20.1606 18.5244 19.9688 16.2259C19.7769 13.9274 18.7122 11.7897 16.9933 10.2518C15.2743 8.71388 13.0318 7.89258 10.7262 7.95661C8.42061 8.02063 6.22706 8.9651 4.59614 10.596C2.96522 12.2269 2.02075 14.4205 1.95673 16.7261C1.89271 19.0316 2.714 21.2742 4.2519 22.9931C5.78981 24.712 7.92756 25.7768 10.226 25.9687C12.5245 26.1605 14.8092 25.4649 16.6108 24.0248L22.5859 29.9999L24 28.5858ZM4.00001 16.9999C4.00001 15.6154 4.41055 14.262 5.17972 13.1109C5.94889 11.9598 7.04214 11.0625 8.32123 10.5327C9.60031 10.0029 11.0078 9.8643 12.3656 10.1344C13.7235 10.4045 14.9708 11.0712 15.9498 12.0501C16.9287 13.0291 17.5954 14.2764 17.8655 15.6343C18.1356 16.9921 17.997 18.3996 17.4672 19.6787C16.9374 20.9578 16.0401 22.051 14.889 22.8202C13.7379 23.5893 12.3845 23.9999 11 23.9999C9.14413 23.9978 7.36485 23.2597 6.05254 21.9474C4.74024 20.635 4.00208 18.8558 4.00001 16.9999Z" fill="black"/>
</g>
<defs>
<clipPath id="clip0_44_36">
<rect width="32" height="32" fill="white"/>
</clipPath>
</defs>
</svg>
