<svg width="11" height="7" viewBox="0 0 11 7" fill="none" xmlns="http://www.w3.org/2000/svg">
<path d="M10.6859 0.202271C10.5073 0.0546021 10.2776 -0.0164928 10.0467 0.00447453C9.81593 0.0254419 9.60275 0.136772 9.45365 0.314213L5.75011 4.75783L2.04653 0.314286C1.89785 0.136149 1.6845 0.0243692 1.45341 0.00353604C1.22232 -0.0172971 0.992422 0.0545231 0.814286 0.203197C0.636149 0.351871 0.524369 0.56522 0.503536 0.79631C0.482703 1.0274 0.554523 1.2573 0.703197 1.43544L5.07844 6.68567C5.16052 6.7841 5.26323 6.86328 5.37929 6.91762C5.49536 6.97196 5.62195 7.00013 5.75011 7.00013C5.87827 7.00013 6.00486 6.97196 6.12093 6.91762C6.23699 6.86328 6.3397 6.7841 6.42177 6.68567L10.797 1.43537C10.9456 1.25705 11.0174 1.02703 10.9966 0.795836C10.9758 0.564639 10.864 0.351157 10.6859 0.202271Z" fill="white"/>
</svg>
