<svg width="50" height="50" viewBox="0 0 50 50" fill="none" xmlns="http://www.w3.org/2000/svg">
<path d="M41.7657 34.3193C39.2579 31.25 37.4874 29.6875 37.4874 21.2256C37.4874 13.4766 33.5304 10.7158 30.2736 9.375C29.8409 9.19727 29.4337 8.78906 29.3019 8.34473C28.7306 6.40039 27.129 4.6875 25.0001 4.6875C22.8712 4.6875 21.2687 6.40137 20.7032 8.34668C20.5714 8.7959 20.1642 9.19727 19.7316 9.375C16.4708 10.7178 12.5177 13.4688 12.5177 21.2256C12.5128 29.6875 10.7423 31.25 8.23449 34.3193C7.19543 35.5908 8.10559 37.5 9.92297 37.5H40.087C41.8946 37.5 42.7989 35.585 41.7657 34.3193Z" stroke="black" stroke-width="4" stroke-linecap="round" stroke-linejoin="round"/>
<path d="M31.25 37.5V39.0625C31.25 40.7201 30.5915 42.3098 29.4194 43.4819C28.2473 44.654 26.6576 45.3125 25 45.3125C23.3424 45.3125 21.7527 44.654 20.5806 43.4819C19.4085 42.3098 18.75 40.7201 18.75 39.0625V37.5" stroke="black" stroke-width="4" stroke-linecap="round" stroke-linejoin="round"/>
</svg>
