<svg width="34" height="37" viewBox="0 0 34 37" fill="none" xmlns="http://www.w3.org/2000/svg">
<g clip-path="url(#clip0_1246_2248)">
<path d="M27.625 37.3747H6.375V6.51562H27.625V37.3747ZM7.625 35.8694H26.375V8.02094H7.625V35.8694Z" fill="black"/>
<path d="M23.875 8.02128H10.125V2H23.875V8.02128ZM11.375 6.51596H22.625V3.50532H11.375V6.51596Z" fill="black"/>
<path d="M12 32.107C11.6544 32.107 11.375 31.7705 11.375 31.3543V12.5378C11.375 12.1216 11.6544 11.7852 12 11.7852C12.3456 11.7852 12.625 12.1216 12.625 12.5378V31.3543C12.625 31.7705 12.3456 32.107 12 32.107Z" fill="black"/>
<path d="M17 32.107C16.6544 32.107 16.375 31.7705 16.375 31.3543V12.5378C16.375 12.1216 16.6544 11.7852 17 11.7852C17.3456 11.7852 17.625 12.1216 17.625 12.5378V31.3543C17.625 31.7705 17.3456 32.107 17 32.107Z" fill="black"/>
<path d="M22 32.107C21.6544 32.107 21.375 31.7705 21.375 31.3543V12.5378C21.375 12.1216 21.6544 11.7852 22 11.7852C22.3456 11.7852 22.625 12.1216 22.625 12.5378V31.3543C22.625 31.7705 22.3456 32.107 22 32.107Z" fill="black"/>
<path d="M32 6.51562H2V8.02094H32V6.51562Z" fill="black"/>
</g>
<defs>
<clipPath id="clip0_1246_2248">
<rect width="34" height="37" fill="white"/>
</clipPath>
</defs>
</svg>
