<svg width="32" height="32" viewBox="0 0 32 32" fill="none" xmlns="http://www.w3.org/2000/svg">
<g clip-path="url(#clip0_42_173)">
<path d="M5.7495 19.1719C4.86497 19.1719 4.177 19.8598 4.177 20.7444C4.177 21.6289 4.86497 22.3169 5.7495 22.3169C6.63403 22.3169 7.322 21.6289 7.322 20.7444C7.322 19.8598 6.63403 19.1719 5.7495 19.1719ZM5.7495 21.2358C5.45466 21.2358 5.2581 21.0392 5.2581 20.7444C5.2581 20.4495 5.45466 20.253 5.7495 20.253C6.04435 20.253 6.24091 20.4495 6.24091 20.7444C6.24091 20.9901 6.04435 21.2358 5.7495 21.2358Z" fill="black"/>
<path d="M23.735 19.1719C22.8504 19.1719 22.1625 19.8598 22.1625 20.7444C22.1625 21.6289 22.8504 22.3169 23.735 22.3169C24.6195 22.3169 25.3075 21.6289 25.3075 20.7444C25.3075 19.8598 24.6195 19.1719 23.735 19.1719ZM23.735 21.2358C23.4401 21.2358 23.2436 21.0392 23.2436 20.7444C23.2436 20.4495 23.4401 20.253 23.735 20.253C24.0298 20.253 24.2264 20.4495 24.2264 20.7444C24.2264 20.9901 24.0298 21.2358 23.735 21.2358Z" fill="black"/>
<path d="M30.1232 12.636H29.8284C29.4844 10.5721 27.2239 7.91846 23.9315 7.91846H12.7766C9.82812 7.91846 7.27281 12.3903 6.63398 13.6188H3.78383C1.67078 13.6188 0 15.3387 0 17.4026V20.1545C0 20.7442 0.491406 21.2356 1.08109 21.2356H2.21133C2.45703 22.9555 3.98039 24.2823 5.74945 24.2823C7.51852 24.2823 9.04187 22.9555 9.28758 21.2356H20.1968C20.4425 22.9555 21.9659 24.2823 23.7349 24.2823C25.504 24.2823 27.0273 22.9555 27.273 21.2356H28.7964C29.3861 21.2356 29.8775 20.7442 29.8775 20.1545V17.5992H30.1232C30.8603 17.5992 31.45 17.0095 31.45 16.2724V13.9628C31.45 13.2256 30.8603 12.636 30.1232 12.636ZM5.74945 23.2012C4.37352 23.2012 3.24328 22.071 3.24328 20.695C3.24328 19.3191 4.37352 18.1888 5.74945 18.1888C7.12539 18.1888 8.25562 19.3191 8.25562 20.695C8.25562 22.1201 7.12539 23.2012 5.74945 23.2012ZM23.7349 23.2012C22.359 23.2012 21.2288 22.071 21.2288 20.695C21.2288 19.3191 22.359 18.1888 23.7349 18.1888C25.1109 18.1888 26.2411 19.3191 26.2411 20.695C26.2411 22.1201 25.1109 23.2012 23.7349 23.2012ZM28.7964 20.2036H27.273C27.0273 18.4837 25.504 17.1569 23.7349 17.1569C21.9659 17.1569 20.4425 18.4837 20.1968 20.2036H9.28758C9.04187 18.4837 7.51852 17.1569 5.74945 17.1569C3.98039 17.1569 2.45703 18.4837 2.21133 20.2036H1.08109V17.4517C1.08109 15.9775 2.30961 14.749 3.78383 14.749H6.92883C7.12539 14.749 7.32195 14.6507 7.42023 14.4542C8.15734 12.9308 10.5652 9.04869 12.7766 9.04869H23.8823C26.9291 9.04869 28.7473 11.7514 28.7473 13.2256V17.1078V20.2036H28.7964ZM30.3689 16.2724C30.3689 16.4198 30.2706 16.5181 30.1232 16.5181H29.8775V13.7171H30.1232C30.2706 13.7171 30.3689 13.8153 30.3689 13.9628V16.2724Z" fill="black"/>
<path d="M17.6414 10.1782H14.005C12.5799 10.1782 11.204 10.8662 10.4669 12.0456L9.23838 13.9129C9.1401 14.0603 9.1401 14.306 9.23838 14.4535C9.33667 14.65 9.53323 14.7483 9.72979 14.7483H17.6414C17.9363 14.7483 18.182 14.5026 18.182 14.2078V10.7188C18.182 10.4239 17.9363 10.1782 17.6414 10.1782ZM17.1009 13.6672H10.7126L11.4006 12.6353C11.9411 11.7999 12.9239 11.2593 14.005 11.2593H17.1009V13.6672Z" fill="black"/>
<path d="M22.9977 10.1782H19.9019C19.607 10.1782 19.3613 10.4239 19.3613 10.7188V14.2078C19.3613 14.5026 19.607 14.7483 19.9019 14.7483H26.7324C27.0273 14.7483 27.273 14.5026 27.273 14.2078C27.3221 11.9964 25.4056 10.1782 22.9977 10.1782ZM20.4916 13.6672V11.2593H23.0469C24.6194 11.2593 25.9462 12.2913 26.1919 13.6672H20.4916Z" fill="black"/>
</g>
<defs>
<clipPath id="clip0_42_173">
<rect width="31.45" height="31.45" fill="white" transform="translate(0 0.399902)"/>
</clipPath>
</defs>
</svg>
