<svg width="50" height="50" viewBox="0 0 50 50" fill="none" xmlns="http://www.w3.org/2000/svg">
<path d="M24.9997 21.8753C22.9395 21.8753 20.9255 21.2644 19.2125 20.1198C17.4995 18.9752 16.1643 17.3483 15.3759 15.445C14.5875 13.5416 14.3812 11.4471 14.7832 9.42647C15.1851 7.40584 16.1772 5.54977 17.634 4.09297C19.0908 2.63617 20.9469 1.64408 22.9675 1.24215C24.9881 0.840221 27.0826 1.04651 28.986 1.83492C30.8894 2.62333 32.5162 3.95846 33.6608 5.67147C34.8054 7.38449 35.4163 9.39844 35.4163 11.4587C35.4163 14.2213 34.3189 16.8709 32.3654 18.8244C30.4119 20.7779 27.7624 21.8753 24.9997 21.8753ZM24.9997 5.20866C23.7635 5.20866 22.5552 5.57522 21.5274 6.26198C20.4996 6.94874 19.6985 7.92485 19.2254 9.06689C18.7524 10.2089 18.6286 11.4656 18.8698 12.678C19.1109 13.8904 19.7062 15.004 20.5803 15.8781C21.4543 16.7522 22.568 17.3474 23.7804 17.5886C24.9927 17.8297 26.2494 17.706 27.3915 17.2329C28.5335 16.7599 29.5096 15.9588 30.1964 14.931C30.8831 13.9032 31.2497 12.6948 31.2497 11.4587C31.2497 9.80106 30.5912 8.21135 29.4191 7.03925C28.247 5.86714 26.6573 5.20866 24.9997 5.20866Z" fill="black"/>
<path d="M43.7503 48.958H6.25033C5.69779 48.958 5.16789 48.7385 4.77719 48.3478C4.38649 47.9571 4.16699 47.4272 4.16699 46.8747V40.6247C4.16699 36.2044 5.92294 31.9652 9.04855 28.8396C12.1742 25.714 16.4134 23.958 20.8337 23.958H29.167C33.5873 23.958 37.8265 25.714 40.9521 28.8396C44.0777 31.9652 45.8337 36.2044 45.8337 40.6247V46.8747C45.8337 47.4272 45.6142 47.9571 45.2235 48.3478C44.8328 48.7385 44.3029 48.958 43.7503 48.958ZM8.33366 44.7913H41.667V40.6247C41.667 37.3095 40.35 34.13 38.0058 31.7858C35.6616 29.4416 32.4822 28.1247 29.167 28.1247H20.8337C17.5185 28.1247 14.339 29.4416 11.9948 31.7858C9.65062 34.13 8.33366 37.3095 8.33366 40.6247V44.7913Z" fill="black"/>
</svg>
