<svg width="25" height="18" viewBox="0 0 25 18" fill="none" xmlns="http://www.w3.org/2000/svg">
<path d="M4.83203 0.867188C7.04297 0.867188 8.65625 1.30078 9.67188 2.16797C10.6953 3.02734 11.207 4.26172 11.207 5.87109C11.207 6.59766 11.0859 7.28906 10.8438 7.94531C10.6094 8.59375 10.2266 9.16797 9.69531 9.66797C9.16406 10.1602 8.46484 10.5508 7.59766 10.8398C6.73828 11.1211 5.68359 11.2617 4.43359 11.2617H2.34766V18H0.355469V0.867188H4.83203ZM4.64453 2.56641H2.34766V9.55078H4.21094C5.30469 9.55078 6.21484 9.43359 6.94141 9.19922C7.67578 8.96484 8.22656 8.58594 8.59375 8.0625C8.96094 7.53125 9.14453 6.82812 9.14453 5.95312C9.14453 4.8125 8.78125 3.96484 8.05469 3.41016C7.32812 2.84766 6.19141 2.56641 4.64453 2.56641ZM14.793 18V0.867188H16.7852V16.2188H24.3906V18H14.793Z" fill="white"/>
</svg>
