<svg width="200" height="50" viewBox="0 0 200 50" fill="none" xmlns="http://www.w3.org/2000/svg">
<path d="M126.847 22.5901L125.727 18.6445H125.693C125.703 18.7469 125.713 18.8856 125.723 19.0604C125.736 19.2353 125.747 19.4239 125.757 19.6262C125.767 19.8285 125.772 20.0234 125.772 20.2107V22.5901H124.46V17.112H126.431L127.574 21.0014H127.604L128.725 17.112H130.699V22.5901H129.339V20.1883C129.339 20.0159 129.342 19.831 129.347 19.6337C129.354 19.4339 129.362 19.2465 129.369 19.0717C129.379 18.8943 129.388 18.7544 129.395 18.652H129.362L128.256 22.5901H126.847ZM135.848 20.458C135.848 20.8128 135.799 21.1275 135.701 21.4023C135.604 21.6771 135.463 21.9081 135.278 22.0955C135.093 22.2828 134.87 22.4252 134.607 22.5226C134.345 22.6176 134.049 22.665 133.719 22.665C133.412 22.665 133.13 22.6176 132.872 22.5226C132.618 22.4252 132.395 22.2828 132.206 22.0955C132.016 21.9081 131.868 21.6771 131.763 21.4023C131.661 21.1275 131.61 20.8128 131.61 20.458C131.61 19.9884 131.695 19.5912 131.865 19.2665C132.037 18.9418 132.282 18.6945 132.599 18.5246C132.919 18.3547 133.3 18.2698 133.742 18.2698C134.149 18.2698 134.511 18.3547 134.828 18.5246C135.146 18.6945 135.394 18.9418 135.574 19.2665C135.756 19.5912 135.848 19.9884 135.848 20.458ZM133.097 20.458C133.097 20.7003 133.119 20.9052 133.161 21.0726C133.203 21.2374 133.271 21.3636 133.363 21.451C133.458 21.5359 133.582 21.5784 133.734 21.5784C133.887 21.5784 134.008 21.5359 134.098 21.451C134.188 21.3636 134.253 21.2374 134.293 21.0726C134.335 20.9052 134.356 20.7003 134.356 20.458C134.356 20.2157 134.335 20.0134 134.293 19.851C134.253 19.6887 134.186 19.5663 134.094 19.4838C134.004 19.4014 133.882 19.3602 133.727 19.3602C133.504 19.3602 133.343 19.4526 133.243 19.6375C133.146 19.8223 133.097 20.0958 133.097 20.458ZM138.767 21.5072C138.899 21.5072 139.02 21.4935 139.13 21.466C139.24 21.4385 139.355 21.4035 139.475 21.3611V22.429C139.315 22.4989 139.145 22.5551 138.965 22.5976C138.788 22.6425 138.56 22.665 138.283 22.665C138.008 22.665 137.766 22.6226 137.556 22.5376C137.346 22.4502 137.183 22.3003 137.065 22.088C136.95 21.8732 136.893 21.5747 136.893 21.1925V19.4426H136.38V18.8468L137.032 18.386L137.41 17.4942H138.369V18.3447H139.411V19.4426H138.369V21.095C138.369 21.2324 138.404 21.3361 138.474 21.406C138.544 21.4735 138.642 21.5072 138.767 21.5072ZM144.271 20.458C144.271 20.8128 144.222 21.1275 144.125 21.4023C144.027 21.6771 143.886 21.9081 143.701 22.0955C143.516 22.2828 143.293 22.4252 143.031 22.5226C142.768 22.6176 142.472 22.665 142.143 22.665C141.835 22.665 141.553 22.6176 141.296 22.5226C141.041 22.4252 140.819 22.2828 140.629 22.0955C140.439 21.9081 140.292 21.6771 140.187 21.4023C140.084 21.1275 140.033 20.8128 140.033 20.458C140.033 19.9884 140.118 19.5912 140.288 19.2665C140.46 18.9418 140.705 18.6945 141.022 18.5246C141.342 18.3547 141.723 18.2698 142.165 18.2698C142.572 18.2698 142.934 18.3547 143.252 18.5246C143.569 18.6945 143.817 18.9418 143.997 19.2665C144.18 19.5912 144.271 19.9884 144.271 20.458ZM141.521 20.458C141.521 20.7003 141.542 20.9052 141.584 21.0726C141.627 21.2374 141.694 21.3636 141.787 21.451C141.882 21.5359 142.005 21.5784 142.158 21.5784C142.31 21.5784 142.431 21.5359 142.521 21.451C142.611 21.3636 142.676 21.2374 142.716 21.0726C142.758 20.9052 142.78 20.7003 142.78 20.458C142.78 20.2157 142.758 20.0134 142.716 19.851C142.676 19.6887 142.61 19.5663 142.517 19.4838C142.427 19.4014 142.305 19.3602 142.15 19.3602C141.928 19.3602 141.767 19.4526 141.667 19.6375C141.569 19.8223 141.521 20.0958 141.521 20.458ZM149.929 17.112L148.134 22.5901H146.392L144.604 17.112H146.268L147.014 19.8885C147.041 19.9934 147.072 20.1283 147.107 20.2932C147.145 20.4555 147.179 20.6179 147.209 20.7803C147.241 20.9427 147.261 21.075 147.268 21.1775C147.278 21.075 147.297 20.9439 147.325 20.784C147.352 20.6242 147.382 20.4643 147.415 20.3044C147.45 20.142 147.482 20.0084 147.512 19.9035L148.273 17.112H149.929ZM152.349 18.2698C152.762 18.2698 153.118 18.3422 153.417 18.4871C153.717 18.6295 153.948 18.8443 154.11 19.1316C154.273 19.4189 154.354 19.7786 154.354 20.2107V20.8627H151.735C151.747 21.085 151.83 21.2674 151.982 21.4098C152.137 21.5522 152.364 21.6234 152.664 21.6234C152.929 21.6234 153.171 21.5971 153.391 21.5447C153.613 21.4922 153.842 21.411 154.077 21.3011V22.354C153.872 22.4614 153.648 22.5401 153.406 22.5901C153.164 22.64 152.858 22.665 152.488 22.665C152.061 22.665 151.679 22.5888 151.341 22.4365C151.004 22.2841 150.738 22.048 150.543 21.7283C150.351 21.4085 150.255 20.9976 150.255 20.4955C150.255 19.9859 150.342 19.5675 150.517 19.2403C150.692 18.9105 150.937 18.667 151.252 18.5096C151.566 18.3497 151.932 18.2698 152.349 18.2698ZM152.402 19.2665C152.229 19.2665 152.085 19.3215 151.967 19.4314C151.852 19.5388 151.785 19.7086 151.765 19.941H153.024C153.021 19.8161 152.996 19.7024 152.949 19.6C152.901 19.4976 152.832 19.4164 152.739 19.3564C152.649 19.2965 152.537 19.2665 152.402 19.2665ZM157.839 18.2698C158.276 18.2698 158.633 18.3934 158.91 18.6407C159.188 18.888 159.326 19.284 159.326 19.8285V22.5901H157.861V20.2744C157.861 19.9922 157.82 19.7798 157.738 19.6375C157.658 19.4926 157.528 19.4201 157.348 19.4201C157.071 19.4201 156.885 19.5338 156.79 19.7611C156.695 19.9859 156.647 20.3094 156.647 20.7316V22.5901H155.182V18.3447H156.288L156.486 18.9068H156.542C156.632 18.7719 156.74 18.657 156.865 18.5621C156.989 18.4671 157.133 18.3947 157.295 18.3447C157.458 18.2948 157.639 18.2698 157.839 18.2698ZM161.642 22.665C161.205 22.665 160.845 22.4789 160.563 22.1067C160.281 21.7345 160.139 21.19 160.139 20.473C160.139 19.7486 160.284 19.2003 160.574 18.8281C160.864 18.4559 161.239 18.2698 161.698 18.2698C161.888 18.2698 162.052 18.2973 162.189 18.3522C162.326 18.4072 162.445 18.4821 162.545 18.577C162.647 18.6695 162.736 18.7744 162.811 18.8918H162.841C162.824 18.7844 162.807 18.637 162.792 18.4497C162.777 18.2598 162.77 18.075 162.77 17.8951V16.7598H164.246V22.5901H163.141L162.826 22.0543H162.77C162.702 22.1667 162.617 22.2691 162.515 22.3615C162.415 22.4539 162.293 22.5276 162.148 22.5826C162.005 22.6375 161.837 22.665 161.642 22.665ZM162.241 21.5072C162.476 21.5072 162.641 21.4335 162.736 21.2861C162.834 21.1363 162.886 20.9089 162.893 20.6042V20.488C162.893 20.1533 162.846 19.8972 162.751 19.7199C162.659 19.54 162.484 19.4501 162.226 19.4501C162.052 19.4501 161.907 19.535 161.792 19.7049C161.677 19.8748 161.619 20.1383 161.619 20.4955C161.619 20.8477 161.677 21.105 161.792 21.2674C161.909 21.4273 162.059 21.5072 162.241 21.5072ZM169.316 20.458C169.316 20.8128 169.267 21.1275 169.17 21.4023C169.072 21.6771 168.931 21.9081 168.746 22.0955C168.561 22.2828 168.338 22.4252 168.076 22.5226C167.813 22.6176 167.517 22.665 167.188 22.665C166.88 22.665 166.598 22.6176 166.341 22.5226C166.086 22.4252 165.864 22.2828 165.674 22.0955C165.484 21.9081 165.337 21.6771 165.232 21.4023C165.129 21.1275 165.078 20.8128 165.078 20.458C165.078 19.9884 165.163 19.5912 165.333 19.2665C165.505 18.9418 165.75 18.6945 166.067 18.5246C166.387 18.3547 166.768 18.2698 167.21 18.2698C167.617 18.2698 167.979 18.3547 168.297 18.5246C168.614 18.6945 168.862 18.9418 169.042 19.2665C169.225 19.5912 169.316 19.9884 169.316 20.458ZM166.566 20.458C166.566 20.7003 166.587 20.9052 166.629 21.0726C166.672 21.2374 166.739 21.3636 166.832 21.451C166.926 21.5359 167.05 21.5784 167.203 21.5784C167.355 21.5784 167.476 21.5359 167.566 21.451C167.656 21.3636 167.721 21.2374 167.761 21.0726C167.803 20.9052 167.825 20.7003 167.825 20.458C167.825 20.2157 167.803 20.0134 167.761 19.851C167.721 19.6887 167.655 19.5663 167.562 19.4838C167.472 19.4014 167.35 19.3602 167.195 19.3602C166.973 19.3602 166.812 19.4526 166.712 19.6375C166.614 19.8223 166.566 20.0958 166.566 20.458ZM172.718 18.2698C172.798 18.2698 172.882 18.276 172.969 18.2885C173.057 18.2985 173.122 18.3073 173.164 18.3148L173.033 19.6974C172.985 19.6849 172.924 19.6749 172.849 19.6674C172.774 19.6574 172.669 19.6524 172.535 19.6524C172.442 19.6524 172.343 19.6612 172.238 19.6787C172.134 19.6962 172.034 19.7336 171.939 19.7911C171.846 19.846 171.77 19.931 171.71 20.0459C171.65 20.1583 171.62 20.3107 171.62 20.503V22.5901H170.155V18.3447H171.246L171.474 19.0229H171.545C171.623 18.8831 171.721 18.7569 171.841 18.6445C171.964 18.5296 172.1 18.4384 172.25 18.371C172.402 18.3035 172.558 18.2698 172.718 18.2698ZM117.384 33.5901L116.982 32.4491H115.411L115.01 33.5901H114.299L115.827 29.4646H116.575L118.101 33.5901H117.384ZM116.808 31.8702L116.418 30.7461C116.403 30.6974 116.381 30.629 116.353 30.541C116.325 30.451 116.297 30.3602 116.269 30.2684C116.24 30.1747 116.217 30.096 116.198 30.0323C116.18 30.1091 116.156 30.1953 116.128 30.2909C116.102 30.3845 116.076 30.4726 116.049 30.555C116.025 30.6375 116.006 30.7011 115.993 30.7461L115.6 31.8702H116.808ZM121.288 30.4791V33.5901H120.768L120.678 33.1714H120.641C120.576 33.2781 120.492 33.3671 120.391 33.4383C120.29 33.5077 120.178 33.5592 120.054 33.5929C119.93 33.6285 119.8 33.6463 119.663 33.6463C119.429 33.6463 119.229 33.6069 119.062 33.5283C118.897 33.4477 118.771 33.3241 118.683 33.1573C118.595 32.9906 118.551 32.7751 118.551 32.511V30.4791H119.214V32.3873C119.214 32.629 119.262 32.8098 119.36 32.9297C119.459 33.0496 119.613 33.1095 119.821 33.1095C120.021 33.1095 120.18 33.0683 120.298 32.9859C120.417 32.9034 120.5 32.7817 120.549 32.6206C120.599 32.4594 120.624 32.2618 120.624 32.0276V30.4791H121.288ZM123.393 33.1123C123.479 33.1123 123.564 33.1049 123.648 33.0899C123.733 33.073 123.809 33.0533 123.879 33.0308V33.5311C123.806 33.5629 123.711 33.5901 123.595 33.6126C123.479 33.6351 123.358 33.6463 123.232 33.6463C123.056 33.6463 122.898 33.6173 122.757 33.5592C122.617 33.4992 122.505 33.3971 122.423 33.2529C122.341 33.1086 122.299 32.9091 122.299 32.6543V30.9822H121.875V30.6871L122.33 30.4538L122.547 29.7878H122.963V30.4791H123.853V30.9822H122.963V32.6458C122.963 32.8032 123.002 32.9203 123.081 32.9971C123.159 33.0739 123.263 33.1123 123.393 33.1123ZM127.265 32.0276C127.265 32.2861 127.231 32.5156 127.164 32.7161C127.096 32.9166 126.998 33.0861 126.869 33.2248C126.74 33.3615 126.584 33.4664 126.402 33.5395C126.221 33.6107 126.015 33.6463 125.787 33.6463C125.573 33.6463 125.378 33.6107 125.2 33.5395C125.022 33.4664 124.867 33.3615 124.736 33.2248C124.607 33.0861 124.506 32.9166 124.435 32.7161C124.364 32.5156 124.328 32.2861 124.328 32.0276C124.328 31.6847 124.387 31.3943 124.505 31.1564C124.625 30.9166 124.796 30.7339 125.017 30.6084C125.238 30.4829 125.501 30.4201 125.807 30.4201C126.093 30.4201 126.346 30.4829 126.565 30.6084C126.785 30.7339 126.956 30.9166 127.08 31.1564C127.203 31.3962 127.265 31.6866 127.265 32.0276ZM125.008 32.0276C125.008 32.2543 125.036 32.4482 125.09 32.6093C125.146 32.7704 125.232 32.8941 125.349 32.9803C125.465 33.0646 125.615 33.1067 125.798 33.1067C125.982 33.1067 126.132 33.0646 126.248 32.9803C126.364 32.8941 126.449 32.7704 126.504 32.6093C126.558 32.4482 126.585 32.2543 126.585 32.0276C126.585 31.8009 126.558 31.6089 126.504 31.4515C126.449 31.2922 126.364 31.1714 126.248 31.089C126.132 31.0047 125.981 30.9625 125.795 30.9625C125.522 30.9625 125.322 31.0543 125.197 31.2379C125.071 31.4215 125.008 31.6847 125.008 32.0276ZM129.865 33.5901L128.681 30.1588H128.656C128.662 30.2356 128.668 30.3405 128.676 30.4735C128.683 30.6065 128.69 30.7489 128.696 30.9007C128.701 31.0524 128.704 31.1976 128.704 31.3363V33.5901H128.091V29.4815H129.038L130.177 32.7611H130.193L131.371 29.4815H132.315V33.5901H131.672V31.3025C131.672 31.177 131.673 31.0412 131.677 30.8951C131.683 30.7489 131.688 30.6103 131.694 30.4791C131.702 30.348 131.707 30.2431 131.711 30.1644H131.688L130.46 33.5901H129.865ZM136.084 32.0276C136.084 32.2861 136.05 32.5156 135.982 32.7161C135.915 32.9166 135.817 33.0861 135.687 33.2248C135.558 33.3615 135.403 33.4664 135.221 33.5395C135.039 33.6107 134.834 33.6463 134.605 33.6463C134.392 33.6463 134.196 33.6107 134.018 33.5395C133.84 33.4664 133.686 33.3615 133.554 33.2248C133.425 33.0861 133.325 32.9166 133.254 32.7161C133.183 32.5156 133.147 32.2861 133.147 32.0276C133.147 31.6847 133.206 31.3943 133.324 31.1564C133.444 30.9166 133.614 30.7339 133.835 30.6084C134.057 30.4829 134.32 30.4201 134.625 30.4201C134.912 30.4201 135.165 30.4829 135.384 30.6084C135.603 30.7339 135.775 30.9166 135.898 31.1564C136.022 31.3962 136.084 31.6866 136.084 32.0276ZM133.827 32.0276C133.827 32.2543 133.854 32.4482 133.909 32.6093C133.965 32.7704 134.051 32.8941 134.167 32.9803C134.283 33.0646 134.433 33.1067 134.617 33.1067C134.8 33.1067 134.95 33.0646 135.066 32.9803C135.183 32.8941 135.268 32.7704 135.322 32.6093C135.376 32.4482 135.404 32.2543 135.404 32.0276C135.404 31.8009 135.376 31.6089 135.322 31.4515C135.268 31.2922 135.183 31.1714 135.066 31.089C134.95 31.0047 134.799 30.9625 134.614 30.9625C134.34 30.9625 134.141 31.0543 134.015 31.2379C133.89 31.4215 133.827 31.6847 133.827 32.0276ZM138 33.1123C138.086 33.1123 138.172 33.1049 138.256 33.0899C138.34 33.073 138.417 33.0533 138.486 33.0308V33.5311C138.413 33.5629 138.319 33.5901 138.203 33.6126C138.086 33.6351 137.966 33.6463 137.84 33.6463C137.664 33.6463 137.506 33.6173 137.365 33.5592C137.225 33.4992 137.113 33.3971 137.031 33.2529C136.948 33.1086 136.907 32.9091 136.907 32.6543V30.9822H136.483V30.6871L136.938 30.4538L137.154 29.7878H137.57V30.4791H138.461V30.9822H137.57V32.6458C137.57 32.8032 137.61 32.9203 137.688 32.9971C137.767 33.0739 137.871 33.1123 138 33.1123ZM139.779 30.4791V33.5901H139.119V30.4791H139.779ZM139.453 29.2876C139.554 29.2876 139.641 29.3148 139.715 29.3691C139.789 29.4234 139.827 29.5171 139.827 29.6501C139.827 29.7813 139.789 29.8749 139.715 29.9311C139.641 29.9855 139.554 30.0126 139.453 30.0126C139.348 30.0126 139.259 29.9855 139.186 29.9311C139.115 29.8749 139.079 29.7813 139.079 29.6501C139.079 29.5171 139.115 29.4234 139.186 29.3691C139.259 29.3148 139.348 29.2876 139.453 29.2876ZM141.437 33.5901L140.254 30.4791H140.954L141.595 32.3058C141.636 32.422 141.673 32.5475 141.707 32.6824C141.741 32.8173 141.764 32.9306 141.777 33.0224H141.8C141.813 32.9269 141.838 32.8126 141.876 32.6796C141.913 32.5447 141.951 32.4201 141.991 32.3058L142.632 30.4791H143.328L142.145 33.5901H141.437ZM145.04 30.4201C145.317 30.4201 145.555 30.4773 145.754 30.5915C145.952 30.7058 146.105 30.8679 146.212 31.0777C146.319 31.2876 146.372 31.5386 146.372 31.8309V32.185H144.295C144.303 32.4866 144.383 32.7189 144.537 32.8819C144.692 33.0449 144.91 33.1264 145.189 33.1264C145.387 33.1264 145.565 33.1077 145.723 33.0702C145.882 33.0308 146.046 32.9737 146.215 32.8988V33.4355C146.059 33.5086 145.901 33.562 145.74 33.5957C145.579 33.6294 145.386 33.6463 145.161 33.6463C144.855 33.6463 144.587 33.5873 144.354 33.4692C144.124 33.3493 143.943 33.1714 143.812 32.9353C143.683 32.6992 143.618 32.406 143.618 32.0557C143.618 31.7072 143.677 31.4112 143.795 31.1677C143.913 30.9241 144.079 30.7386 144.292 30.6112C144.506 30.4838 144.755 30.4201 145.04 30.4201ZM145.04 30.9175C144.832 30.9175 144.663 30.985 144.534 31.1199C144.407 31.2548 144.332 31.4524 144.309 31.7128H145.726C145.724 31.5573 145.698 31.4196 145.647 31.2997C145.598 31.1798 145.523 31.0862 145.422 31.0187C145.323 30.9513 145.195 30.9175 145.04 30.9175ZM150.452 33.5901L149.269 30.1588H149.244C149.25 30.2356 149.256 30.3405 149.264 30.4735C149.271 30.6065 149.278 30.7489 149.283 30.9007C149.289 31.0524 149.292 31.1976 149.292 31.3363V33.5901H148.679V29.4815H149.626L150.764 32.7611H150.781L151.959 29.4815H152.903V33.5901H152.259V31.3025C152.259 31.177 152.261 31.0412 152.265 30.8951C152.271 30.7489 152.276 30.6103 152.282 30.4791C152.289 30.348 152.295 30.2431 152.299 30.1644H152.276L151.048 33.5901H150.452ZM155.137 30.4201C155.531 30.4201 155.828 30.5072 156.028 30.6815C156.23 30.8557 156.332 31.1274 156.332 31.4965V33.5901H155.862L155.736 33.1489H155.713C155.625 33.2613 155.534 33.354 155.441 33.4271C155.347 33.5002 155.238 33.5545 155.115 33.5901C154.993 33.6276 154.844 33.6463 154.668 33.6463C154.482 33.6463 154.317 33.6126 154.17 33.5451C154.024 33.4758 153.909 33.3709 153.825 33.2304C153.74 33.0899 153.698 32.9119 153.698 32.6964C153.698 32.3761 153.817 32.1353 154.055 31.9742C154.295 31.8131 154.657 31.7241 155.14 31.7072L155.68 31.6875V31.5246C155.68 31.3091 155.629 31.1555 155.528 31.0637C155.429 30.9719 155.288 30.926 155.106 30.926C154.951 30.926 154.8 30.9485 154.654 30.9934C154.508 31.0384 154.365 31.0936 154.227 31.1592L154.013 30.6927C154.165 30.6122 154.337 30.5466 154.53 30.496C154.725 30.4454 154.927 30.4201 155.137 30.4201ZM155.677 32.1035L155.275 32.1175C154.945 32.1288 154.714 32.185 154.581 32.2861C154.448 32.3873 154.381 32.5259 154.381 32.702C154.381 32.8557 154.427 32.9681 154.519 33.0393C154.611 33.1086 154.732 33.1433 154.881 33.1433C155.11 33.1433 155.299 33.0786 155.449 32.9494C155.601 32.8182 155.677 32.6262 155.677 32.3732V32.1035ZM158.833 30.4201C158.885 30.4201 158.942 30.4229 159.004 30.4286C159.066 30.4342 159.119 30.4417 159.164 30.451L159.102 31.0693C159.063 31.0581 159.014 31.0496 158.956 31.044C158.9 31.0384 158.85 31.0356 158.805 31.0356C158.687 31.0356 158.574 31.0552 158.467 31.0946C158.361 31.1321 158.266 31.1901 158.183 31.2688C158.101 31.3456 158.036 31.4421 157.99 31.5583C157.943 31.6744 157.919 31.8093 157.919 31.963V33.5901H157.256V30.4791H157.773L157.863 31.0271H157.894C157.956 30.9166 158.033 30.8154 158.124 30.7236C158.216 30.6318 158.321 30.5588 158.439 30.5044C158.559 30.4482 158.69 30.4201 158.833 30.4201ZM160.401 29.2173V31.3306C160.401 31.4262 160.397 31.5311 160.39 31.6454C160.382 31.7578 160.375 31.8637 160.367 31.963H160.381C160.43 31.8974 160.488 31.8206 160.555 31.7325C160.625 31.6445 160.69 31.5676 160.752 31.5021L161.702 30.4791H162.461L161.216 31.8168L162.542 33.5901H161.767L160.772 32.2243L160.401 32.5419V33.5901H159.74V29.2173H160.401ZM164.279 30.4201C164.556 30.4201 164.794 30.4773 164.993 30.5915C165.191 30.7058 165.344 30.8679 165.451 31.0777C165.558 31.2876 165.611 31.5386 165.611 31.8309V32.185H163.534C163.542 32.4866 163.622 32.7189 163.776 32.8819C163.931 33.0449 164.149 33.1264 164.428 33.1264C164.626 33.1264 164.804 33.1077 164.962 33.0702C165.121 33.0308 165.285 32.9737 165.454 32.8988V33.4355C165.298 33.5086 165.14 33.562 164.979 33.5957C164.818 33.6294 164.625 33.6463 164.4 33.6463C164.094 33.6463 163.826 33.5873 163.593 33.4692C163.363 33.3493 163.182 33.1714 163.051 32.9353C162.922 32.6992 162.857 32.406 162.857 32.0557C162.857 31.7072 162.916 31.4112 163.034 31.1677C163.152 30.9241 163.318 30.7386 163.531 30.6112C163.745 30.4838 163.994 30.4201 164.279 30.4201ZM164.279 30.9175C164.071 30.9175 163.902 30.985 163.773 31.1199C163.646 31.2548 163.571 31.4524 163.548 31.7128H164.965C164.963 31.5573 164.937 31.4196 164.886 31.2997C164.837 31.1798 164.762 31.0862 164.661 31.0187C164.562 30.9513 164.434 30.9175 164.279 30.9175ZM167.514 33.1123C167.6 33.1123 167.685 33.1049 167.769 33.0899C167.854 33.073 167.93 33.0533 168 33.0308V33.5311C167.927 33.5629 167.832 33.5901 167.716 33.6126C167.6 33.6351 167.479 33.6463 167.353 33.6463C167.177 33.6463 167.019 33.6173 166.878 33.5592C166.738 33.4992 166.626 33.3971 166.544 33.2529C166.462 33.1086 166.42 32.9091 166.42 32.6543V30.9822H165.996V30.6871L166.451 30.4538L166.668 29.7878H167.084V30.4791H167.974V30.9822H167.084V32.6458C167.084 32.8032 167.123 32.9203 167.202 32.9971C167.28 33.0739 167.384 33.1123 167.514 33.1123ZM169.894 29.4815C170.424 29.4815 170.811 29.5902 171.054 29.8075C171.298 30.0248 171.42 30.3293 171.42 30.7208C171.42 30.8988 171.392 31.0684 171.335 31.2295C171.281 31.3887 171.191 31.5302 171.066 31.6538C170.94 31.7756 170.774 31.8721 170.568 31.9433C170.364 32.0145 170.112 32.0501 169.812 32.0501H169.374V33.5901H168.699V29.4815H169.894ZM169.849 30.0407H169.374V31.488H169.742C169.954 31.488 170.134 31.4637 170.282 31.415C170.43 31.3644 170.542 31.2847 170.619 31.1761C170.696 31.0674 170.734 30.9241 170.734 30.7461C170.734 30.5082 170.662 30.3311 170.518 30.215C170.375 30.0988 170.152 30.0407 169.849 30.0407ZM172.836 33.5901H172.173V29.2173H172.836V33.5901ZM175 30.4201C175.393 30.4201 175.69 30.5072 175.891 30.6815C176.093 30.8557 176.194 31.1274 176.194 31.4965V33.5901H175.725L175.599 33.1489H175.576C175.488 33.2613 175.397 33.354 175.304 33.4271C175.21 33.5002 175.101 33.5545 174.978 33.5901C174.856 33.6276 174.707 33.6463 174.531 33.6463C174.345 33.6463 174.179 33.6126 174.033 33.5451C173.887 33.4758 173.772 33.3709 173.688 33.2304C173.603 33.0899 173.561 32.9119 173.561 32.6964C173.561 32.3761 173.68 32.1353 173.918 31.9742C174.158 31.8131 174.519 31.7241 175.003 31.7072L175.542 31.6875V31.5246C175.542 31.3091 175.492 31.1555 175.391 31.0637C175.291 30.9719 175.151 30.926 174.969 30.926C174.814 30.926 174.663 30.9485 174.517 30.9934C174.371 31.0384 174.228 31.0936 174.09 31.1592L173.876 30.6927C174.028 30.6122 174.2 30.5466 174.393 30.496C174.588 30.4454 174.79 30.4201 175 30.4201ZM175.54 32.1035L175.138 32.1175C174.808 32.1288 174.577 32.185 174.444 32.2861C174.311 32.3873 174.244 32.5259 174.244 32.702C174.244 32.8557 174.29 32.9681 174.382 33.0393C174.474 33.1086 174.594 33.1433 174.744 33.1433C174.973 33.1433 175.162 33.0786 175.312 32.9494C175.464 32.8182 175.54 32.6262 175.54 32.3732V32.1035ZM178.372 33.6463C178.078 33.6463 177.823 33.5892 177.608 33.4749C177.392 33.3606 177.227 33.1854 177.111 32.9494C176.994 32.7133 176.936 32.4135 176.936 32.0501C176.936 31.6716 177 31.3625 177.127 31.1227C177.255 30.8829 177.431 30.7058 177.656 30.5915C177.882 30.4773 178.142 30.4201 178.434 30.4201C178.62 30.4201 178.787 30.4389 178.937 30.4763C179.089 30.5119 179.217 30.556 179.322 30.6084L179.125 31.1367C179.011 31.0899 178.894 31.0506 178.774 31.0187C178.654 30.9869 178.539 30.9709 178.429 30.9709C178.247 30.9709 178.095 31.0112 177.973 31.0918C177.853 31.1723 177.763 31.2922 177.703 31.4515C177.645 31.6107 177.616 31.8084 177.616 32.0444C177.616 32.273 177.646 32.466 177.706 32.6234C177.766 32.7789 177.855 32.8969 177.973 32.9775C178.091 33.0561 178.237 33.0955 178.409 33.0955C178.579 33.0955 178.732 33.0749 178.867 33.0337C179.002 32.9924 179.129 32.939 179.249 32.8735V33.4468C179.131 33.5142 179.005 33.5639 178.87 33.5957C178.735 33.6294 178.569 33.6463 178.372 33.6463ZM181.219 30.4201C181.496 30.4201 181.734 30.4773 181.933 30.5915C182.132 30.7058 182.284 30.8679 182.391 31.0777C182.498 31.2876 182.551 31.5386 182.551 31.8309V32.185H180.474C180.482 32.4866 180.562 32.7189 180.716 32.8819C180.872 33.0449 181.089 33.1264 181.368 33.1264C181.567 33.1264 181.745 33.1077 181.902 33.0702C182.061 33.0308 182.225 32.9737 182.394 32.8988V33.4355C182.238 33.5086 182.08 33.562 181.919 33.5957C181.758 33.6294 181.565 33.6463 181.34 33.6463C181.035 33.6463 180.766 33.5873 180.533 33.4692C180.303 33.3493 180.122 33.1714 179.991 32.9353C179.862 32.6992 179.797 32.406 179.797 32.0557C179.797 31.7072 179.856 31.4112 179.974 31.1677C180.092 30.9241 180.258 30.7386 180.472 30.6112C180.685 30.4838 180.934 30.4201 181.219 30.4201ZM181.219 30.9175C181.011 30.9175 180.843 30.985 180.713 31.1199C180.586 31.2548 180.511 31.4524 180.488 31.7128H181.905C181.903 31.5573 181.877 31.4196 181.826 31.2997C181.777 31.1798 181.702 31.0862 181.601 31.0187C181.502 30.9513 181.375 30.9175 181.219 30.9175Z" fill="white"/>
<path d="M22.7218 47.9616L31.1751 19.1247L40.7074 47.9616H50.2398L57.4341 19.1247L67.8657 47.9616H82.3741L65.5875 2.03833H52.2782L45.3837 28.4172L36.5707 2.03833H22.7218L7.55396 47.9616H22.7218Z" fill="white"/>
<path d="M90.5275 37.2302L102.027 2.03833H109.712L95.3024 47.9616H86.7166L69.3044 2.03833H77.1582L90.5275 37.2302Z" fill="white"/>
</svg>
