<svg width="200" height="50" viewBox="0 0 200 50" fill="none" xmlns="http://www.w3.org/2000/svg">
<path d="M126.847 22.5898L125.727 18.6443H125.693C125.703 18.7467 125.713 18.8853 125.723 19.0602C125.736 19.235 125.747 19.4236 125.757 19.626C125.767 19.8283 125.772 20.0231 125.772 20.2105V22.5898H124.46V17.1117H126.431L127.574 21.0011H127.604L128.725 17.1117H130.699V22.5898H129.339V20.188C129.339 20.0157 129.342 19.8308 129.347 19.6335C129.354 19.4336 129.362 19.2463 129.369 19.0714C129.379 18.8941 129.388 18.7542 129.395 18.6517H129.362L128.256 22.5898H126.847ZM135.848 20.4578C135.848 20.8125 135.799 21.1273 135.701 21.402C135.604 21.6768 135.463 21.9079 135.278 22.0952C135.093 22.2826 134.87 22.425 134.607 22.5224C134.345 22.6173 134.049 22.6648 133.719 22.6648C133.412 22.6648 133.13 22.6173 132.872 22.5224C132.618 22.425 132.395 22.2826 132.206 22.0952C132.016 21.9079 131.868 21.6768 131.763 21.402C131.661 21.1273 131.61 20.8125 131.61 20.4578C131.61 19.9882 131.695 19.591 131.865 19.2663C132.037 18.9415 132.282 18.6942 132.599 18.5243C132.919 18.3545 133.3 18.2696 133.742 18.2696C134.149 18.2696 134.511 18.3545 134.828 18.5243C135.146 18.6942 135.394 18.9415 135.574 19.2663C135.756 19.591 135.848 19.9882 135.848 20.4578ZM133.097 20.4578C133.097 20.7001 133.119 20.9049 133.161 21.0723C133.203 21.2372 133.271 21.3633 133.363 21.4508C133.458 21.5357 133.582 21.5782 133.734 21.5782C133.887 21.5782 134.008 21.5357 134.098 21.4508C134.188 21.3633 134.253 21.2372 134.293 21.0723C134.335 20.9049 134.356 20.7001 134.356 20.4578C134.356 20.2155 134.335 20.0132 134.293 19.8508C134.253 19.6884 134.186 19.566 134.094 19.4836C134.004 19.4011 133.882 19.3599 133.727 19.3599C133.504 19.3599 133.343 19.4524 133.243 19.6372C133.146 19.8221 133.097 20.0956 133.097 20.4578ZM138.767 21.507C138.899 21.507 139.02 21.4932 139.13 21.4657C139.24 21.4383 139.355 21.4033 139.475 21.3608V22.4287C139.315 22.4987 139.145 22.5549 138.965 22.5973C138.788 22.6423 138.56 22.6648 138.283 22.6648C138.008 22.6648 137.766 22.6223 137.556 22.5374C137.346 22.45 137.183 22.3001 137.065 22.0877C136.95 21.8729 136.893 21.5744 136.893 21.1922V19.4424H136.38V18.8466L137.032 18.3857L137.41 17.4939H138.369V18.3445H139.411V19.4424H138.369V21.0948C138.369 21.2322 138.404 21.3358 138.474 21.4058C138.544 21.4732 138.642 21.507 138.767 21.507ZM144.271 20.4578C144.271 20.8125 144.222 21.1273 144.125 21.402C144.027 21.6768 143.886 21.9079 143.701 22.0952C143.516 22.2826 143.293 22.425 143.031 22.5224C142.768 22.6173 142.472 22.6648 142.143 22.6648C141.835 22.6648 141.553 22.6173 141.296 22.5224C141.041 22.425 140.819 22.2826 140.629 22.0952C140.439 21.9079 140.292 21.6768 140.187 21.402C140.084 21.1273 140.033 20.8125 140.033 20.4578C140.033 19.9882 140.118 19.591 140.288 19.2663C140.46 18.9415 140.705 18.6942 141.022 18.5243C141.342 18.3545 141.723 18.2696 142.165 18.2696C142.572 18.2696 142.934 18.3545 143.252 18.5243C143.569 18.6942 143.817 18.9415 143.997 19.2663C144.18 19.591 144.271 19.9882 144.271 20.4578ZM141.521 20.4578C141.521 20.7001 141.542 20.9049 141.584 21.0723C141.627 21.2372 141.694 21.3633 141.787 21.4508C141.882 21.5357 142.005 21.5782 142.158 21.5782C142.31 21.5782 142.431 21.5357 142.521 21.4508C142.611 21.3633 142.676 21.2372 142.716 21.0723C142.758 20.9049 142.78 20.7001 142.78 20.4578C142.78 20.2155 142.758 20.0132 142.716 19.8508C142.676 19.6884 142.61 19.566 142.517 19.4836C142.427 19.4011 142.305 19.3599 142.15 19.3599C141.928 19.3599 141.767 19.4524 141.667 19.6372C141.569 19.8221 141.521 20.0956 141.521 20.4578ZM149.929 17.1117L148.134 22.5898H146.392L144.604 17.1117H146.268L147.014 19.8883C147.041 19.9932 147.072 20.1281 147.107 20.2929C147.145 20.4553 147.179 20.6177 147.209 20.78C147.241 20.9424 147.261 21.0748 147.268 21.1772C147.278 21.0748 147.297 20.9437 147.325 20.7838C147.352 20.6239 147.382 20.464 147.415 20.3042C147.45 20.1418 147.482 20.0082 147.512 19.9032L148.273 17.1117H149.929ZM152.349 18.2696C152.762 18.2696 153.118 18.342 153.417 18.4869C153.717 18.6293 153.948 18.8441 154.11 19.1314C154.273 19.4186 154.354 19.7783 154.354 20.2105V20.8625H151.735C151.747 21.0848 151.83 21.2672 151.982 21.4095C152.137 21.5519 152.364 21.6231 152.664 21.6231C152.929 21.6231 153.171 21.5969 153.391 21.5444C153.613 21.492 153.842 21.4108 154.077 21.3009V22.3538C153.872 22.4612 153.648 22.5399 153.406 22.5898C153.164 22.6398 152.858 22.6648 152.488 22.6648C152.061 22.6648 151.679 22.5886 151.341 22.4362C151.004 22.2838 150.738 22.0478 150.543 21.728C150.351 21.4083 150.255 20.9974 150.255 20.4953C150.255 19.9857 150.342 19.5673 150.517 19.24C150.692 18.9103 150.937 18.6667 151.252 18.5094C151.566 18.3495 151.932 18.2696 152.349 18.2696ZM152.402 19.2663C152.229 19.2663 152.085 19.3212 151.967 19.4311C151.852 19.5385 151.785 19.7084 151.765 19.9407H153.024C153.021 19.8158 152.996 19.7022 152.949 19.5997C152.901 19.4973 152.832 19.4161 152.739 19.3562C152.649 19.2962 152.537 19.2663 152.402 19.2663ZM157.839 18.2696C158.276 18.2696 158.633 18.3932 158.91 18.6405C159.188 18.8878 159.326 19.2837 159.326 19.8283V22.5898H157.861V20.2742C157.861 19.9919 157.82 19.7796 157.738 19.6372C157.658 19.4923 157.528 19.4199 157.348 19.4199C157.071 19.4199 156.885 19.5335 156.79 19.7609C156.695 19.9857 156.647 20.3092 156.647 20.7313V22.5898H155.182V18.3445H156.288L156.486 18.9065H156.542C156.632 18.7716 156.74 18.6567 156.865 18.5618C156.989 18.4669 157.133 18.3945 157.295 18.3445C157.458 18.2945 157.639 18.2696 157.839 18.2696ZM161.642 22.6648C161.205 22.6648 160.845 22.4787 160.563 22.1065C160.281 21.7343 160.139 21.1897 160.139 20.4728C160.139 19.7484 160.284 19.2001 160.574 18.8279C160.864 18.4557 161.239 18.2696 161.698 18.2696C161.888 18.2696 162.052 18.297 162.189 18.352C162.326 18.4069 162.445 18.4819 162.545 18.5768C162.647 18.6692 162.736 18.7741 162.811 18.8916H162.841C162.824 18.7841 162.807 18.6368 162.792 18.4494C162.777 18.2596 162.77 18.0747 162.77 17.8948V16.7595H164.246V22.5898H163.141L162.826 22.054H162.77C162.702 22.1664 162.617 22.2689 162.515 22.3613C162.415 22.4537 162.293 22.5274 162.148 22.5823C162.005 22.6373 161.837 22.6648 161.642 22.6648ZM162.241 21.507C162.476 21.507 162.641 21.4333 162.736 21.2859C162.834 21.136 162.886 20.9087 162.893 20.6039V20.4878C162.893 20.153 162.846 19.897 162.751 19.7196C162.659 19.5398 162.484 19.4499 162.226 19.4499C162.052 19.4499 161.907 19.5348 161.792 19.7047C161.677 19.8745 161.619 20.1381 161.619 20.4953C161.619 20.8475 161.677 21.1048 161.792 21.2672C161.909 21.427 162.059 21.507 162.241 21.507ZM169.316 20.4578C169.316 20.8125 169.267 21.1273 169.17 21.402C169.072 21.6768 168.931 21.9079 168.746 22.0952C168.561 22.2826 168.338 22.425 168.076 22.5224C167.813 22.6173 167.517 22.6648 167.188 22.6648C166.88 22.6648 166.598 22.6173 166.341 22.5224C166.086 22.425 165.864 22.2826 165.674 22.0952C165.484 21.9079 165.337 21.6768 165.232 21.402C165.129 21.1273 165.078 20.8125 165.078 20.4578C165.078 19.9882 165.163 19.591 165.333 19.2663C165.505 18.9415 165.75 18.6942 166.067 18.5243C166.387 18.3545 166.768 18.2696 167.21 18.2696C167.617 18.2696 167.979 18.3545 168.297 18.5243C168.614 18.6942 168.862 18.9415 169.042 19.2663C169.225 19.591 169.316 19.9882 169.316 20.4578ZM166.566 20.4578C166.566 20.7001 166.587 20.9049 166.629 21.0723C166.672 21.2372 166.739 21.3633 166.832 21.4508C166.926 21.5357 167.05 21.5782 167.203 21.5782C167.355 21.5782 167.476 21.5357 167.566 21.4508C167.656 21.3633 167.721 21.2372 167.761 21.0723C167.803 20.9049 167.825 20.7001 167.825 20.4578C167.825 20.2155 167.803 20.0132 167.761 19.8508C167.721 19.6884 167.655 19.566 167.562 19.4836C167.472 19.4011 167.35 19.3599 167.195 19.3599C166.973 19.3599 166.812 19.4524 166.712 19.6372C166.614 19.8221 166.566 20.0956 166.566 20.4578ZM172.718 18.2696C172.798 18.2696 172.882 18.2758 172.969 18.2883C173.057 18.2983 173.122 18.307 173.164 18.3145L173.033 19.6972C172.985 19.6847 172.924 19.6747 172.849 19.6672C172.774 19.6572 172.669 19.6522 172.535 19.6522C172.442 19.6522 172.343 19.6609 172.238 19.6784C172.134 19.6959 172.034 19.7334 171.939 19.7908C171.846 19.8458 171.77 19.9307 171.71 20.0456C171.65 20.158 171.62 20.3104 171.62 20.5028V22.5898H170.155V18.3445H171.246L171.474 19.0227H171.545C171.623 18.8828 171.721 18.7567 171.841 18.6443C171.964 18.5293 172.1 18.4382 172.25 18.3707C172.402 18.3033 172.558 18.2696 172.718 18.2696ZM117.384 33.5898L116.982 32.4489H115.411L115.01 33.5898H114.299L115.827 29.4644H116.575L118.101 33.5898H117.384ZM116.808 31.87L116.418 30.7459C116.403 30.6972 116.381 30.6288 116.353 30.5407C116.325 30.4508 116.297 30.3599 116.269 30.2681C116.24 30.1745 116.217 30.0958 116.198 30.0321C116.18 30.1089 116.156 30.1951 116.128 30.2906C116.102 30.3843 116.076 30.4723 116.049 30.5548C116.025 30.6372 116.006 30.7009 115.993 30.7459L115.6 31.87H116.808ZM121.288 30.4789V33.5898H120.768L120.678 33.1711H120.641C120.576 33.2779 120.492 33.3669 120.391 33.4381C120.29 33.5074 120.178 33.5589 120.054 33.5927C119.93 33.6283 119.8 33.646 119.663 33.646C119.429 33.646 119.229 33.6067 119.062 33.528C118.897 33.4475 118.771 33.3238 118.683 33.1571C118.595 32.9903 118.551 32.7749 118.551 32.5107V30.4789H119.214V32.3871C119.214 32.6287 119.262 32.8095 119.36 32.9294C119.459 33.0493 119.613 33.1093 119.821 33.1093C120.021 33.1093 120.18 33.0681 120.298 32.9856C120.417 32.9032 120.5 32.7814 120.549 32.6203C120.599 32.4592 120.624 32.2615 120.624 32.0273V30.4789H121.288ZM123.393 33.1121C123.479 33.1121 123.564 33.1046 123.648 33.0896C123.733 33.0728 123.809 33.0531 123.879 33.0306V33.5308C123.806 33.5627 123.711 33.5898 123.595 33.6123C123.479 33.6348 123.358 33.646 123.232 33.646C123.056 33.646 122.898 33.617 122.757 33.5589C122.617 33.499 122.505 33.3969 122.423 33.2526C122.341 33.1084 122.299 32.9088 122.299 32.654V30.9819H121.875V30.6869L122.33 30.4536L122.547 29.7876H122.963V30.4789H123.853V30.9819H122.963V32.6456C122.963 32.803 123.002 32.9201 123.081 32.9969C123.159 33.0737 123.263 33.1121 123.393 33.1121ZM127.265 32.0273C127.265 32.2859 127.231 32.5154 127.164 32.7159C127.096 32.9163 126.998 33.0859 126.869 33.2245C126.74 33.3613 126.584 33.4662 126.402 33.5393C126.221 33.6105 126.015 33.646 125.787 33.646C125.573 33.646 125.378 33.6105 125.2 33.5393C125.022 33.4662 124.867 33.3613 124.736 33.2245C124.607 33.0859 124.506 32.9163 124.435 32.7159C124.364 32.5154 124.328 32.2859 124.328 32.0273C124.328 31.6845 124.387 31.3941 124.505 31.1562C124.625 30.9164 124.796 30.7337 125.017 30.6082C125.238 30.4826 125.501 30.4199 125.807 30.4199C126.093 30.4199 126.346 30.4826 126.565 30.6082C126.785 30.7337 126.956 30.9164 127.08 31.1562C127.203 31.396 127.265 31.6864 127.265 32.0273ZM125.008 32.0273C125.008 32.254 125.036 32.4479 125.09 32.6091C125.146 32.7702 125.232 32.8938 125.349 32.98C125.465 33.0643 125.615 33.1065 125.798 33.1065C125.982 33.1065 126.132 33.0643 126.248 32.98C126.364 32.8938 126.449 32.7702 126.504 32.6091C126.558 32.4479 126.585 32.254 126.585 32.0273C126.585 31.8007 126.558 31.6086 126.504 31.4512C126.449 31.292 126.364 31.1712 126.248 31.0887C126.132 31.0044 125.981 30.9623 125.795 30.9623C125.522 30.9623 125.322 31.0541 125.197 31.2377C125.071 31.4213 125.008 31.6845 125.008 32.0273ZM129.865 33.5898L128.681 30.1585H128.656C128.662 30.2353 128.668 30.3403 128.676 30.4733C128.683 30.6063 128.69 30.7487 128.696 30.9004C128.701 31.0522 128.704 31.1974 128.704 31.336V33.5898H128.091V29.4813H129.038L130.177 32.7608H130.193L131.371 29.4813H132.315V33.5898H131.672V31.3023C131.672 31.1768 131.673 31.0409 131.677 30.8948C131.683 30.7487 131.688 30.61 131.694 30.4789C131.702 30.3478 131.707 30.2428 131.711 30.1641H131.688L130.46 33.5898H129.865ZM136.084 32.0273C136.084 32.2859 136.05 32.5154 135.982 32.7159C135.915 32.9163 135.817 33.0859 135.687 33.2245C135.558 33.3613 135.403 33.4662 135.221 33.5393C135.039 33.6105 134.834 33.646 134.605 33.646C134.392 33.646 134.196 33.6105 134.018 33.5393C133.84 33.4662 133.686 33.3613 133.554 33.2245C133.425 33.0859 133.325 32.9163 133.254 32.7159C133.183 32.5154 133.147 32.2859 133.147 32.0273C133.147 31.6845 133.206 31.3941 133.324 31.1562C133.444 30.9164 133.614 30.7337 133.835 30.6082C134.057 30.4826 134.32 30.4199 134.625 30.4199C134.912 30.4199 135.165 30.4826 135.384 30.6082C135.603 30.7337 135.775 30.9164 135.898 31.1562C136.022 31.396 136.084 31.6864 136.084 32.0273ZM133.827 32.0273C133.827 32.254 133.854 32.4479 133.909 32.6091C133.965 32.7702 134.051 32.8938 134.167 32.98C134.283 33.0643 134.433 33.1065 134.617 33.1065C134.8 33.1065 134.95 33.0643 135.066 32.98C135.183 32.8938 135.268 32.7702 135.322 32.6091C135.376 32.4479 135.404 32.254 135.404 32.0273C135.404 31.8007 135.376 31.6086 135.322 31.4512C135.268 31.292 135.183 31.1712 135.066 31.0887C134.95 31.0044 134.799 30.9623 134.614 30.9623C134.34 30.9623 134.141 31.0541 134.015 31.2377C133.89 31.4213 133.827 31.6845 133.827 32.0273ZM138 33.1121C138.086 33.1121 138.172 33.1046 138.256 33.0896C138.34 33.0728 138.417 33.0531 138.486 33.0306V33.5308C138.413 33.5627 138.319 33.5898 138.203 33.6123C138.086 33.6348 137.966 33.646 137.84 33.646C137.664 33.646 137.506 33.617 137.365 33.5589C137.225 33.499 137.113 33.3969 137.031 33.2526C136.948 33.1084 136.907 32.9088 136.907 32.654V30.9819H136.483V30.6869L136.938 30.4536L137.154 29.7876H137.57V30.4789H138.461V30.9819H137.57V32.6456C137.57 32.803 137.61 32.9201 137.688 32.9969C137.767 33.0737 137.871 33.1121 138 33.1121ZM139.779 30.4789V33.5898H139.119V30.4789H139.779ZM139.453 29.2873C139.554 29.2873 139.641 29.3145 139.715 29.3688C139.789 29.4232 139.827 29.5169 139.827 29.6499C139.827 29.781 139.789 29.8747 139.715 29.9309C139.641 29.9852 139.554 30.0124 139.453 30.0124C139.348 30.0124 139.259 29.9852 139.186 29.9309C139.115 29.8747 139.079 29.781 139.079 29.6499C139.079 29.5169 139.115 29.4232 139.186 29.3688C139.259 29.3145 139.348 29.2873 139.453 29.2873ZM141.437 33.5898L140.254 30.4789H140.954L141.595 32.3056C141.636 32.4217 141.673 32.5472 141.707 32.6821C141.741 32.817 141.764 32.9304 141.777 33.0222H141.8C141.813 32.9266 141.838 32.8123 141.876 32.6793C141.913 32.5444 141.951 32.4198 141.991 32.3056L142.632 30.4789H143.328L142.145 33.5898H141.437ZM145.04 30.4199C145.317 30.4199 145.555 30.477 145.754 30.5913C145.952 30.7056 146.105 30.8676 146.212 31.0775C146.319 31.2873 146.372 31.5384 146.372 31.8306V32.1847H144.295C144.303 32.4864 144.383 32.7187 144.537 32.8817C144.692 33.0447 144.91 33.1262 145.189 33.1262C145.387 33.1262 145.565 33.1074 145.723 33.0699C145.882 33.0306 146.046 32.9735 146.215 32.8985V33.4353C146.059 33.5083 145.901 33.5617 145.74 33.5955C145.579 33.6292 145.386 33.646 145.161 33.646C144.855 33.646 144.587 33.587 144.354 33.469C144.124 33.3491 143.943 33.1711 143.812 32.9351C143.683 32.699 143.618 32.4058 143.618 32.0554C143.618 31.707 143.677 31.411 143.795 31.1674C143.913 30.9239 144.079 30.7384 144.292 30.611C144.506 30.4836 144.755 30.4199 145.04 30.4199ZM145.04 30.9173C144.832 30.9173 144.663 30.9847 144.534 31.1196C144.407 31.2545 144.332 31.4522 144.309 31.7126H145.726C145.724 31.5571 145.698 31.4194 145.647 31.2995C145.598 31.1796 145.523 31.0859 145.422 31.0185C145.323 30.951 145.195 30.9173 145.04 30.9173ZM150.452 33.5898L149.269 30.1585H149.244C149.25 30.2353 149.256 30.3403 149.264 30.4733C149.271 30.6063 149.278 30.7487 149.283 30.9004C149.289 31.0522 149.292 31.1974 149.292 31.336V33.5898H148.679V29.4813H149.626L150.764 32.7608H150.781L151.959 29.4813H152.903V33.5898H152.259V31.3023C152.259 31.1768 152.261 31.0409 152.265 30.8948C152.271 30.7487 152.276 30.61 152.282 30.4789C152.289 30.3478 152.295 30.2428 152.299 30.1641H152.276L151.048 33.5898H150.452ZM155.137 30.4199C155.531 30.4199 155.828 30.507 156.028 30.6812C156.23 30.8555 156.332 31.1271 156.332 31.4962V33.5898H155.862L155.736 33.1486H155.713C155.625 33.261 155.534 33.3538 155.441 33.4268C155.347 33.4999 155.238 33.5542 155.115 33.5898C154.993 33.6273 154.844 33.646 154.668 33.646C154.482 33.646 154.317 33.6123 154.17 33.5449C154.024 33.4756 153.909 33.3706 153.825 33.2301C153.74 33.0896 153.698 32.9116 153.698 32.6962C153.698 32.3758 153.817 32.1351 154.055 31.9739C154.295 31.8128 154.657 31.7238 155.14 31.707L155.68 31.6873V31.5243C155.68 31.3089 155.629 31.1552 155.528 31.0634C155.429 30.9716 155.288 30.9257 155.106 30.9257C154.951 30.9257 154.8 30.9482 154.654 30.9932C154.508 31.0381 154.365 31.0934 154.227 31.159L154.013 30.6925C154.165 30.6119 154.337 30.5463 154.53 30.4958C154.725 30.4452 154.927 30.4199 155.137 30.4199ZM155.677 32.1032L155.275 32.1173C154.945 32.1285 154.714 32.1847 154.581 32.2859C154.448 32.3871 154.381 32.5257 154.381 32.7018C154.381 32.8554 154.427 32.9678 154.519 33.039C154.611 33.1084 154.732 33.143 154.881 33.143C155.11 33.143 155.299 33.0784 155.449 32.9491C155.601 32.818 155.677 32.6259 155.677 32.373V32.1032ZM158.833 30.4199C158.885 30.4199 158.942 30.4227 159.004 30.4283C159.066 30.4339 159.119 30.4414 159.164 30.4508L159.102 31.069C159.063 31.0578 159.014 31.0494 158.956 31.0438C158.9 31.0381 158.85 31.0353 158.805 31.0353C158.687 31.0353 158.574 31.055 158.467 31.0943C158.361 31.1318 158.266 31.1899 158.183 31.2686C158.101 31.3454 158.036 31.4419 157.99 31.558C157.943 31.6742 157.919 31.8091 157.919 31.9627V33.5898H157.256V30.4789H157.773L157.863 31.0269H157.894C157.956 30.9164 158.033 30.8152 158.124 30.7234C158.216 30.6316 158.321 30.5585 158.439 30.5042C158.559 30.448 158.69 30.4199 158.833 30.4199ZM160.401 29.2171V31.3304C160.401 31.4259 160.397 31.5309 160.39 31.6451C160.382 31.7576 160.375 31.8634 160.367 31.9627H160.381C160.43 31.8971 160.488 31.8203 160.555 31.7323C160.625 31.6442 160.69 31.5674 160.752 31.5018L161.702 30.4789H162.461L161.216 31.8166L162.542 33.5898H161.767L160.772 32.2241L160.401 32.5416V33.5898H159.74V29.2171H160.401ZM164.279 30.4199C164.556 30.4199 164.794 30.477 164.993 30.5913C165.191 30.7056 165.344 30.8676 165.451 31.0775C165.558 31.2873 165.611 31.5384 165.611 31.8306V32.1847H163.534C163.542 32.4864 163.622 32.7187 163.776 32.8817C163.931 33.0447 164.149 33.1262 164.428 33.1262C164.626 33.1262 164.804 33.1074 164.962 33.0699C165.121 33.0306 165.285 32.9735 165.454 32.8985V33.4353C165.298 33.5083 165.14 33.5617 164.979 33.5955C164.818 33.6292 164.625 33.646 164.4 33.646C164.094 33.646 163.826 33.587 163.593 33.469C163.363 33.3491 163.182 33.1711 163.051 32.9351C162.922 32.699 162.857 32.4058 162.857 32.0554C162.857 31.707 162.916 31.411 163.034 31.1674C163.152 30.9239 163.318 30.7384 163.531 30.611C163.745 30.4836 163.994 30.4199 164.279 30.4199ZM164.279 30.9173C164.071 30.9173 163.902 30.9847 163.773 31.1196C163.646 31.2545 163.571 31.4522 163.548 31.7126H164.965C164.963 31.5571 164.937 31.4194 164.886 31.2995C164.837 31.1796 164.762 31.0859 164.661 31.0185C164.562 30.951 164.434 30.9173 164.279 30.9173ZM167.514 33.1121C167.6 33.1121 167.685 33.1046 167.769 33.0896C167.854 33.0728 167.93 33.0531 168 33.0306V33.5308C167.927 33.5627 167.832 33.5898 167.716 33.6123C167.6 33.6348 167.479 33.646 167.353 33.646C167.177 33.646 167.019 33.617 166.878 33.5589C166.738 33.499 166.626 33.3969 166.544 33.2526C166.462 33.1084 166.42 32.9088 166.42 32.654V30.9819H165.996V30.6869L166.451 30.4536L166.668 29.7876H167.084V30.4789H167.974V30.9819H167.084V32.6456C167.084 32.803 167.123 32.9201 167.202 32.9969C167.28 33.0737 167.384 33.1121 167.514 33.1121ZM169.894 29.4813C170.424 29.4813 170.811 29.5899 171.054 29.8072C171.298 30.0246 171.42 30.329 171.42 30.7206C171.42 30.8986 171.392 31.0681 171.335 31.2292C171.281 31.3885 171.191 31.5299 171.066 31.6536C170.94 31.7754 170.774 31.8718 170.568 31.943C170.364 32.0142 170.112 32.0498 169.812 32.0498H169.374V33.5898H168.699V29.4813H169.894ZM169.849 30.0405H169.374V31.4878H169.742C169.954 31.4878 170.134 31.4634 170.282 31.4147C170.43 31.3641 170.542 31.2845 170.619 31.1758C170.696 31.0672 170.734 30.9239 170.734 30.7459C170.734 30.5079 170.662 30.3309 170.518 30.2147C170.375 30.0986 170.152 30.0405 169.849 30.0405ZM172.836 33.5898H172.173V29.2171H172.836V33.5898ZM175 30.4199C175.393 30.4199 175.69 30.507 175.891 30.6812C176.093 30.8555 176.194 31.1271 176.194 31.4962V33.5898H175.725L175.599 33.1486H175.576C175.488 33.261 175.397 33.3538 175.304 33.4268C175.21 33.4999 175.101 33.5542 174.978 33.5898C174.856 33.6273 174.707 33.646 174.531 33.646C174.345 33.646 174.179 33.6123 174.033 33.5449C173.887 33.4756 173.772 33.3706 173.688 33.2301C173.603 33.0896 173.561 32.9116 173.561 32.6962C173.561 32.3758 173.68 32.1351 173.918 31.9739C174.158 31.8128 174.519 31.7238 175.003 31.707L175.542 31.6873V31.5243C175.542 31.3089 175.492 31.1552 175.391 31.0634C175.291 30.9716 175.151 30.9257 174.969 30.9257C174.814 30.9257 174.663 30.9482 174.517 30.9932C174.371 31.0381 174.228 31.0934 174.09 31.159L173.876 30.6925C174.028 30.6119 174.2 30.5463 174.393 30.4958C174.588 30.4452 174.79 30.4199 175 30.4199ZM175.54 32.1032L175.138 32.1173C174.808 32.1285 174.577 32.1847 174.444 32.2859C174.311 32.3871 174.244 32.5257 174.244 32.7018C174.244 32.8554 174.29 32.9678 174.382 33.039C174.474 33.1084 174.594 33.143 174.744 33.143C174.973 33.143 175.162 33.0784 175.312 32.9491C175.464 32.818 175.54 32.6259 175.54 32.373V32.1032ZM178.372 33.646C178.078 33.646 177.823 33.5889 177.608 33.4746C177.392 33.3603 177.227 33.1852 177.111 32.9491C176.994 32.713 176.936 32.4133 176.936 32.0498C176.936 31.6714 177 31.3623 177.127 31.1224C177.255 30.8826 177.431 30.7056 177.656 30.5913C177.882 30.477 178.142 30.4199 178.434 30.4199C178.62 30.4199 178.787 30.4386 178.937 30.4761C179.089 30.5117 179.217 30.5557 179.322 30.6082L179.125 31.1365C179.011 31.0897 178.894 31.0503 178.774 31.0185C178.654 30.9866 178.539 30.9707 178.429 30.9707C178.247 30.9707 178.095 31.011 177.973 31.0915C177.853 31.1721 177.763 31.292 177.703 31.4512C177.645 31.6105 177.616 31.8081 177.616 32.0442C177.616 32.2728 177.646 32.4657 177.706 32.6231C177.766 32.7786 177.855 32.8966 177.973 32.9772C178.091 33.0559 178.237 33.0952 178.409 33.0952C178.579 33.0952 178.732 33.0746 178.867 33.0334C179.002 32.9922 179.129 32.9388 179.249 32.8732V33.4465C179.131 33.514 179.005 33.5636 178.87 33.5955C178.735 33.6292 178.569 33.646 178.372 33.646ZM181.219 30.4199C181.496 30.4199 181.734 30.477 181.933 30.5913C182.132 30.7056 182.284 30.8676 182.391 31.0775C182.498 31.2873 182.551 31.5384 182.551 31.8306V32.1847H180.474C180.482 32.4864 180.562 32.7187 180.716 32.8817C180.872 33.0447 181.089 33.1262 181.368 33.1262C181.567 33.1262 181.745 33.1074 181.902 33.0699C182.061 33.0306 182.225 32.9735 182.394 32.8985V33.4353C182.238 33.5083 182.08 33.5617 181.919 33.5955C181.758 33.6292 181.565 33.646 181.34 33.646C181.035 33.646 180.766 33.587 180.533 33.469C180.303 33.3491 180.122 33.1711 179.991 32.9351C179.862 32.699 179.797 32.4058 179.797 32.0554C179.797 31.707 179.856 31.411 179.974 31.1674C180.092 30.9239 180.258 30.7384 180.472 30.611C180.685 30.4836 180.934 30.4199 181.219 30.4199ZM181.219 30.9173C181.011 30.9173 180.843 30.9847 180.713 31.1196C180.586 31.2545 180.511 31.4522 180.488 31.7126H181.905C181.903 31.5571 181.877 31.4194 181.826 31.2995C181.777 31.1796 181.702 31.0859 181.601 31.0185C181.502 30.951 181.375 30.9173 181.219 30.9173Z" fill="black"/>
<path d="M22.7218 47.9613L31.1751 19.1244L40.7074 47.9613H50.2398L57.4341 19.1244L67.8657 47.9613H82.3741L65.5875 2.03809H52.2782L45.3837 28.417L36.5707 2.03809H22.7218L7.55396 47.9613H22.7218Z" fill="black"/>
<path d="M90.5275 37.2299L102.027 2.03809H109.712L95.3024 47.9613H86.7166L69.3044 2.03809H77.1582L90.5275 37.2299Z" fill="black"/>
</svg>
