<svg width="200" height="50" viewBox="0 0 200 50" fill="none" xmlns="http://www.w3.org/2000/svg">
<path d="M126.847 18.5898L125.727 14.6443H125.693C125.703 14.7467 125.713 14.8853 125.723 15.0602C125.736 15.235 125.747 15.4236 125.757 15.626C125.767 15.8283 125.772 16.0231 125.772 16.2105V18.5898H124.46V13.1117H126.431L127.574 17.0011H127.604L128.725 13.1117H130.699V18.5898H129.339V16.188C129.339 16.0157 129.342 15.8308 129.347 15.6335C129.354 15.4336 129.362 15.2463 129.369 15.0714C129.379 14.8941 129.388 14.7542 129.395 14.6517H129.362L128.256 18.5898H126.847ZM135.848 16.4578C135.848 16.8125 135.799 17.1273 135.701 17.402C135.604 17.6768 135.463 17.9079 135.278 18.0952C135.093 18.2826 134.87 18.425 134.607 18.5224C134.345 18.6173 134.049 18.6648 133.719 18.6648C133.412 18.6648 133.13 18.6173 132.872 18.5224C132.618 18.425 132.395 18.2826 132.206 18.0952C132.016 17.9079 131.868 17.6768 131.763 17.402C131.661 17.1273 131.61 16.8125 131.61 16.4578C131.61 15.9882 131.695 15.591 131.865 15.2663C132.037 14.9415 132.282 14.6942 132.599 14.5243C132.919 14.3545 133.3 14.2696 133.742 14.2696C134.149 14.2696 134.511 14.3545 134.828 14.5243C135.146 14.6942 135.394 14.9415 135.574 15.2663C135.756 15.591 135.848 15.9882 135.848 16.4578ZM133.097 16.4578C133.097 16.7001 133.119 16.9049 133.161 17.0723C133.203 17.2372 133.271 17.3633 133.363 17.4508C133.458 17.5357 133.582 17.5782 133.734 17.5782C133.887 17.5782 134.008 17.5357 134.098 17.4508C134.188 17.3633 134.253 17.2372 134.293 17.0723C134.335 16.9049 134.356 16.7001 134.356 16.4578C134.356 16.2155 134.335 16.0132 134.293 15.8508C134.253 15.6884 134.186 15.566 134.094 15.4836C134.004 15.4011 133.882 15.3599 133.727 15.3599C133.504 15.3599 133.343 15.4524 133.243 15.6372C133.146 15.8221 133.097 16.0956 133.097 16.4578ZM138.767 17.507C138.899 17.507 139.02 17.4932 139.13 17.4657C139.24 17.4383 139.355 17.4033 139.475 17.3608V18.4287C139.315 18.4987 139.145 18.5549 138.965 18.5973C138.788 18.6423 138.56 18.6648 138.283 18.6648C138.008 18.6648 137.766 18.6223 137.556 18.5374C137.346 18.45 137.183 18.3001 137.065 18.0877C136.95 17.8729 136.893 17.5744 136.893 17.1922V15.4424H136.38V14.8466L137.032 14.3857L137.41 13.4939H138.369V14.3445H139.411V15.4424H138.369V17.0948C138.369 17.2322 138.404 17.3358 138.474 17.4058C138.544 17.4732 138.642 17.507 138.767 17.507ZM144.271 16.4578C144.271 16.8125 144.222 17.1273 144.125 17.402C144.027 17.6768 143.886 17.9079 143.701 18.0952C143.516 18.2826 143.293 18.425 143.031 18.5224C142.768 18.6173 142.472 18.6648 142.143 18.6648C141.835 18.6648 141.553 18.6173 141.296 18.5224C141.041 18.425 140.819 18.2826 140.629 18.0952C140.439 17.9079 140.292 17.6768 140.187 17.402C140.084 17.1273 140.033 16.8125 140.033 16.4578C140.033 15.9882 140.118 15.591 140.288 15.2663C140.46 14.9415 140.705 14.6942 141.022 14.5243C141.342 14.3545 141.723 14.2696 142.165 14.2696C142.572 14.2696 142.934 14.3545 143.252 14.5243C143.569 14.6942 143.817 14.9415 143.997 15.2663C144.18 15.591 144.271 15.9882 144.271 16.4578ZM141.521 16.4578C141.521 16.7001 141.542 16.9049 141.584 17.0723C141.627 17.2372 141.694 17.3633 141.787 17.4508C141.882 17.5357 142.005 17.5782 142.158 17.5782C142.31 17.5782 142.431 17.5357 142.521 17.4508C142.611 17.3633 142.676 17.2372 142.716 17.0723C142.758 16.9049 142.78 16.7001 142.78 16.4578C142.78 16.2155 142.758 16.0132 142.716 15.8508C142.676 15.6884 142.61 15.566 142.517 15.4836C142.427 15.4011 142.305 15.3599 142.15 15.3599C141.928 15.3599 141.767 15.4524 141.667 15.6372C141.569 15.8221 141.521 16.0956 141.521 16.4578ZM149.929 13.1117L148.134 18.5898H146.392L144.604 13.1117H146.268L147.014 15.8883C147.041 15.9932 147.072 16.1281 147.107 16.2929C147.145 16.4553 147.179 16.6177 147.209 16.78C147.241 16.9424 147.261 17.0748 147.268 17.1772C147.278 17.0748 147.297 16.9437 147.325 16.7838C147.352 16.6239 147.382 16.464 147.415 16.3042C147.45 16.1418 147.482 16.0082 147.512 15.9032L148.273 13.1117H149.929ZM152.349 14.2696C152.762 14.2696 153.118 14.342 153.417 14.4869C153.717 14.6293 153.948 14.8441 154.11 15.1314C154.273 15.4186 154.354 15.7783 154.354 16.2105V16.8625H151.735C151.747 17.0848 151.83 17.2672 151.982 17.4095C152.137 17.5519 152.364 17.6231 152.664 17.6231C152.929 17.6231 153.171 17.5969 153.391 17.5444C153.613 17.492 153.842 17.4108 154.077 17.3009V18.3538C153.872 18.4612 153.648 18.5399 153.406 18.5898C153.164 18.6398 152.858 18.6648 152.488 18.6648C152.061 18.6648 151.679 18.5886 151.341 18.4362C151.004 18.2838 150.738 18.0478 150.543 17.728C150.351 17.4083 150.255 16.9974 150.255 16.4953C150.255 15.9857 150.342 15.5673 150.517 15.24C150.692 14.9103 150.937 14.6667 151.252 14.5094C151.566 14.3495 151.932 14.2696 152.349 14.2696ZM152.402 15.2663C152.229 15.2663 152.085 15.3212 151.967 15.4311C151.852 15.5385 151.785 15.7084 151.765 15.9407H153.024C153.021 15.8158 152.996 15.7022 152.949 15.5997C152.901 15.4973 152.832 15.4161 152.739 15.3562C152.649 15.2962 152.537 15.2663 152.402 15.2663ZM157.839 14.2696C158.276 14.2696 158.633 14.3932 158.91 14.6405C159.188 14.8878 159.326 15.2837 159.326 15.8283V18.5898H157.861V16.2742C157.861 15.9919 157.82 15.7796 157.738 15.6372C157.658 15.4923 157.528 15.4199 157.348 15.4199C157.071 15.4199 156.885 15.5335 156.79 15.7609C156.695 15.9857 156.647 16.3092 156.647 16.7313V18.5898H155.182V14.3445H156.288L156.486 14.9065H156.542C156.632 14.7716 156.74 14.6567 156.865 14.5618C156.989 14.4669 157.133 14.3945 157.295 14.3445C157.458 14.2945 157.639 14.2696 157.839 14.2696ZM161.642 18.6648C161.205 18.6648 160.845 18.4787 160.563 18.1065C160.281 17.7343 160.139 17.1897 160.139 16.4728C160.139 15.7484 160.284 15.2001 160.574 14.8279C160.864 14.4557 161.239 14.2696 161.698 14.2696C161.888 14.2696 162.052 14.297 162.189 14.352C162.326 14.4069 162.445 14.4819 162.545 14.5768C162.647 14.6692 162.736 14.7741 162.811 14.8916H162.841C162.824 14.7841 162.807 14.6368 162.792 14.4494C162.777 14.2596 162.77 14.0747 162.77 13.8948V12.7595H164.246V18.5898H163.141L162.826 18.054H162.77C162.702 18.1664 162.617 18.2689 162.515 18.3613C162.415 18.4537 162.293 18.5274 162.148 18.5823C162.005 18.6373 161.837 18.6648 161.642 18.6648ZM162.241 17.507C162.476 17.507 162.641 17.4333 162.736 17.2859C162.834 17.136 162.886 16.9087 162.893 16.6039V16.4878C162.893 16.153 162.846 15.897 162.751 15.7196C162.659 15.5398 162.484 15.4499 162.226 15.4499C162.052 15.4499 161.907 15.5348 161.792 15.7047C161.677 15.8745 161.619 16.1381 161.619 16.4953C161.619 16.8475 161.677 17.1048 161.792 17.2672C161.909 17.427 162.059 17.507 162.241 17.507ZM169.316 16.4578C169.316 16.8125 169.267 17.1273 169.17 17.402C169.072 17.6768 168.931 17.9079 168.746 18.0952C168.561 18.2826 168.338 18.425 168.076 18.5224C167.813 18.6173 167.517 18.6648 167.188 18.6648C166.88 18.6648 166.598 18.6173 166.341 18.5224C166.086 18.425 165.864 18.2826 165.674 18.0952C165.484 17.9079 165.337 17.6768 165.232 17.402C165.129 17.1273 165.078 16.8125 165.078 16.4578C165.078 15.9882 165.163 15.591 165.333 15.2663C165.505 14.9415 165.75 14.6942 166.067 14.5243C166.387 14.3545 166.768 14.2696 167.21 14.2696C167.617 14.2696 167.979 14.3545 168.297 14.5243C168.614 14.6942 168.862 14.9415 169.042 15.2663C169.225 15.591 169.316 15.9882 169.316 16.4578ZM166.566 16.4578C166.566 16.7001 166.587 16.9049 166.629 17.0723C166.672 17.2372 166.739 17.3633 166.832 17.4508C166.926 17.5357 167.05 17.5782 167.203 17.5782C167.355 17.5782 167.476 17.5357 167.566 17.4508C167.656 17.3633 167.721 17.2372 167.761 17.0723C167.803 16.9049 167.825 16.7001 167.825 16.4578C167.825 16.2155 167.803 16.0132 167.761 15.8508C167.721 15.6884 167.655 15.566 167.562 15.4836C167.472 15.4011 167.35 15.3599 167.195 15.3599C166.973 15.3599 166.812 15.4524 166.712 15.6372C166.614 15.8221 166.566 16.0956 166.566 16.4578ZM172.718 14.2696C172.798 14.2696 172.882 14.2758 172.969 14.2883C173.057 14.2983 173.122 14.307 173.164 14.3145L173.033 15.6972C172.985 15.6847 172.924 15.6747 172.849 15.6672C172.774 15.6572 172.669 15.6522 172.535 15.6522C172.442 15.6522 172.343 15.6609 172.238 15.6784C172.134 15.6959 172.034 15.7334 171.939 15.7908C171.846 15.8458 171.77 15.9307 171.71 16.0456C171.65 16.158 171.62 16.3104 171.62 16.5028V18.5898H170.155V14.3445H171.246L171.474 15.0227H171.545C171.623 14.8828 171.721 14.7567 171.841 14.6443C171.964 14.5293 172.1 14.4382 172.25 14.3707C172.402 14.3033 172.558 14.2696 172.718 14.2696ZM126.681 29.5898L126.279 28.4489H124.708L124.306 29.5898H123.595L125.124 25.4644H125.871L127.397 29.5898H126.681ZM126.104 27.87L125.714 26.7459C125.699 26.6972 125.677 26.6288 125.649 26.5407C125.621 26.4508 125.593 26.3599 125.565 26.2681C125.537 26.1745 125.513 26.0958 125.495 26.0321C125.476 26.1089 125.452 26.1951 125.424 26.2906C125.398 26.3843 125.372 26.4723 125.346 26.5548C125.321 26.6372 125.303 26.7009 125.289 26.7459L124.896 27.87H126.104ZM130.584 26.4789V29.5898H130.064L129.974 29.1711H129.938C129.872 29.2779 129.789 29.3669 129.688 29.4381C129.586 29.5074 129.474 29.5589 129.35 29.5927C129.227 29.6283 129.096 29.646 128.96 29.646C128.725 29.646 128.525 29.6067 128.358 29.528C128.193 29.4475 128.067 29.3238 127.979 29.1571C127.891 28.9903 127.847 28.7749 127.847 28.5107V26.4789H128.51V28.3871C128.51 28.6287 128.559 28.8095 128.656 28.9294C128.755 29.0493 128.909 29.1093 129.117 29.1093C129.318 29.1093 129.477 29.0681 129.595 28.9856C129.713 28.9032 129.796 28.7814 129.845 28.6203C129.895 28.4592 129.921 28.2615 129.921 28.0273V26.4789H130.584ZM132.689 29.1121C132.775 29.1121 132.86 29.1046 132.945 29.0896C133.029 29.0728 133.106 29.0531 133.175 29.0306V29.5308C133.102 29.5627 133.007 29.5898 132.891 29.6123C132.775 29.6348 132.654 29.646 132.529 29.646C132.353 29.646 132.194 29.617 132.054 29.5589C131.913 29.499 131.802 29.3969 131.719 29.2526C131.637 29.1084 131.596 28.9088 131.596 28.654V26.9819H131.171V26.6869L131.627 26.4536L131.843 25.7876H132.259V26.4789H133.15V26.9819H132.259V28.6456C132.259 28.803 132.298 28.9201 132.377 28.9969C132.456 29.0737 132.56 29.1121 132.689 29.1121ZM136.561 28.0273C136.561 28.2859 136.528 28.5154 136.46 28.7159C136.393 28.9163 136.294 29.0859 136.165 29.2245C136.036 29.3613 135.88 29.4662 135.699 29.5393C135.517 29.6105 135.312 29.646 135.083 29.646C134.87 29.646 134.674 29.6105 134.496 29.5393C134.318 29.4662 134.163 29.3613 134.032 29.2245C133.903 29.0859 133.803 28.9163 133.731 28.7159C133.66 28.5154 133.625 28.2859 133.625 28.0273C133.625 27.6845 133.684 27.3941 133.802 27.1562C133.922 26.9164 134.092 26.7337 134.313 26.6082C134.534 26.4826 134.798 26.4199 135.103 26.4199C135.39 26.4199 135.642 26.4826 135.862 26.6082C136.081 26.7337 136.252 26.9164 136.376 27.1562C136.5 27.396 136.561 27.6864 136.561 28.0273ZM134.305 28.0273C134.305 28.254 134.332 28.4479 134.386 28.6091C134.442 28.7702 134.529 28.8938 134.645 28.98C134.761 29.0643 134.911 29.1065 135.094 29.1065C135.278 29.1065 135.428 29.0643 135.544 28.98C135.66 28.8938 135.745 28.7702 135.8 28.6091C135.854 28.4479 135.881 28.254 135.881 28.0273C135.881 27.8007 135.854 27.6086 135.8 27.4512C135.745 27.292 135.66 27.1712 135.544 27.0887C135.428 27.0044 135.277 26.9623 135.092 26.9623C134.818 26.9623 134.619 27.0541 134.493 27.2377C134.368 27.4213 134.305 27.6845 134.305 28.0273ZM139.161 29.5898L137.978 26.1585H137.952C137.958 26.2353 137.965 26.3403 137.972 26.4733C137.98 26.6063 137.986 26.7487 137.992 26.9004C137.997 27.0522 138 27.1974 138 27.336V29.5898H137.388V25.4813H138.335L139.473 28.7608H139.49L140.667 25.4813H141.611V29.5898H140.968V27.3023C140.968 27.1768 140.97 27.0409 140.974 26.8948C140.979 26.7487 140.985 26.61 140.99 26.4789C140.998 26.3478 141.003 26.2428 141.007 26.1641H140.985L139.757 29.5898H139.161ZM145.38 28.0273C145.38 28.2859 145.346 28.5154 145.279 28.7159C145.211 28.9163 145.113 29.0859 144.984 29.2245C144.854 29.3613 144.699 29.4662 144.517 29.5393C144.336 29.6105 144.13 29.646 143.902 29.646C143.688 29.646 143.492 29.6105 143.314 29.5393C143.136 29.4662 142.982 29.3613 142.851 29.2245C142.721 29.0859 142.621 28.9163 142.55 28.7159C142.479 28.5154 142.443 28.2859 142.443 28.0273C142.443 27.6845 142.502 27.3941 142.62 27.1562C142.74 26.9164 142.911 26.7337 143.132 26.6082C143.353 26.4826 143.616 26.4199 143.921 26.4199C144.208 26.4199 144.461 26.4826 144.68 26.6082C144.899 26.7337 145.071 26.9164 145.195 27.1562C145.318 27.396 145.38 27.6864 145.38 28.0273ZM143.123 28.0273C143.123 28.254 143.151 28.4479 143.205 28.6091C143.261 28.7702 143.347 28.8938 143.463 28.98C143.58 29.0643 143.729 29.1065 143.913 29.1065C144.097 29.1065 144.247 29.0643 144.363 28.98C144.479 28.8938 144.564 28.7702 144.618 28.6091C144.673 28.4479 144.7 28.254 144.7 28.0273C144.7 27.8007 144.673 27.6086 144.618 27.4512C144.564 27.292 144.479 27.1712 144.363 27.0887C144.247 27.0044 144.096 26.9623 143.91 26.9623C143.637 26.9623 143.437 27.0541 143.312 27.2377C143.186 27.4213 143.123 27.6845 143.123 28.0273ZM147.297 29.1121C147.383 29.1121 147.468 29.1046 147.552 29.0896C147.637 29.0728 147.713 29.0531 147.783 29.0306V29.5308C147.71 29.5627 147.615 29.5898 147.499 29.6123C147.383 29.6348 147.262 29.646 147.136 29.646C146.96 29.646 146.802 29.617 146.661 29.5589C146.521 29.499 146.409 29.3969 146.327 29.2526C146.245 29.1084 146.203 28.9088 146.203 28.654V26.9819H145.779V26.6869L146.234 26.4536L146.451 25.7876H146.867V26.4789H147.757V26.9819H146.867V28.6456C146.867 28.803 146.906 28.9201 146.985 28.9969C147.063 29.0737 147.167 29.1121 147.297 29.1121ZM149.075 26.4789V29.5898H148.415V26.4789H149.075ZM148.749 25.2873C148.851 25.2873 148.938 25.3145 149.011 25.3688C149.086 25.4232 149.123 25.5169 149.123 25.6499C149.123 25.781 149.086 25.8747 149.011 25.9309C148.938 25.9852 148.851 26.0124 148.749 26.0124C148.645 26.0124 148.556 25.9852 148.482 25.9309C148.411 25.8747 148.376 25.781 148.376 25.6499C148.376 25.5169 148.411 25.4232 148.482 25.3688C148.556 25.3145 148.645 25.2873 148.749 25.2873ZM150.734 29.5898L149.55 26.4789H150.25L150.891 28.3056C150.932 28.4217 150.97 28.5472 151.003 28.6821C151.037 28.817 151.06 28.9304 151.074 29.0222H151.096C151.109 28.9266 151.134 28.8123 151.172 28.6793C151.209 28.5444 151.248 28.4198 151.287 28.3056L151.928 26.4789H152.625L151.442 29.5898H150.734ZM154.336 26.4199C154.614 26.4199 154.851 26.477 155.05 26.5913C155.249 26.7056 155.401 26.8676 155.508 27.0775C155.615 27.2873 155.668 27.5384 155.668 27.8306V28.1847H153.592C153.599 28.4864 153.68 28.7187 153.833 28.8817C153.989 29.0447 154.206 29.1262 154.485 29.1262C154.684 29.1262 154.862 29.1074 155.019 29.0699C155.178 29.0306 155.342 28.9735 155.511 28.8985V29.4353C155.355 29.5083 155.197 29.5617 155.036 29.5955C154.875 29.6292 154.682 29.646 154.457 29.646C154.152 29.646 153.883 29.587 153.651 29.469C153.42 29.3491 153.239 29.1711 153.108 28.9351C152.979 28.699 152.914 28.4058 152.914 28.0554C152.914 27.707 152.973 27.411 153.091 27.1674C153.209 26.9239 153.375 26.7384 153.589 26.611C153.802 26.4836 154.051 26.4199 154.336 26.4199ZM154.336 26.9173C154.128 26.9173 153.96 26.9847 153.83 27.1196C153.703 27.2545 153.628 27.4522 153.606 27.7126H155.022C155.02 27.5571 154.994 27.4194 154.943 27.2995C154.895 27.1796 154.82 27.0859 154.718 27.0185C154.619 26.951 154.492 26.9173 154.336 26.9173ZM160.347 28.4714C160.347 28.7149 160.287 28.9248 160.168 29.1009C160.049 29.277 159.879 29.4119 159.656 29.5055C159.435 29.5992 159.171 29.646 158.864 29.646C158.714 29.646 158.57 29.6376 158.434 29.6208C158.297 29.6039 158.168 29.5795 158.046 29.5477C157.926 29.514 157.816 29.4737 157.717 29.4268V28.7917C157.884 28.8648 158.07 28.9313 158.276 28.9913C158.482 29.0493 158.692 29.0784 158.906 29.0784C159.08 29.0784 159.224 29.0559 159.338 29.0109C159.455 28.9641 159.541 28.8985 159.597 28.8142C159.653 28.728 159.681 28.6278 159.681 28.5135C159.681 28.3917 159.649 28.2887 159.583 28.2044C159.517 28.1201 159.418 28.0433 159.285 27.9739C159.154 27.9028 158.989 27.8269 158.791 27.7463C158.656 27.692 158.526 27.6302 158.403 27.5608C158.281 27.4915 158.172 27.41 158.077 27.3164C157.981 27.2227 157.905 27.1121 157.849 26.9847C157.795 26.8555 157.768 26.7037 157.768 26.5295C157.768 26.2972 157.823 26.0986 157.933 25.9337C158.046 25.7688 158.203 25.6424 158.405 25.5543C158.61 25.4663 158.848 25.4222 159.119 25.4222C159.335 25.4222 159.537 25.4447 159.726 25.4897C159.917 25.5347 160.105 25.5983 160.288 25.6808L160.075 26.2232C159.906 26.1538 159.742 26.0986 159.583 26.0574C159.426 26.0161 159.264 25.9955 159.1 25.9955C158.957 25.9955 158.836 26.0171 158.737 26.0602C158.638 26.1033 158.562 26.1641 158.509 26.2428C158.459 26.3196 158.434 26.4114 158.434 26.5182C158.434 26.6381 158.463 26.7393 158.521 26.8217C158.581 26.9023 158.672 26.9763 158.796 27.0438C158.922 27.1112 159.083 27.1861 159.279 27.2686C159.506 27.3623 159.698 27.4606 159.856 27.5637C160.015 27.6667 160.137 27.7903 160.221 27.9346C160.305 28.077 160.347 28.2559 160.347 28.4714ZM163.826 28.0273C163.826 28.2859 163.793 28.5154 163.725 28.7159C163.658 28.9163 163.559 29.0859 163.43 29.2245C163.301 29.3613 163.145 29.4662 162.964 29.5393C162.782 29.6105 162.577 29.646 162.348 29.646C162.135 29.646 161.939 29.6105 161.761 29.5393C161.583 29.4662 161.428 29.3613 161.297 29.2245C161.168 29.0859 161.068 28.9163 160.997 28.7159C160.925 28.5154 160.89 28.2859 160.89 28.0273C160.89 27.6845 160.949 27.3941 161.067 27.1562C161.187 26.9164 161.357 26.7337 161.578 26.6082C161.799 26.4826 162.063 26.4199 162.368 26.4199C162.655 26.4199 162.908 26.4826 163.127 26.6082C163.346 26.7337 163.517 26.9164 163.641 27.1562C163.765 27.396 163.826 27.6864 163.826 28.0273ZM161.57 28.0273C161.57 28.254 161.597 28.4479 161.651 28.6091C161.708 28.7702 161.794 28.8938 161.91 28.98C162.026 29.0643 162.176 29.1065 162.36 29.1065C162.543 29.1065 162.693 29.0643 162.809 28.98C162.925 28.8938 163.011 28.7702 163.065 28.6091C163.119 28.4479 163.146 28.254 163.146 28.0273C163.146 27.8007 163.119 27.6086 163.065 27.4512C163.011 27.292 162.925 27.1712 162.809 27.0887C162.693 27.0044 162.542 26.9623 162.357 26.9623C162.083 26.9623 161.884 27.0541 161.758 27.2377C161.633 27.4213 161.57 27.6845 161.57 28.0273ZM165.839 29.646C165.544 29.646 165.29 29.5889 165.074 29.4746C164.859 29.3603 164.693 29.1852 164.577 28.9491C164.461 28.713 164.403 28.4133 164.403 28.0498C164.403 27.6714 164.466 27.3623 164.594 27.1224C164.721 26.8826 164.897 26.7056 165.122 26.5913C165.349 26.477 165.608 26.4199 165.9 26.4199C166.086 26.4199 166.254 26.4386 166.403 26.4761C166.555 26.5117 166.684 26.5557 166.788 26.6082L166.592 27.1365C166.477 27.0897 166.36 27.0503 166.24 27.0185C166.121 26.9866 166.005 26.9707 165.895 26.9707C165.713 26.9707 165.561 27.011 165.44 27.0915C165.32 27.1721 165.23 27.292 165.17 27.4512C165.112 27.6105 165.083 27.8081 165.083 28.0442C165.083 28.2728 165.113 28.4657 165.173 28.6231C165.233 28.7786 165.322 28.8966 165.44 28.9772C165.558 29.0559 165.703 29.0952 165.875 29.0952C166.046 29.0952 166.198 29.0746 166.333 29.0334C166.468 28.9922 166.596 28.9388 166.715 28.8732V29.4465C166.597 29.514 166.471 29.5636 166.336 29.5955C166.201 29.6292 166.035 29.646 165.839 29.646ZM168.106 26.4789V29.5898H167.446V26.4789H168.106ZM167.78 25.2873C167.882 25.2873 167.969 25.3145 168.042 25.3688C168.117 25.4232 168.154 25.5169 168.154 25.6499C168.154 25.781 168.117 25.8747 168.042 25.9309C167.969 25.9852 167.882 26.0124 167.78 26.0124C167.676 26.0124 167.587 25.9852 167.514 25.9309C167.442 25.8747 167.407 25.781 167.407 25.6499C167.407 25.5169 167.442 25.4232 167.514 25.3688C167.587 25.3145 167.676 25.2873 167.78 25.2873ZM170.273 26.4199C170.667 26.4199 170.964 26.507 171.164 26.6812C171.366 26.8555 171.468 27.1271 171.468 27.4962V29.5898H170.998L170.872 29.1486H170.849C170.761 29.261 170.67 29.3538 170.577 29.4268C170.483 29.4999 170.374 29.5542 170.251 29.5898C170.129 29.6273 169.98 29.646 169.804 29.646C169.618 29.646 169.453 29.6123 169.306 29.5449C169.16 29.4756 169.045 29.3706 168.961 29.2301C168.876 29.0896 168.834 28.9116 168.834 28.6962C168.834 28.3758 168.953 28.1351 169.191 27.9739C169.431 27.8128 169.793 27.7238 170.276 27.707L170.816 27.6873V27.5243C170.816 27.3089 170.765 27.1552 170.664 27.0634C170.565 26.9716 170.424 26.9257 170.242 26.9257C170.087 26.9257 169.936 26.9482 169.79 26.9932C169.644 27.0381 169.501 27.0934 169.363 27.159L169.149 26.6925C169.301 26.6119 169.473 26.5463 169.666 26.4958C169.861 26.4452 170.063 26.4199 170.273 26.4199ZM170.813 28.1032L170.411 28.1173C170.081 28.1285 169.85 28.1847 169.717 28.2859C169.584 28.3871 169.517 28.5257 169.517 28.7018C169.517 28.8554 169.563 28.9678 169.655 29.039C169.747 29.1084 169.868 29.143 170.017 29.143C170.246 29.143 170.435 29.0784 170.585 28.9491C170.737 28.818 170.813 28.6259 170.813 28.373V28.1032ZM173.055 29.5898H172.392V25.2171H173.055V29.5898ZM138.127 33.4813C138.657 33.4813 139.044 33.5899 139.287 33.8072C139.531 34.0246 139.653 34.329 139.653 34.7206C139.653 34.8986 139.625 35.0681 139.568 35.2292C139.514 35.3885 139.424 35.5299 139.299 35.6536C139.173 35.7754 139.007 35.8718 138.801 35.943C138.597 36.0142 138.345 36.0498 138.045 36.0498H137.607V37.5898H136.932V33.4813H138.127ZM138.082 34.0405H137.607V35.4878H137.975C138.187 35.4878 138.367 35.4634 138.515 35.4147C138.663 35.3641 138.775 35.2845 138.852 35.1758C138.929 35.0672 138.967 34.9239 138.967 34.7459C138.967 34.5079 138.895 34.3309 138.751 34.2147C138.608 34.0986 138.385 34.0405 138.082 34.0405ZM141.069 37.5898H140.406V33.2171H141.069V37.5898ZM143.233 34.4199C143.626 34.4199 143.923 34.507 144.124 34.6812C144.326 34.8555 144.427 35.1271 144.427 35.4962V37.5898H143.958L143.832 37.1486H143.809C143.721 37.261 143.63 37.3538 143.536 37.4268C143.443 37.4999 143.334 37.5542 143.21 37.5898C143.089 37.6273 142.94 37.646 142.764 37.646C142.578 37.646 142.412 37.6123 142.266 37.5449C142.12 37.4756 142.005 37.3706 141.921 37.2301C141.836 37.0896 141.794 36.9116 141.794 36.6962C141.794 36.3758 141.913 36.1351 142.151 35.9739C142.391 35.8128 142.752 35.7238 143.236 35.707L143.775 35.6873V35.5243C143.775 35.3089 143.725 35.1552 143.624 35.0634C143.524 34.9716 143.384 34.9257 143.202 34.9257C143.047 34.9257 142.896 34.9482 142.75 34.9932C142.603 35.0381 142.461 35.0934 142.322 35.159L142.109 34.6925C142.261 34.6119 142.433 34.5463 142.626 34.4958C142.821 34.4452 143.023 34.4199 143.233 34.4199ZM143.773 36.1032L143.371 36.1173C143.041 36.1285 142.81 36.1847 142.677 36.2859C142.543 36.3871 142.477 36.5257 142.477 36.7018C142.477 36.8554 142.523 36.9678 142.615 37.039C142.706 37.1084 142.827 37.143 142.977 37.143C143.206 37.143 143.395 37.0784 143.545 36.9491C143.697 36.818 143.773 36.6259 143.773 36.373V36.1032ZM146.51 37.1121C146.596 37.1121 146.681 37.1046 146.765 37.0896C146.85 37.0728 146.927 37.0531 146.996 37.0306V37.5308C146.923 37.5627 146.828 37.5898 146.712 37.6123C146.596 37.6348 146.475 37.646 146.35 37.646C146.173 37.646 146.015 37.617 145.875 37.5589C145.734 37.499 145.623 37.3969 145.54 37.2526C145.458 37.1084 145.417 36.9088 145.417 36.654V34.9819H144.992V34.6869L145.447 34.4536L145.664 33.7876H146.08V34.4789H146.971V34.9819H146.08V36.6456C146.08 36.803 146.119 36.9201 146.198 36.9969C146.276 37.0737 146.38 37.1121 146.51 37.1121ZM149.182 34.9819H148.426V37.5898H147.766V34.9819H147.257V34.6644L147.766 34.4705V34.2541C147.766 33.9899 147.807 33.7801 147.89 33.6246C147.974 33.4691 148.094 33.3576 148.249 33.2902C148.407 33.2208 148.594 33.1862 148.811 33.1862C148.954 33.1862 149.084 33.1984 149.202 33.2227C149.32 33.2452 149.419 33.2714 149.5 33.3014L149.328 33.8016C149.265 33.781 149.193 33.7623 149.115 33.7454C149.036 33.7267 148.952 33.7173 148.862 33.7173C148.712 33.7173 148.601 33.7642 148.53 33.8578C148.461 33.9515 148.426 34.0883 148.426 34.2681V34.4789H149.182V34.9819ZM152.467 36.0273C152.467 36.2859 152.434 36.5154 152.366 36.7159C152.299 36.9163 152.2 37.0859 152.071 37.2245C151.942 37.3613 151.786 37.4662 151.605 37.5393C151.423 37.6105 151.218 37.646 150.989 37.646C150.776 37.646 150.58 37.6105 150.402 37.5393C150.224 37.4662 150.069 37.3613 149.938 37.2245C149.809 37.0859 149.709 36.9163 149.638 36.7159C149.566 36.5154 149.531 36.2859 149.531 36.0273C149.531 35.6845 149.59 35.3941 149.708 35.1562C149.828 34.9164 149.998 34.7337 150.219 34.6082C150.44 34.4826 150.704 34.4199 151.009 34.4199C151.296 34.4199 151.548 34.4826 151.768 34.6082C151.987 34.7337 152.158 34.9164 152.282 35.1562C152.406 35.396 152.467 35.6864 152.467 36.0273ZM150.211 36.0273C150.211 36.254 150.238 36.4479 150.292 36.6091C150.349 36.7702 150.435 36.8938 150.551 36.98C150.667 37.0643 150.817 37.1065 151 37.1065C151.184 37.1065 151.334 37.0643 151.45 36.98C151.566 36.8938 151.652 36.7702 151.706 36.6091C151.76 36.4479 151.787 36.254 151.787 36.0273C151.787 35.8007 151.76 35.6086 151.706 35.4512C151.652 35.292 151.566 35.1712 151.45 35.0887C151.334 35.0044 151.183 34.9623 150.998 34.9623C150.724 34.9623 150.525 35.0541 150.399 35.2377C150.274 35.4213 150.211 35.6845 150.211 36.0273ZM154.803 34.4199C154.855 34.4199 154.912 34.4227 154.974 34.4283C155.036 34.4339 155.089 34.4414 155.134 34.4508L155.073 35.069C155.033 35.0578 154.984 35.0494 154.926 35.0438C154.87 35.0381 154.82 35.0353 154.775 35.0353C154.657 35.0353 154.544 35.055 154.437 35.0943C154.331 35.1318 154.236 35.1899 154.154 35.2686C154.071 35.3454 154.007 35.4419 153.96 35.558C153.913 35.6742 153.889 35.8091 153.889 35.9627V37.5898H153.226V34.4789H153.743L153.833 35.0269H153.864C153.926 34.9164 154.003 34.8152 154.095 34.7234C154.186 34.6316 154.291 34.5585 154.409 34.5042C154.529 34.448 154.66 34.4199 154.803 34.4199ZM159.226 34.4199C159.575 34.4199 159.837 34.5098 160.013 34.6897C160.191 34.8695 160.28 35.158 160.28 35.5552V37.5898H159.62V35.6733C159.62 35.4372 159.574 35.2592 159.482 35.1393C159.39 35.0194 159.25 34.9594 159.063 34.9594C158.801 34.9594 158.612 35.0438 158.495 35.2124C158.381 35.3791 158.324 35.6217 158.324 35.9402V37.5898H157.664V35.6733C157.664 35.5159 157.643 35.3847 157.602 35.2798C157.562 35.173 157.502 35.0934 157.419 35.0409C157.337 34.9866 157.233 34.9594 157.107 34.9594C156.925 34.9594 156.78 35.0007 156.672 35.0831C156.565 35.1655 156.488 35.2873 156.441 35.4484C156.394 35.6077 156.371 35.8035 156.371 36.0358V37.5898H155.71V34.4789H156.225L156.317 34.8976H156.354C156.418 34.789 156.496 34.7 156.59 34.6306C156.686 34.5595 156.791 34.507 156.908 34.4733C157.024 34.4377 157.145 34.4199 157.27 34.4199C157.502 34.4199 157.698 34.4611 157.857 34.5435C158.017 34.6241 158.136 34.7477 158.214 34.9145H158.265C158.362 34.7459 158.498 34.6213 158.672 34.5407C158.847 34.4602 159.031 34.4199 159.226 34.4199Z" fill="black"/>
<path d="M22.7218 47.9613L31.1751 19.1244L40.7074 47.9613H50.2398L57.4341 19.1244L67.8657 47.9613H82.3741L65.5875 2.03809H52.2782L45.3837 28.417L36.5707 2.03809H22.7218L7.55396 47.9613H22.7218Z" fill="black"/>
<path d="M90.5275 37.2299L102.027 2.03809H109.712L95.3024 47.9613H86.7166L69.3044 2.03809H77.1582L90.5275 37.2299Z" fill="black"/>
</svg>
