<svg width="50" height="50" viewBox="0 0 50 50" fill="none" xmlns="http://www.w3.org/2000/svg">
<g clip-path="url(#clip0_568_2509)">
<path d="M8.33301 37.5003H12.4997V41.667H37.4997V8.33366H12.4997V12.5003H8.33301V6.25033C8.33301 5.69779 8.5525 5.16789 8.9432 4.77719C9.3339 4.38649 9.86381 4.16699 10.4163 4.16699H39.583C40.1355 4.16699 40.6654 4.38649 41.0561 4.77719C41.4468 5.16789 41.6663 5.69779 41.6663 6.25033V43.7503C41.6663 44.3029 41.4468 44.8328 41.0561 45.2235C40.6654 45.6142 40.1355 45.8337 39.583 45.8337H10.4163C9.86381 45.8337 9.3339 45.6142 8.9432 45.2235C8.5525 44.8328 8.33301 44.3029 8.33301 43.7503V37.5003ZM12.4997 22.917H27.083V27.0837H12.4997V33.3337L2.08301 25.0003L12.4997 16.667V22.917Z" fill="black"/>
</g>
<defs>
<clipPath id="clip0_568_2509">
<rect width="50" height="50" fill="white"/>
</clipPath>
</defs>
</svg>
