<svg width="33" height="32" viewBox="0 0 33 32" fill="none" xmlns="http://www.w3.org/2000/svg">
<path d="M11.8893 15.9782C13.0652 16.2696 14.8417 16.6165 16.625 16.6165C18.4083 16.6165 20.1847 16.2696 21.3607 15.9782C22.3336 15.7379 23.0133 14.871 23.0133 13.8715C23.0133 12.6754 22.0403 11.7024 20.8442 11.7024H18.5906C18.5906 10.6184 17.709 9.73682 16.625 9.73682C15.5409 9.73682 14.6594 10.6184 14.6594 11.7024H12.4058C11.2097 11.7024 10.2367 12.6754 10.2367 13.8715C10.2367 14.871 10.9163 15.7379 11.8893 15.9782ZM16.625 10.7196C17.167 10.7196 17.6078 11.1604 17.6078 11.7024C17.6078 12.2445 17.167 12.6853 16.625 12.6853C16.083 12.6853 15.6422 12.2445 15.6422 11.7024C15.6422 11.1604 16.083 10.7196 16.625 10.7196ZM12.4058 12.6853H14.9326C15.2736 13.27 15.9006 13.6681 16.625 13.6681C17.3493 13.6681 17.9763 13.27 18.3174 12.6853H20.8442C21.4983 12.6853 22.0304 13.2174 22.0304 13.8715C22.0304 14.418 21.658 14.8922 21.1248 15.0243C20.0014 15.302 18.3095 15.6337 16.625 15.6337C14.9404 15.6337 13.2485 15.302 12.1252 15.0243C11.592 14.8922 11.2195 14.418 11.2195 13.8715C11.2195 13.2174 11.7517 12.6853 12.4058 12.6853Z" fill="black"/>
<path d="M7.77966 18.6827L8.52758 20.4281C9.07059 21.695 10.3119 22.5132 11.6898 22.5132H21.5607C22.9386 22.5132 24.1794 21.695 24.7224 20.4281L25.4703 18.6827V17.5991H7.77966V18.6827ZM9.73104 20.5476H11.7109V21.5304H11.6898C10.906 21.5304 10.1885 21.1554 9.73104 20.5476ZM18.5906 20.5476H20.5562V21.5304H18.5906V20.5476ZM17.6078 21.5304H15.6422V20.5476H17.6078V21.5304ZM18.5906 19.5647V18.5819H20.5562V19.5647H18.5906ZM17.6078 19.5647H15.6422V18.5819H17.6078V19.5647ZM14.6594 19.5647H12.6937V18.5819H14.6594V19.5647ZM14.6594 20.5476V21.5304H12.6937V20.5476H14.6594ZM21.5602 21.5304H21.539V20.5476H23.5189C23.0614 21.1554 22.344 21.5304 21.5602 21.5304ZM24.0231 19.5647H21.539V18.5819H24.4442L24.0231 19.5647ZM11.7109 18.5819V19.5647H9.22685L8.80572 18.5819H11.7109Z" fill="black"/>
<path d="M26.6865 15.6335C26.287 15.6335 25.9617 15.3087 25.9617 14.9087C25.9617 14.807 25.9828 14.7077 26.0241 14.6143L28.0649 10.0211L27.6791 9.801C27.5347 9.71844 24.0413 7.771 16.625 7.771C9.20865 7.771 5.71524 9.71844 5.57028 9.80149L5.18452 10.0216L7.22582 14.6148C7.2671 14.7077 7.28823 14.807 7.28823 14.9087C7.28823 15.3087 6.96292 15.6335 6.56341 15.6335H1.39136V18.1888L2.87835 21.7574C3.5673 23.4105 5.16978 24.4788 6.96046 24.4788H26.2889C28.0801 24.4788 29.6826 23.4105 30.3715 21.7574L31.8585 18.1888V15.6335H26.6865ZM2.61987 18.5819H5.76438C5.54128 19.6768 4.58648 20.5033 3.43561 20.5407L2.61987 18.5819ZM26.2894 23.496H6.96046C5.61008 23.496 4.40368 22.7112 3.842 21.492C5.50934 21.2547 6.79683 19.8218 6.79683 18.0905V17.5991H2.37417V16.6163H6.56341C7.50494 16.6163 8.27105 15.8502 8.27105 14.9087C8.27105 14.6684 8.22141 14.435 8.12411 14.2153L6.45628 10.4624C7.54524 9.97987 10.876 8.75381 16.625 8.75381C22.3749 8.75381 25.7056 9.97987 26.7936 10.4629L25.1263 14.2153C25.0285 14.435 24.9789 14.6684 24.9789 14.9087C24.9789 15.8502 25.745 16.6163 26.6865 16.6163H30.8757V17.5991H26.4531V18.0905C26.4531 19.8218 27.7406 21.2547 29.4074 21.492C28.8462 22.7112 27.6398 23.496 26.2894 23.496ZM29.8138 20.5407C28.6629 20.5033 27.7081 19.6768 27.485 18.5819H30.63L29.8138 20.5407Z" fill="black"/>
</svg>
