<svg width="32" height="32" viewBox="0 0 32 32" fill="none" xmlns="http://www.w3.org/2000/svg">
<path d="M14.947 29.361L16.361 30.775L28.361 18.775C31.507 15.629 31.507 10.507 28.361 7.361C25.213 4.213 20.095 4.213 16.947 7.361L3.947 20.361C1.351 22.957 1.351 27.179 3.947 29.775C5.243 31.071 6.949 31.723 8.655 31.723C10.361 31.723 12.065 31.073 13.363 29.775L25.363 17.775C26.353 16.785 26.897 15.469 26.897 14.069C26.897 12.669 26.353 11.353 25.361 10.361C23.381 8.381 19.927 8.381 17.947 10.361L6.947 21.361L8.361 22.775L19.361 11.775C20.583 10.553 22.725 10.553 23.947 11.775C24.559 12.387 24.897 13.201 24.897 14.069C24.897 14.937 24.559 15.751 23.947 16.361L11.947 28.361C10.131 30.177 7.177 30.177 5.361 28.361C3.545 26.545 3.545 23.591 5.361 21.775L18.361 8.775C20.729 6.407 24.579 6.407 26.947 8.775C29.315 11.143 29.315 14.993 26.947 17.361L14.947 29.361Z" fill="#CCCCCC"/>
</svg>
